<svg width="340" height="97" viewBox="0 0 340 97" fill="none" xmlns="http://www.w3.org/2000/svg">
<path fill-rule="evenodd" clip-rule="evenodd" d="M0 0H340V97H0V0ZM4.62541 14.2909C8.48754 12.2952 11.1676 11.892 15.3026 11.892H17.0446C18.7334 11.4042 21.6854 10.3122 23.581 10.3122H39.874L56.8562 8.73237H75.7425C83.6981 8.73237 97.0309 6.62596 97.0309 6.62596H115.22C128.247 6.62596 136.919 5.28429 149.909 6.09935C160.598 6.77009 169.793 6.93139 180.468 6.09935C188.767 5.45246 195.827 6.09936 204.16 6.09936C213.256 6.09936 221.235 5.61064 230.337 6.62596C243.219 8.06291 256.084 6.62596 268.986 6.62596C273.194 6.62596 278.355 7.3202 282.504 6.62596C288.377 5.64319 299.51 7.8046 305.38 6.62596C310.038 5.69068 307.892 6.57897 312.631 6.21638C316.17 5.94553 319.74 6.09936 323.285 6.09936C325.658 6.09936 328.07 5.95056 330.441 6.09936C332.208 6.21021 332.12 15.3423 332.12 17.6846C332.12 24.0604 333.294 32.0878 334.294 38.2474C335.334 44.6573 336.189 46.9901 336.189 53.5331C334.802 65.0135 336.485 70.0952 336.189 72.8421C335.979 74.7874 335.775 84.1964 334.294 85.4351C333.199 86.3512 327.249 86.579 326.053 86.6001C321.185 86.6862 318.499 88.1321 312.319 88.1321C304.765 89.1629 302.246 87.0448 296.181 88.1321C292.597 88.7746 286.208 88.1321 282.504 88.1321C277.805 88.1321 262.232 88.5582 257.547 88.1321C245.955 87.078 247.986 87.7824 236.404 86.6001C229.632 85.9089 224.211 86.8624 217.56 88.0325L216.993 88.1321C210.1 89.3431 196.196 88.1321 196.196 88.1321H178.172C178.172 88.1321 167.12 88.436 162.574 88.4939C157.047 88.5643 150.763 88.2925 145.243 88.7758C140.232 89.2146 131.725 89.8875 131.725 89.8875C131.725 89.8875 126.948 90.0065 123.753 90.9499C121.386 91.6489 117.656 91.7741 115.22 92.1987C110.835 92.963 106.189 92.462 101.769 92.462H86.3592C81.3889 92.462 76.408 92.5975 71.4391 92.462C67.4134 92.3521 60.7605 92.0523 56.8562 90.9499C50.9895 89.2934 39.874 92.1987 39.874 92.1987L21.5969 92.462C21.5969 92.462 14.2385 93.7901 11.5338 92.462C9.25706 91.344 10.2851 88.3303 9.6143 85.3236C8.36975 79.7457 8.16892 73.8169 8.16892 68.0043C8.16892 61.5127 7.34201 55.4571 6.93336 49.0466C6.53908 42.8617 6.67934 35.5114 4.99841 29.6794C4.32069 27.328 1.75109 15.7762 4.62541 14.2909Z" fill="white"/>
<path d="M15.3028 11.8919C11.1678 11.8919 8.48775 12.2952 4.62562 14.2909C1.7513 15.7761 4.3209 27.3279 4.99863 29.6793C6.67955 35.5113 6.53929 42.8616 6.93357 49.0466C7.34222 55.457 8.16913 61.5126 8.16913 68.0042C8.16913 73.8168 8.36996 79.7456 9.61451 85.3235C10.2854 88.3302 9.25727 91.3439 11.534 92.4619C14.2387 93.79 21.5972 92.4619 21.5972 92.4619L39.8742 92.1986C39.8742 92.1986 50.9897 89.2933 56.8564 90.9498C60.7607 92.0523 67.4136 92.3521 71.4394 92.4619C76.4082 92.5975 81.3891 92.4619 86.3594 92.4619C91.4959 92.4619 96.6324 92.4619 101.769 92.4619C106.189 92.4619 110.835 92.9629 115.22 92.1986C117.657 91.774 121.386 91.6488 123.753 90.9498C126.948 90.0064 131.726 89.8874 131.726 89.8874C131.726 89.8874 140.232 89.2145 145.244 88.7757C150.763 88.2924 157.048 88.5642 162.574 88.4938C167.12 88.4359 178.172 88.1321 178.172 88.1321H196.196C196.196 88.1321 210.101 89.3431 216.993 88.1321C223.907 86.9175 229.441 85.8893 236.404 86.6C247.986 87.7823 245.955 87.0779 257.547 88.1321C262.232 88.5581 277.805 88.1321 282.504 88.1321C286.208 88.1321 292.597 88.7745 296.181 88.1321C302.246 87.0447 304.765 89.1628 312.319 88.1321C318.5 88.1321 321.185 86.6861 326.054 86.6C327.25 86.5789 333.199 86.3511 334.294 85.435C335.775 84.1963 335.979 74.7874 336.189 72.842C336.485 70.0952 334.802 65.0135 336.189 53.533C336.189 46.9901 335.335 44.6572 334.294 38.2473C333.294 32.0877 332.12 24.0603 332.12 17.6845C332.12 15.3423 332.208 6.21013 330.442 6.09928C328.07 5.95048 325.658 6.09928 323.285 6.09928C319.74 6.09928 316.171 5.94545 312.631 6.21631C307.892 6.57889 310.039 5.6906 305.381 6.62588C299.51 7.80452 288.377 5.64311 282.504 6.62588C278.355 7.32012 273.194 6.62588 268.986 6.62588C256.084 6.62588 243.219 8.06283 230.338 6.62588C221.236 5.61056 213.256 6.09928 204.16 6.09928C195.828 6.09928 188.767 5.45238 180.468 6.09927C169.793 6.93131 160.598 6.77001 149.909 6.09928C136.919 5.28421 128.248 6.62588 115.22 6.62588C110.026 6.62588 97.0311 6.62588 97.0311 6.62588C97.0311 6.62588 83.6983 8.73229 75.7427 8.73229C67.0292 8.73229 56.8564 8.73229 56.8564 8.73229L39.8742 10.3121H30.8601C30.8601 10.3121 27.59 10.3121 23.5812 10.3121C21.6856 10.3121 15.3028 10.8387 17.6887 11.2483" stroke="#222222" stroke-width="5" stroke-linecap="round"/>
</svg>
