<svg width="1402" height="1010" viewBox="0 0 1402 1010" fill="none" xmlns="http://www.w3.org/2000/svg">
<path d="M8.71425 345.069C12.7853 213.733 8.71425 192.399 8.71425 63.3618V33.5414C8.71425 10.9567 8.11518 4.99007 27.7697 4.99007L84.32 4.9901H321.606H494.096H670.53L1125.86 4.99007C1161.66 1.84389 1388.26 1.81769 1394.82 9.41976C1401.38 17.0218 1398.26 72.2444 1398.26 72.2444C1398.26 72.2444 1394.82 152.573 1394.82 193.004V274.657C1394.82 308.821 1396.83 348.439 1394.82 382.518C1393.67 402.018 1394.82 440.255 1394.82 440.255C1389.38 466.511 1394.82 567.785 1394.82 567.785V685.163V771.074C1394.82 901.519 1399.88 1000.85 1394.82 1005.11C1389.76 1009.37 1084.95 1005.11 1084.95 1005.11H647.874H441.194C314.087 1005.11 268.372 1004.31 141.306 1005.11C132.887 1005.16 10.4482 1007.92 4.27849 999.214C1.40188 995.156 4.27851 971.498 4.27851 966.221L4.27848 911.021L4.2785 776.513C4.2785 719.923 8.71425 663.029 8.71425 592.515C8.71425 522 6.68854 410.42 8.71425 345.069Z" stroke="#222222" stroke-width="5" stroke-linecap="round"/>
<path d="M9 102.901H1392.5" stroke="#222222" stroke-width="5" stroke-linecap="round"/>
<path d="M69.4482 47.5891H70.5762C75.4297 48.3411 77.8564 49.4622 77.8564 50.9524V53.2083C77.4873 54.3293 76.3662 54.8899 74.4932 54.8899C72.0596 54.1379 70.3779 53.762 69.4482 53.762C66.8369 54.8557 65.5312 56.5374 65.5312 58.8069V59.9348C65.5312 61.1926 68.71 62.3137 75.0674 63.2981C78.4307 65.0071 80.1123 67.4338 80.1123 70.5784V71.1526C80.1123 75.8284 77.1182 78.6311 71.1299 79.5608H70.002C65.9004 79.5608 63.8496 78.2551 63.8496 75.6438C63.8496 73.9075 66.8369 72.595 72.8115 71.7063L73.3652 70.5784C71.998 69.594 69.0107 68.6643 64.4033 67.7893C60.2881 65.4788 58.2305 62.4846 58.2305 58.8069C60.7051 51.3284 64.4443 47.5891 69.4482 47.5891ZM103.204 53.2083H103.758C105.125 53.2083 107.743 58.4377 111.612 68.8967V69.4709C111.612 69.9768 110.676 70.9133 108.803 72.2805C106.191 72.2805 104.886 70.968 104.886 68.343H104.312C102.138 71.7063 98.5898 73.3879 93.668 73.3879C88.8008 73.3879 85.2461 69.0881 83.0039 60.4885V57.1252C83.7285 55.4163 84.4736 54.4797 85.2393 54.3157H86.9209C88.1514 54.3157 89.2793 57.3098 90.3047 63.2981C91.8906 65.9094 93.3809 67.2151 94.7754 67.2151C98.1523 67.2151 99.8408 63.4758 99.8408 55.9973C99.8408 54.1379 100.962 53.2083 103.204 53.2083ZM129.085 55.4436C135.073 56.9338 138.067 59.7366 138.067 63.8518C138.437 65.6838 138.621 68.1174 138.621 71.1526V72.2805C138.621 73.9211 137.685 75.2268 135.812 76.1975C133.569 75.4319 132.448 74.6868 132.448 73.9622V72.2805C132.448 65.5403 131.512 62.1702 129.639 62.1702H126.275C125.059 62.1702 123.377 66.2854 121.23 74.5159L120.123 75.0696H117.867C116.377 74.468 115.632 73.1624 115.632 71.1526V68.8967C115.632 65.5334 115.256 62.3547 114.504 59.3606C115.27 57.1184 116.015 55.9973 116.739 55.9973H118.995L121.23 57.679C124.047 56.1887 126.665 55.4436 129.085 55.4436Z" fill="#FF5C50"/>
<path d="M271.839 44.2258H272.393C275.277 44.2258 277.711 48.3411 279.693 56.5715C282.688 64.5422 284.185 69.7786 284.185 72.2805C283.665 74.8918 282.913 76.1975 281.929 76.1975H280.247C278.989 76.0334 277.123 70.2366 274.648 58.8069C274.129 58.8069 273.568 57.3098 272.967 54.3157H272.393C271.791 54.3157 270.294 56.7493 267.901 61.6165L263.984 66.1077H262.856C260.874 66.1077 256.95 62.553 251.085 55.4436L249.957 54.8899H249.403V59.9348L248.85 61.0422H249.403L248.85 62.1702C248.85 63.7151 249.034 65.2122 249.403 66.6614L248.85 68.8967C249.219 72.7249 249.403 75.719 249.403 77.8792C248.173 78.6311 247.052 79.0071 246.04 79.0071C244.536 77.4485 243.784 75.5754 243.784 73.3879V69.4709C243.784 69.0881 243.6 68.8967 243.23 68.8967L243.784 67.7893V48.717C243.784 46.092 244.905 44.7795 247.147 44.7795C250.087 46.5979 254.954 50.7131 261.749 57.1252H262.303C262.754 57.1252 264.436 54.3225 267.348 48.717C269.904 45.7229 271.401 44.2258 271.839 44.2258ZM299.976 52.0803C306.333 54.2268 309.512 57.4055 309.512 61.6165V63.8518C307.775 72.4514 304.036 76.7512 298.294 76.7512C290.815 76.7512 287.076 71.8909 287.076 62.1702C289.018 55.8127 292.196 52.634 296.612 52.634C296.886 52.634 298.007 52.4495 299.976 52.0803ZM293.249 63.2981C293.249 66.47 294.37 68.7122 296.612 70.0247H299.422C300.789 70.0247 302.095 67.5979 303.339 62.7444C302.327 59.7502 300.646 58.2532 298.294 58.2532C296.421 58.2532 294.739 59.9348 293.249 63.2981ZM326.964 55.4436C332.952 56.9338 335.946 59.7366 335.946 63.8518C336.315 65.6838 336.5 68.1174 336.5 71.1526V72.2805C336.5 73.9211 335.563 75.2268 333.69 76.1975C331.448 75.4319 330.327 74.6868 330.327 73.9622V72.2805C330.327 65.5403 329.391 62.1702 327.518 62.1702H324.154C322.938 62.1702 321.256 66.2854 319.109 74.5159L318.002 75.0696H315.746C314.256 74.468 313.511 73.1624 313.511 71.1526V68.8967C313.511 65.5334 313.135 62.3547 312.383 59.3606C313.148 57.1184 313.894 55.9973 314.618 55.9973H316.874L319.109 57.679C321.926 56.1887 324.544 55.4436 326.964 55.4436Z" fill="#222222"/>
<path d="M472.074 40.3088H475.438C477.447 40.3088 478.76 41.054 479.375 42.5442V45.9075C479.375 46.509 478.254 47.2542 476.012 48.1428C472.088 47.4045 469.654 47.0354 468.711 47.0354C466.756 47.4045 464.89 47.5891 463.112 47.5891V57.1252C463.112 60.5295 463.673 66.7024 464.794 75.6438C464.069 77.3391 463.317 78.2688 462.538 78.4329H460.303C458.156 78.4329 456.844 71.1458 456.365 56.5715V51.5266C456.365 50.5012 455.996 49.3733 455.258 48.1428C452.783 48.8948 448.853 49.2708 443.466 49.2708C441.976 47.9583 441.23 46.6526 441.23 45.3538C442.133 43.1116 443.254 41.9905 444.594 41.9905C459.564 40.8694 468.725 40.3088 472.074 40.3088ZM502.446 53.2083H503C504.367 53.2083 506.985 58.4377 510.854 68.8967V69.4709C510.854 69.9768 509.918 70.9133 508.045 72.2805C505.434 72.2805 504.128 70.968 504.128 68.343H503.554C501.38 71.7063 497.832 73.3879 492.91 73.3879C488.043 73.3879 484.488 69.0881 482.246 60.4885V57.1252C482.971 55.4163 483.716 54.4797 484.481 54.3157H486.163C487.394 54.3157 488.521 57.3098 489.547 63.2981C491.133 65.9094 492.623 67.2151 494.018 67.2151C497.395 67.2151 499.083 63.4758 499.083 55.9973C499.083 54.1379 500.204 53.2083 502.446 53.2083ZM527.773 44.7795H528.881C535.99 45.7502 539.545 47.6233 539.545 50.3987C539.545 51.0823 539.921 52.5793 540.673 54.8899C539.538 60.1262 535.607 62.7444 528.881 62.7444L527.773 62.1702C527.391 62.1702 527.199 62.3616 527.199 62.7444L523.282 62.1702H521.047V62.7444C521.047 67.2288 524.971 69.4709 532.818 69.4709C536.277 67.5979 538.335 66.6614 538.991 66.6614L540.673 69.4709C539.688 73.9553 537.446 76.1975 533.946 76.1975C533.003 76.1975 531.506 76.3821 529.455 76.7512C524.205 76.7512 519.529 73.7639 515.428 67.7893C514.307 63.8108 513.746 60.8167 513.746 58.8069V57.1252C513.746 50.5764 518.422 46.4612 527.773 44.7795ZM521.601 54.8899L525.518 55.4436H530.583L533.372 54.8899V52.634C530.72 51.8958 528.662 51.5266 527.199 51.5266C523.467 53.2083 521.601 54.3293 521.601 54.8899Z" fill="#222222"/>
<path d="M648.594 40.8625H649.722C651.075 42.3118 653.317 48.6692 656.448 59.9348C656.913 59.9348 657.85 61.801 659.258 65.5334H660.365C660.365 64.5491 661.862 61.5618 664.856 56.5715C665.718 52.0735 667.399 49.8245 669.901 49.8245H671.029C672.027 50.2073 675.021 55.0745 680.012 64.426H681.693C686.643 48.717 690.566 40.8625 693.465 40.8625C694.969 41.2317 695.721 42.3528 695.721 44.2258V44.7795C690.635 61.0764 686.52 70.804 683.375 73.9622H681.693C679.342 73.9622 675.411 69.6555 669.901 61.0422C666.552 68.7668 663.564 73.8186 660.939 76.1975H658.13C656.927 76.1975 653.748 69.8401 648.594 57.1252C646.352 49.8518 645.23 45.552 645.23 44.2258C645.23 41.9836 646.352 40.8625 648.594 40.8625ZM712.619 44.7795H713.727C720.836 45.7502 724.391 47.6233 724.391 50.3987C724.391 51.0823 724.767 52.5793 725.519 54.8899C724.384 60.1262 720.453 62.7444 713.727 62.7444L712.619 62.1702C712.236 62.1702 712.045 62.3616 712.045 62.7444L708.128 62.1702H705.893V62.7444C705.893 67.2288 709.816 69.4709 717.664 69.4709C721.123 67.5979 723.181 66.6614 723.837 66.6614L725.519 69.4709C724.534 73.9553 722.292 76.1975 718.792 76.1975C717.849 76.1975 716.352 76.3821 714.301 76.7512C709.051 76.7512 704.375 73.7639 700.273 67.7893C699.152 63.8108 698.592 60.8167 698.592 58.8069V57.1252C698.592 50.5764 703.268 46.4612 712.619 44.7795ZM706.446 54.8899L710.363 55.4436H715.429L718.218 54.8899V52.634C715.565 51.8958 713.508 51.5266 712.045 51.5266C708.312 53.2083 706.446 54.3293 706.446 54.8899ZM742.991 55.4436C748.979 56.9338 751.974 59.7366 751.974 63.8518C752.343 65.6838 752.527 68.1174 752.527 71.1526V72.2805C752.527 73.9211 751.591 75.2268 749.718 76.1975C747.476 75.4319 746.354 74.6868 746.354 73.9622V72.2805C746.354 65.5403 745.418 62.1702 743.545 62.1702H740.182C738.965 62.1702 737.283 66.2854 735.137 74.5159L734.029 75.0696H731.773C730.283 74.468 729.538 73.1624 729.538 71.1526V68.8967C729.538 65.5334 729.162 62.3547 728.41 59.3606C729.176 57.1184 729.921 55.9973 730.646 55.9973H732.901L735.137 57.679C737.953 56.1887 740.571 55.4436 742.991 55.4436Z" fill="#222222"/>
<path d="M888.074 40.3088H891.438C893.447 40.3088 894.76 41.054 895.375 42.5442V45.9075C895.375 46.509 894.254 47.2542 892.012 48.1428C888.088 47.4045 885.654 47.0354 884.711 47.0354C882.756 47.4045 880.89 47.5891 879.112 47.5891V57.1252C879.112 60.5295 879.673 66.7024 880.794 75.6438C880.069 77.3391 879.317 78.2688 878.538 78.4329H876.303C874.156 78.4329 872.844 71.1458 872.365 56.5715V51.5266C872.365 50.5012 871.996 49.3733 871.258 48.1428C868.783 48.8948 864.853 49.2708 859.466 49.2708C857.976 47.9583 857.23 46.6526 857.23 45.3538C858.133 43.1116 859.254 41.9905 860.594 41.9905C875.564 40.8694 884.725 40.3088 888.074 40.3088ZM901.609 40.8625C904.234 40.8625 905.547 45.7229 905.547 55.4436H906.101C908.056 53.9534 910.113 53.2083 912.273 53.2083H914.509C918.146 53.2083 920.579 55.259 921.81 59.3606C922.931 61.2883 923.491 63.1614 923.491 64.9797V69.4709C923.491 71.4807 922.739 72.7864 921.235 73.3879H919.554C917.831 73.3879 916.71 69.8401 916.19 62.7444C914.741 60.8713 913.244 59.9348 911.699 59.9348C909.416 59.9348 907.734 63.4827 906.654 70.5784L904.419 72.2805H902.737C899.743 72.2805 898.246 62.929 898.246 44.2258C898.246 43.1047 899.367 41.9836 901.609 40.8625ZM946.583 53.2083H947.137C948.504 53.2083 951.122 58.4377 954.991 68.8967V69.4709C954.991 69.9768 954.055 70.9133 952.182 72.2805C949.57 72.2805 948.265 70.968 948.265 68.343H947.69C945.517 71.7063 941.969 73.3879 937.047 73.3879C932.18 73.3879 928.625 69.0881 926.383 60.4885V57.1252C927.107 55.4163 927.853 54.4797 928.618 54.3157H930.3C931.53 54.3157 932.658 57.3098 933.684 63.2981C935.27 65.9094 936.76 67.2151 938.154 67.2151C941.531 67.2151 943.22 63.4758 943.22 55.9973C943.22 54.1379 944.341 53.2083 946.583 53.2083Z" fill="#222222"/>
<path d="M1086.71 37.4993L1087.84 39.1809V40.3088C1087.84 42.9202 1086.53 44.2258 1083.9 44.2258H1076.07C1068.96 45.3469 1065.4 46.468 1065.4 47.5891C1065.77 53.0579 1066.33 56.052 1067.08 56.5715C1068.97 55.8196 1073.46 55.259 1080.54 54.8899C1082.78 54.8899 1083.9 56.011 1083.9 58.2532C1083.9 60.8645 1079.98 62.1702 1072.13 62.1702C1069.14 62.1702 1067.64 62.5461 1067.64 63.2981L1069.89 80.6887C1069.89 81.386 1068.96 82.5071 1067.08 84.052C1063.72 84.052 1062.04 79.1917 1062.04 69.4709C1061.66 69.4709 1060.72 62.553 1059.23 48.717V44.2258C1059.23 42.1887 1060.17 40.6917 1062.04 39.7346H1064.28C1073.18 38.2444 1080.65 37.4993 1086.71 37.4993ZM1094.09 50.9524C1096.42 50.9524 1098.29 54.1311 1099.71 60.4885C1103.87 55.635 1107.98 53.2083 1112.04 53.2083C1114.66 53.4133 1115.98 54.5344 1115.98 56.5715C1115.98 57.9934 1113.17 59.675 1107.57 61.6165L1102.5 68.8967V75.0696C1102.5 75.6165 1101.94 76.177 1100.82 76.7512H1098.58C1096.99 76.7512 1095.49 71.8909 1094.09 62.1702C1093.48 62.1702 1092.36 59.3674 1090.73 53.762C1090.73 51.8889 1091.85 50.9524 1094.09 50.9524ZM1122.78 39.7346H1131.77C1134.39 39.7346 1135.7 40.8557 1135.7 43.0979C1134.98 44.8069 1134.23 45.7434 1133.45 45.9075H1121.1C1120.53 45.9075 1119.78 45.1624 1118.87 43.6721C1118.87 41.0471 1120.17 39.7346 1122.78 39.7346ZM1129.53 52.634C1131.77 52.634 1132.89 58.2463 1132.89 69.4709C1132.13 71.7131 1131.38 72.8342 1130.64 72.8342H1128.4C1126.53 72.8342 1125.59 67.0374 1125.59 55.4436C1126.11 53.5706 1127.43 52.634 1129.53 52.634Z" fill="#222222"/>
<path d="M1257.07 35.8176C1260.28 35.8176 1263.45 37.3147 1266.58 40.3088V43.6721C1266.58 44.7932 1265.84 45.3538 1264.35 45.3538L1257.62 43.0979H1256.49C1250.14 44.0549 1246.96 46.1125 1246.96 49.2708C1246.96 54.5071 1249.58 57.1252 1254.81 57.1252C1263.41 58.8342 1267.71 61.2678 1267.71 64.426C1268.7 64.426 1269.45 65.9163 1269.97 68.8967V72.8342C1269.97 77.2502 1265.48 79.8684 1256.49 80.6887H1255.37C1249.02 79.9778 1245.85 78.1047 1245.85 75.0696C1246.48 73.2102 1247.41 72.2805 1248.64 72.2805C1254.26 73.0188 1257.07 73.5793 1257.07 73.9622C1261.17 73.3059 1263.22 72.554 1263.22 71.7063V71.1526C1263.22 67.0647 1259.3 64.6311 1251.45 63.8518C1245.71 63.8518 1241.97 59.3674 1240.23 50.3987V48.717C1240.23 42.1545 1245.84 37.8547 1257.07 35.8176ZM1285.74 43.0979C1289.87 43.0979 1292.86 45.5315 1294.72 50.3987C1299.96 56.4417 1302.57 60.5569 1302.57 62.7444V64.9797C1302.57 65.5403 1301.82 66.1008 1300.32 66.6614C1298.04 66.6614 1296.35 65.1643 1295.27 62.1702H1294.15C1294.15 64.8635 1291.53 66.9211 1286.29 68.343H1283.5C1276.39 67.1125 1272.84 63.5579 1272.84 57.679V56.5715C1272.84 51.1985 1274.71 47.6438 1278.46 45.9075C1281.96 44.0344 1284.38 43.0979 1285.74 43.0979ZM1279.56 55.9973V58.2532C1280.52 60.1125 1282.02 61.0422 1284.06 61.0422H1286.29C1287.79 60.4407 1288.55 59.135 1288.55 57.1252V55.4436C1287.99 52.0803 1286.87 50.3987 1285.18 50.3987C1281.44 51.6428 1279.56 53.509 1279.56 55.9973ZM1316.66 43.6721C1318.91 44.4377 1320.03 45.928 1320.03 48.1428V53.2083C1320.15 53.9465 1320.53 54.3157 1321.15 54.3157L1327.88 53.762C1329 53.762 1330.12 54.8831 1331.24 57.1252C1331.24 59.5178 1328.07 60.8303 1321.71 61.0627V63.2981C1321.71 66.6614 1322.64 68.343 1324.52 68.343C1327.09 67.9739 1328.77 67.5979 1329.56 67.2151C1331.27 67.9397 1332.21 68.6917 1332.37 69.4709V71.7063C1332.37 72.9778 1329.75 73.9143 1324.52 74.5159C1319.47 74.5159 1316.48 71.7131 1315.54 66.1077C1315.54 62.7444 1314.97 61.0627 1313.85 61.0627H1308.81C1306.57 61.0627 1305.45 59.9348 1305.45 57.679V57.1252C1305.45 55.512 1308.25 54.5754 1313.85 54.3157V47.5891C1313.85 45.4973 1314.79 44.1917 1316.66 43.6721Z" fill="#4394FF"/>
</svg>
