<svg width="70" height="60" viewBox="0 0 70 60" fill="none" xmlns="http://www.w3.org/2000/svg">
<path d="M24.4309 9.01779C21.5886 9.12505 18.7477 9.23829 15.912 9.47559C13.0439 9.71559 8.84393 9.70499 6.19885 11.2868C4.95942 12.0281 4.39937 14.9259 4.20845 16.1235C2.94279 24.0627 3.29029 32.1885 2.85498 40.1874C2.70832 42.8823 2.57632 45.5258 2.57632 48.2286C2.57632 50.5826 2.14039 52.4464 4.14874 54.1003C6.34368 55.9079 11.2256 55.5687 13.8619 55.9514C17.4961 56.4789 20.9801 56.8404 24.6299 57.1058C30.4768 57.5311 36.3421 57.3845 42.2052 57.3845C47.0791 57.3845 51.9192 57.0262 56.7948 57.0262C59.6034 57.0262 62.2192 56.9496 63.5621 54.1998C66.7303 47.7125 66.707 38.9999 66.707 31.9472C66.707 25.7902 66.707 19.6333 66.707 13.4763C66.707 11.6835 65.1533 10.3923 63.4825 9.81395C61.7503 9.21436 59.2256 9.59406 57.3919 9.37607C54.8984 9.07963 52.3546 8.41944 49.8483 8.32116C46.3746 8.18493 42.8765 8.30125 39.3987 8.30125C34.4291 8.30125 29.3508 7.95668 24.4309 8.65952" stroke="#FF9F46" stroke-width="5" stroke-linecap="round"/>
<path d="M18.0799 9.56423C20.6449 9.04739 23.0491 9.02441 25.6588 9.02441H27.9908C30.3685 8.42999 32.8343 8.63575 35.2999 8.63575C39.431 8.63575 43.6751 8.32134 47.7911 8.65734C52.2323 9.01989 56.7942 8.88259 61.2108 9.43467C62.3159 9.5728 63.3601 10.2262 64.3309 10.7302C65.3027 11.2348 65.3027 11.6299 65.3026 12.6655V12.6951C65.3026 14.2539 65.2852 16.0397 65.0111 17.575C64.7014 19.3094 65.2423 21.0157 65.2918 22.7464C65.3176 23.6494 65.9574 26.1256 64.698 26.1256H59.5806C53.3944 26.1256 47.3241 25.9418 41.1514 25.4563C30.3289 24.6051 19.5741 24.9596 8.73035 24.9596C8.22908 24.9596 3.57261 25.4942 3.71011 24.463C3.81132 23.7039 3.89364 23.014 3.89364 22.239C3.89364 20.6494 3.70734 19.0331 4.28231 17.5318C5.03708 15.5611 5.04778 13.7866 6.65748 12.1769C7.46458 11.3698 9.71165 10.7764 10.8248 10.6223C11.879 10.4763 12.9405 10.5359 13.9989 10.3847C15.3658 10.1895 16.7254 9.83714 18.0799 9.56423Z" fill="#FF9F46" stroke="#FF9F46" stroke-width="5" stroke-linecap="round"/>
<path d="M19.0515 9.80162C19.0811 7.44652 19.2614 5.26992 19.8288 3" stroke="#FF9F46" stroke-width="5" stroke-linecap="round"/>
<path d="M52.1977 8.84437C52.3305 6.91935 52.5864 4.9428 52.5864 3.0144" stroke="#FF9F46" stroke-width="5" stroke-linecap="round"/>
<path d="M15.0182 33.0304C15.5115 32.772 16.4206 32.1716 18.0411 32.9872C19.6616 33.8029 19.6616 35.1885 19.6616 35.1885C19.6616 36.2044 18.3866 36.8739 18.3866 36.8739C16.8903 37.9597 15.005 37.3011 14.4999 36.2909C14.1717 35.6343 14.281 33.4166 15.0182 33.0304Z" fill="#FF9F46" stroke="#FF9F46" stroke-width="5" stroke-linecap="round"/>
<path d="M32.5693 33.0304C33.0627 32.772 33.9718 32.1716 35.5923 32.9872C37.2127 33.8029 37.2127 35.1885 37.2127 35.1885C37.2127 36.2044 35.9377 36.8739 35.9377 36.8739C34.4415 37.9597 32.5562 37.3011 32.0511 36.2909C31.7228 35.6343 31.8321 33.4166 32.5693 33.0304Z" fill="#FF9F46" stroke="#FF9F46" stroke-width="5" stroke-linecap="round"/>
<path d="M50.1205 33.0304C50.6138 32.772 51.5229 32.1716 53.1434 32.9872C54.7639 33.8029 54.7639 35.1885 54.7639 35.1885C54.7639 36.2044 53.4889 36.8739 53.4889 36.8739C51.9926 37.9597 50.1073 37.3011 49.6022 36.2909C49.274 35.6343 49.3833 33.4166 50.1205 33.0304Z" fill="#FF9F46" stroke="#FF9F46" stroke-width="5" stroke-linecap="round"/>
</svg>
