<svg width="1402" height="798" viewBox="0 0 1402 798" fill="none" xmlns="http://www.w3.org/2000/svg">
<rect x="9" y="240" width="198" height="139" fill="#D9D9D9" fill-opacity="0.1"/>
<rect x="9" y="379" width="198" height="138" fill="#D9D9D9" fill-opacity="0.1"/>
<rect x="9" y="517" width="198" height="139" fill="#D9D9D9" fill-opacity="0.1"/>
<rect x="9" y="656" width="198" height="139" fill="#D9D9D9" fill-opacity="0.1"/>
<rect x="9" y="101" width="198" height="139" fill="#D9D9D9" fill-opacity="0.1"/>
<rect x="207" y="240" width="197" height="139" fill="#D9D9D9" fill-opacity="0.1"/>
<rect x="207" y="379" width="197" height="138" fill="#D9D9D9" fill-opacity="0.1"/>
<rect x="207" y="517" width="197" height="139" fill="#D9D9D9" fill-opacity="0.1"/>
<rect x="207" y="656" width="197" height="139" fill="#D9D9D9" fill-opacity="0.1"/>
<rect x="207" y="101" width="197" height="139" fill="#D9D9D9" fill-opacity="0.1"/>
<rect x="404" y="240" width="198" height="139" fill="#D9D9D9" fill-opacity="0.1"/>
<rect x="404" y="379" width="198" height="138" fill="#D9D9D9" fill-opacity="0.1"/>
<rect x="404" y="517" width="198" height="139" fill="#D9D9D9" fill-opacity="0.1"/>
<rect x="404" y="656" width="198" height="139" fill="#D9D9D9" fill-opacity="0.1"/>
<rect x="404" y="101" width="198" height="139" fill="#D9D9D9" fill-opacity="0.1"/>
<rect x="602" y="240" width="198" height="139" fill="#D9D9D9" fill-opacity="0.1"/>
<rect x="602" y="379" width="198" height="138" fill="#D9D9D9" fill-opacity="0.1"/>
<rect x="602" y="517" width="198" height="139" fill="#D9D9D9" fill-opacity="0.1"/>
<rect x="602" y="656" width="198" height="139" fill="#D9D9D9" fill-opacity="0.1"/>
<rect x="602" y="101" width="198" height="139" fill="#D9D9D9" fill-opacity="0.1"/>
<rect x="800" y="240" width="198" height="139" fill="#D9D9D9" fill-opacity="0.1"/>
<rect x="800" y="379" width="198" height="138" fill="#D9D9D9" fill-opacity="0.1"/>
<rect x="800" y="517" width="198" height="139" fill="#D9D9D9" fill-opacity="0.1"/>
<rect x="800" y="656" width="198" height="139" fill="#D9D9D9" fill-opacity="0.1"/>
<rect x="800" y="101" width="198" height="139" fill="#D9D9D9" fill-opacity="0.1"/>
<rect x="998" y="240" width="197" height="139" fill="#D9D9D9" fill-opacity="0.1"/>
<rect x="998" y="379" width="197" height="138" fill="#D9D9D9" fill-opacity="0.1"/>
<rect x="998" y="517" width="197" height="139" fill="#D9D9D9" fill-opacity="0.1"/>
<rect x="998" y="656" width="197" height="139" fill="#D9D9D9" fill-opacity="0.1"/>
<rect x="998" y="101" width="197" height="139" fill="#D9D9D9" fill-opacity="0.1"/>
<rect x="1195" y="240" width="198" height="139" fill="#D9D9D9" fill-opacity="0.1"/>
<rect x="1195" y="379" width="198" height="138" fill="#D9D9D9" fill-opacity="0.1"/>
<rect x="1195" y="517" width="198" height="139" fill="#D9D9D9" fill-opacity="0.1"/>
<rect x="1195" y="656" width="198" height="139" fill="#D9D9D9" fill-opacity="0.1"/>
<rect x="1195" y="101" width="198" height="139" fill="#D9D9D9" fill-opacity="0.1"/>
<path d="M8.43742 273C12.51 169.5 8.43742 152.688 8.43742 51V27.5C8.43742 9.70207 7.83813 5.00004 27.5 5.00004L84.0714 5.00007H321.446H494H670.5L1126 5.00004C1161.81 2.52069 1388.5 2.50004 1395.06 8.49087C1401.62 14.4817 1398.5 58 1398.5 58C1398.5 58 1395.06 121.303 1395.06 153.165V217.512C1395.06 244.434 1397.07 275.656 1395.06 302.512C1393.91 317.879 1395.06 348.012 1395.06 348.012C1389.62 368.703 1395.06 448.512 1395.06 448.512V541.011V608.714C1395.06 711.511 1400.12 789.79 1395.06 793.145C1390 796.5 1085.08 793.145 1085.08 793.145H647.836H441.078C313.924 793.145 268.192 792.516 141.078 793.145C132.656 793.187 10.172 795.358 4 788.5C1.12232 785.303 4.00002 766.658 4.00002 762.5L3.99999 719L4.00002 613C4.00002 568.405 8.43742 523.569 8.43742 468C8.43742 412.431 6.41096 324.5 8.43742 273Z" stroke="#222222" stroke-width="5" stroke-linecap="round"/>
<path d="M9 101H1392.5" stroke="#222222" stroke-width="5" stroke-linecap="round"/>
<path d="M69.4482 47.2012H70.5762C75.4297 47.9531 77.8564 49.0742 77.8564 50.5645V52.8203C77.4873 53.9414 76.3662 54.502 74.4932 54.502C72.0596 53.75 70.3779 53.374 69.4482 53.374C66.8369 54.4678 65.5312 56.1494 65.5312 58.4189V59.5469C65.5312 60.8047 68.71 61.9258 75.0674 62.9102C78.4307 64.6191 80.1123 67.0459 80.1123 70.1904V70.7646C80.1123 75.4404 77.1182 78.2432 71.1299 79.1729H70.002C65.9004 79.1729 63.8496 77.8672 63.8496 75.2559C63.8496 73.5195 66.8369 72.207 72.8115 71.3184L73.3652 70.1904C71.998 69.2061 69.0107 68.2764 64.4033 67.4014C60.2881 65.0908 58.2305 62.0967 58.2305 58.4189C60.7051 50.9404 64.4443 47.2012 69.4482 47.2012ZM103.204 52.8203H103.758C105.125 52.8203 107.743 58.0498 111.612 68.5088V69.083C111.612 69.5889 110.676 70.5254 108.803 71.8926C106.191 71.8926 104.886 70.5801 104.886 67.9551H104.312C102.138 71.3184 98.5898 73 93.668 73C88.8008 73 85.2461 68.7002 83.0039 60.1006V56.7373C83.7285 55.0283 84.4736 54.0918 85.2393 53.9277H86.9209C88.1514 53.9277 89.2793 56.9219 90.3047 62.9102C91.8906 65.5215 93.3809 66.8271 94.7754 66.8271C98.1523 66.8271 99.8408 63.0879 99.8408 55.6094C99.8408 53.75 100.962 52.8203 103.204 52.8203ZM129.085 55.0557C135.073 56.5459 138.067 59.3486 138.067 63.4639C138.437 65.2959 138.621 67.7295 138.621 70.7646V71.8926C138.621 73.5332 137.685 74.8389 135.812 75.8096C133.569 75.0439 132.448 74.2988 132.448 73.5742V71.8926C132.448 65.1523 131.512 61.7822 129.639 61.7822H126.275C125.059 61.7822 123.377 65.8975 121.23 74.1279L120.123 74.6816H117.867C116.377 74.0801 115.632 72.7744 115.632 70.7646V68.5088C115.632 65.1455 115.256 61.9668 114.504 58.9727C115.27 56.7305 116.015 55.6094 116.739 55.6094H118.995L121.23 57.291C124.047 55.8008 126.665 55.0557 129.085 55.0557Z" fill="#FF5C50"/>
<path d="M271.839 43.8379H272.393C275.277 43.8379 277.711 47.9531 279.693 56.1836C282.688 64.1543 284.185 69.3906 284.185 71.8926C283.665 74.5039 282.913 75.8096 281.929 75.8096H280.247C278.989 75.6455 277.123 69.8486 274.648 58.4189C274.129 58.4189 273.568 56.9219 272.967 53.9277H272.393C271.791 53.9277 270.294 56.3613 267.901 61.2285L263.984 65.7197H262.856C260.874 65.7197 256.95 62.165 251.085 55.0557L249.957 54.502H249.403V59.5469L248.85 60.6543H249.403L248.85 61.7822C248.85 63.3271 249.034 64.8242 249.403 66.2734L248.85 68.5088C249.219 72.3369 249.403 75.3311 249.403 77.4912C248.173 78.2432 247.052 78.6191 246.04 78.6191C244.536 77.0605 243.784 75.1875 243.784 73V69.083C243.784 68.7002 243.6 68.5088 243.23 68.5088L243.784 67.4014V48.3291C243.784 45.7041 244.905 44.3916 247.147 44.3916C250.087 46.21 254.954 50.3252 261.749 56.7373H262.303C262.754 56.7373 264.436 53.9346 267.348 48.3291C269.904 45.335 271.401 43.8379 271.839 43.8379ZM299.976 51.6924C306.333 53.8389 309.512 57.0176 309.512 61.2285V63.4639C307.775 72.0635 304.036 76.3633 298.294 76.3633C290.815 76.3633 287.076 71.5029 287.076 61.7822C289.018 55.4248 292.196 52.2461 296.612 52.2461C296.886 52.2461 298.007 52.0615 299.976 51.6924ZM293.249 62.9102C293.249 66.082 294.37 68.3242 296.612 69.6367H299.422C300.789 69.6367 302.095 67.21 303.339 62.3564C302.327 59.3623 300.646 57.8652 298.294 57.8652C296.421 57.8652 294.739 59.5469 293.249 62.9102ZM326.964 55.0557C332.952 56.5459 335.946 59.3486 335.946 63.4639C336.315 65.2959 336.5 67.7295 336.5 70.7646V71.8926C336.5 73.5332 335.563 74.8389 333.69 75.8096C331.448 75.0439 330.327 74.2988 330.327 73.5742V71.8926C330.327 65.1523 329.391 61.7822 327.518 61.7822H324.154C322.938 61.7822 321.256 65.8975 319.109 74.1279L318.002 74.6816H315.746C314.256 74.0801 313.511 72.7744 313.511 70.7646V68.5088C313.511 65.1455 313.135 61.9668 312.383 58.9727C313.148 56.7305 313.894 55.6094 314.618 55.6094H316.874L319.109 57.291C321.926 55.8008 324.544 55.0557 326.964 55.0557Z" fill="#222222"/>
<path d="M472.074 39.9209H475.438C477.447 39.9209 478.76 40.666 479.375 42.1562V45.5195C479.375 46.1211 478.254 46.8662 476.012 47.7549C472.088 47.0166 469.654 46.6475 468.711 46.6475C466.756 47.0166 464.89 47.2012 463.112 47.2012V56.7373C463.112 60.1416 463.673 66.3145 464.794 75.2559C464.069 76.9512 463.317 77.8809 462.538 78.0449H460.303C458.156 78.0449 456.844 70.7578 456.365 56.1836V51.1387C456.365 50.1133 455.996 48.9854 455.258 47.7549C452.783 48.5068 448.853 48.8828 443.466 48.8828C441.976 47.5703 441.23 46.2646 441.23 44.9658C442.133 42.7236 443.254 41.6025 444.594 41.6025C459.564 40.4814 468.725 39.9209 472.074 39.9209ZM502.446 52.8203H503C504.367 52.8203 506.985 58.0498 510.854 68.5088V69.083C510.854 69.5889 509.918 70.5254 508.045 71.8926C505.434 71.8926 504.128 70.5801 504.128 67.9551H503.554C501.38 71.3184 497.832 73 492.91 73C488.043 73 484.488 68.7002 482.246 60.1006V56.7373C482.971 55.0283 483.716 54.0918 484.481 53.9277H486.163C487.394 53.9277 488.521 56.9219 489.547 62.9102C491.133 65.5215 492.623 66.8271 494.018 66.8271C497.395 66.8271 499.083 63.0879 499.083 55.6094C499.083 53.75 500.204 52.8203 502.446 52.8203ZM527.773 44.3916H528.881C535.99 45.3623 539.545 47.2354 539.545 50.0107C539.545 50.6943 539.921 52.1914 540.673 54.502C539.538 59.7383 535.607 62.3564 528.881 62.3564L527.773 61.7822C527.391 61.7822 527.199 61.9736 527.199 62.3564L523.282 61.7822H521.047V62.3564C521.047 66.8408 524.971 69.083 532.818 69.083C536.277 67.21 538.335 66.2734 538.991 66.2734L540.673 69.083C539.688 73.5674 537.446 75.8096 533.946 75.8096C533.003 75.8096 531.506 75.9941 529.455 76.3633C524.205 76.3633 519.529 73.376 515.428 67.4014C514.307 63.4229 513.746 60.4287 513.746 58.4189V56.7373C513.746 50.1885 518.422 46.0732 527.773 44.3916ZM521.601 54.502L525.518 55.0557H530.583L533.372 54.502V52.2461C530.72 51.5078 528.662 51.1387 527.199 51.1387C523.467 52.8203 521.601 53.9414 521.601 54.502Z" fill="#222222"/>
<path d="M648.594 40.4746H649.722C651.075 41.9238 653.317 48.2812 656.448 59.5469C656.913 59.5469 657.85 61.4131 659.258 65.1455H660.365C660.365 64.1611 661.862 61.1738 664.856 56.1836C665.718 51.6855 667.399 49.4365 669.901 49.4365H671.029C672.027 49.8193 675.021 54.6865 680.012 64.0381H681.693C686.643 48.3291 690.566 40.4746 693.465 40.4746C694.969 40.8438 695.721 41.9648 695.721 43.8379V44.3916C690.635 60.6885 686.52 70.416 683.375 73.5742H681.693C679.342 73.5742 675.411 69.2676 669.901 60.6543C666.552 68.3789 663.564 73.4307 660.939 75.8096H658.13C656.927 75.8096 653.748 69.4521 648.594 56.7373C646.352 49.4639 645.23 45.1641 645.23 43.8379C645.23 41.5957 646.352 40.4746 648.594 40.4746ZM712.619 44.3916H713.727C720.836 45.3623 724.391 47.2354 724.391 50.0107C724.391 50.6943 724.767 52.1914 725.519 54.502C724.384 59.7383 720.453 62.3564 713.727 62.3564L712.619 61.7822C712.236 61.7822 712.045 61.9736 712.045 62.3564L708.128 61.7822H705.893V62.3564C705.893 66.8408 709.816 69.083 717.664 69.083C721.123 67.21 723.181 66.2734 723.837 66.2734L725.519 69.083C724.534 73.5674 722.292 75.8096 718.792 75.8096C717.849 75.8096 716.352 75.9941 714.301 76.3633C709.051 76.3633 704.375 73.376 700.273 67.4014C699.152 63.4229 698.592 60.4287 698.592 58.4189V56.7373C698.592 50.1885 703.268 46.0732 712.619 44.3916ZM706.446 54.502L710.363 55.0557H715.429L718.218 54.502V52.2461C715.565 51.5078 713.508 51.1387 712.045 51.1387C708.312 52.8203 706.446 53.9414 706.446 54.502ZM742.991 55.0557C748.979 56.5459 751.974 59.3486 751.974 63.4639C752.343 65.2959 752.527 67.7295 752.527 70.7646V71.8926C752.527 73.5332 751.591 74.8389 749.718 75.8096C747.476 75.0439 746.354 74.2988 746.354 73.5742V71.8926C746.354 65.1523 745.418 61.7822 743.545 61.7822H740.182C738.965 61.7822 737.283 65.8975 735.137 74.1279L734.029 74.6816H731.773C730.283 74.0801 729.538 72.7744 729.538 70.7646V68.5088C729.538 65.1455 729.162 61.9668 728.41 58.9727C729.176 56.7305 729.921 55.6094 730.645 55.6094H732.901L735.137 57.291C737.953 55.8008 740.571 55.0557 742.991 55.0557Z" fill="#222222"/>
<path d="M888.074 39.9209H891.438C893.447 39.9209 894.76 40.666 895.375 42.1562V45.5195C895.375 46.1211 894.254 46.8662 892.012 47.7549C888.088 47.0166 885.654 46.6475 884.711 46.6475C882.756 47.0166 880.89 47.2012 879.112 47.2012V56.7373C879.112 60.1416 879.673 66.3145 880.794 75.2559C880.069 76.9512 879.317 77.8809 878.538 78.0449H876.303C874.156 78.0449 872.844 70.7578 872.365 56.1836V51.1387C872.365 50.1133 871.996 48.9854 871.258 47.7549C868.783 48.5068 864.853 48.8828 859.466 48.8828C857.976 47.5703 857.23 46.2646 857.23 44.9658C858.133 42.7236 859.254 41.6025 860.594 41.6025C875.564 40.4814 884.725 39.9209 888.074 39.9209ZM901.609 40.4746C904.234 40.4746 905.547 45.335 905.547 55.0557H906.101C908.056 53.5654 910.113 52.8203 912.273 52.8203H914.509C918.146 52.8203 920.579 54.8711 921.81 58.9727C922.931 60.9004 923.491 62.7734 923.491 64.5918V69.083C923.491 71.0928 922.739 72.3984 921.235 73H919.554C917.831 73 916.71 69.4521 916.19 62.3564C914.741 60.4834 913.244 59.5469 911.699 59.5469C909.416 59.5469 907.734 63.0947 906.654 70.1904L904.419 71.8926H902.737C899.743 71.8926 898.246 62.541 898.246 43.8379C898.246 42.7168 899.367 41.5957 901.609 40.4746ZM946.583 52.8203H947.137C948.504 52.8203 951.122 58.0498 954.991 68.5088V69.083C954.991 69.5889 954.055 70.5254 952.182 71.8926C949.57 71.8926 948.265 70.5801 948.265 67.9551H947.69C945.517 71.3184 941.969 73 937.047 73C932.18 73 928.625 68.7002 926.383 60.1006V56.7373C927.107 55.0283 927.853 54.0918 928.618 53.9277H930.3C931.53 53.9277 932.658 56.9219 933.684 62.9102C935.27 65.5215 936.76 66.8271 938.154 66.8271C941.531 66.8271 943.22 63.0879 943.22 55.6094C943.22 53.75 944.341 52.8203 946.583 52.8203Z" fill="#222222"/>
<path d="M1086.71 37.1113L1087.84 38.793V39.9209C1087.84 42.5322 1086.53 43.8379 1083.9 43.8379H1076.07C1068.96 44.959 1065.4 46.0801 1065.4 47.2012C1065.77 52.6699 1066.33 55.6641 1067.08 56.1836C1068.97 55.4316 1073.46 54.8711 1080.54 54.502C1082.78 54.502 1083.9 55.623 1083.9 57.8652C1083.9 60.4766 1079.98 61.7822 1072.13 61.7822C1069.14 61.7822 1067.64 62.1582 1067.64 62.9102L1069.89 80.3008C1069.89 80.998 1068.96 82.1191 1067.08 83.6641C1063.72 83.6641 1062.04 78.8037 1062.04 69.083C1061.66 69.083 1060.72 62.165 1059.23 48.3291V43.8379C1059.23 41.8008 1060.17 40.3037 1062.04 39.3467H1064.28C1073.18 37.8564 1080.65 37.1113 1086.71 37.1113ZM1094.09 50.5645C1096.42 50.5645 1098.29 53.7432 1099.71 60.1006C1103.87 55.2471 1107.98 52.8203 1112.04 52.8203C1114.66 53.0254 1115.98 54.1465 1115.98 56.1836C1115.98 57.6055 1113.17 59.2871 1107.57 61.2285L1102.5 68.5088V74.6816C1102.5 75.2285 1101.94 75.7891 1100.82 76.3633H1098.58C1096.99 76.3633 1095.49 71.5029 1094.09 61.7822C1093.48 61.7822 1092.36 58.9795 1090.73 53.374C1090.73 51.501 1091.85 50.5645 1094.09 50.5645ZM1122.78 39.3467H1131.77C1134.39 39.3467 1135.7 40.4678 1135.7 42.71C1134.98 44.4189 1134.23 45.3555 1133.45 45.5195H1121.1C1120.53 45.5195 1119.78 44.7744 1118.87 43.2842C1118.87 40.6592 1120.17 39.3467 1122.78 39.3467ZM1129.53 52.2461C1131.77 52.2461 1132.89 57.8584 1132.89 69.083C1132.13 71.3252 1131.38 72.4463 1130.64 72.4463H1128.4C1126.53 72.4463 1125.59 66.6494 1125.59 55.0557C1126.11 53.1826 1127.43 52.2461 1129.53 52.2461Z" fill="#222222"/>
<path d="M1257.07 35.4297C1260.28 35.4297 1263.45 36.9268 1266.58 39.9209V43.2842C1266.58 44.4053 1265.84 44.9658 1264.35 44.9658L1257.62 42.71H1256.49C1250.14 43.667 1246.96 45.7246 1246.96 48.8828C1246.96 54.1191 1249.58 56.7373 1254.81 56.7373C1263.41 58.4463 1267.71 60.8799 1267.71 64.0381C1268.7 64.0381 1269.45 65.5283 1269.97 68.5088V72.4463C1269.97 76.8623 1265.48 79.4805 1256.49 80.3008H1255.37C1249.02 79.5898 1245.85 77.7168 1245.85 74.6816C1246.48 72.8223 1247.41 71.8926 1248.64 71.8926C1254.26 72.6309 1257.07 73.1914 1257.07 73.5742C1261.17 72.918 1263.22 72.166 1263.22 71.3184V70.7646C1263.22 66.6768 1259.3 64.2432 1251.45 63.4639C1245.71 63.4639 1241.97 58.9795 1240.23 50.0107V48.3291C1240.23 41.7666 1245.84 37.4668 1257.07 35.4297ZM1285.74 42.71C1289.87 42.71 1292.86 45.1436 1294.72 50.0107C1299.96 56.0537 1302.57 60.1689 1302.57 62.3564V64.5918C1302.57 65.1523 1301.82 65.7129 1300.32 66.2734C1298.04 66.2734 1296.35 64.7764 1295.27 61.7822H1294.15C1294.15 64.4756 1291.53 66.5332 1286.29 67.9551H1283.5C1276.39 66.7246 1272.84 63.1699 1272.84 57.291V56.1836C1272.84 50.8105 1274.71 47.2559 1278.46 45.5195C1281.96 43.6465 1284.38 42.71 1285.74 42.71ZM1279.56 55.6094V57.8652C1280.52 59.7246 1282.02 60.6543 1284.06 60.6543H1286.29C1287.79 60.0527 1288.55 58.7471 1288.55 56.7373V55.0557C1287.99 51.6924 1286.87 50.0107 1285.18 50.0107C1281.44 51.2549 1279.56 53.1211 1279.56 55.6094ZM1316.66 43.2842C1318.91 44.0498 1320.03 45.54 1320.03 47.7549V52.8203C1320.15 53.5586 1320.53 53.9277 1321.15 53.9277L1327.88 53.374C1329 53.374 1330.12 54.4951 1331.24 56.7373C1331.24 59.1299 1328.07 60.4424 1321.71 60.6748V62.9102C1321.71 66.2734 1322.64 67.9551 1324.52 67.9551C1327.09 67.5859 1328.77 67.21 1329.56 66.8271C1331.27 67.5518 1332.21 68.3037 1332.37 69.083V71.3184C1332.37 72.5898 1329.75 73.5264 1324.52 74.1279C1319.47 74.1279 1316.48 71.3252 1315.54 65.7197C1315.54 62.3564 1314.97 60.6748 1313.85 60.6748H1308.81C1306.57 60.6748 1305.45 59.5469 1305.45 57.291V56.7373C1305.45 55.124 1308.25 54.1875 1313.85 53.9277V47.2012C1313.85 45.1094 1314.79 43.8037 1316.66 43.2842Z" fill="#4394FF"/>
</svg>
