<svg width="1402" height="798" viewBox="0 0 1402 798" fill="none" xmlns="http://www.w3.org/2000/svg">
<rect x="9" y="240" width="198" height="139" fill="#D9D9D9" fill-opacity="0.1"/>
<rect x="9" y="379" width="198" height="138" fill="#D9D9D9" fill-opacity="0.1"/>
<rect x="9" y="517" width="198" height="139" fill="#D9D9D9" fill-opacity="0.1"/>
<rect x="9" y="656" width="198" height="139" fill="#D9D9D9" fill-opacity="0.1"/>
<rect x="9" y="101" width="198" height="139" fill="#D9D9D9" fill-opacity="0.1"/>
<rect x="207" y="240" width="197" height="139" fill="#D9D9D9" fill-opacity="0.1"/>
<rect x="207" y="379" width="197" height="138" fill="#D9D9D9" fill-opacity="0.1"/>
<rect x="207" y="517" width="197" height="139" fill="#D9D9D9" fill-opacity="0.1"/>
<rect x="207" y="656" width="197" height="139" fill="#D9D9D9" fill-opacity="0.1"/>
<rect x="207" y="101" width="197" height="139" fill="#D9D9D9" fill-opacity="0.1"/>
<rect x="404" y="240" width="198" height="139" fill="#D9D9D9" fill-opacity="0.1"/>
<rect x="404" y="379" width="198" height="138" fill="#D9D9D9" fill-opacity="0.1"/>
<rect x="404" y="517" width="198" height="139" fill="#D9D9D9" fill-opacity="0.1"/>
<rect x="404" y="656" width="198" height="139" fill="#D9D9D9" fill-opacity="0.1"/>
<rect x="404" y="101" width="198" height="139" fill="#D9D9D9" fill-opacity="0.1"/>
<rect x="602" y="240" width="198" height="139" fill="#D9D9D9" fill-opacity="0.1"/>
<rect x="602" y="379" width="198" height="138" fill="#D9D9D9" fill-opacity="0.1"/>
<rect x="602" y="517" width="198" height="139" fill="#D9D9D9" fill-opacity="0.1"/>
<rect x="602" y="656" width="198" height="139" fill="#D9D9D9" fill-opacity="0.1"/>
<rect x="602" y="101" width="198" height="139" fill="#D9D9D9" fill-opacity="0.1"/>
<rect x="800" y="240" width="198" height="139" fill="#D9D9D9" fill-opacity="0.1"/>
<rect x="800" y="379" width="198" height="138" fill="#D9D9D9" fill-opacity="0.1"/>
<rect x="800" y="517" width="198" height="139" fill="#D9D9D9" fill-opacity="0.1"/>
<rect x="800" y="656" width="198" height="139" fill="#D9D9D9" fill-opacity="0.1"/>
<rect x="800" y="101" width="198" height="139" fill="#D9D9D9" fill-opacity="0.1"/>
<rect x="998" y="240" width="197" height="139" fill="#D9D9D9" fill-opacity="0.1"/>
<rect x="998" y="379" width="197" height="138" fill="#D9D9D9" fill-opacity="0.1"/>
<rect x="998" y="517" width="197" height="139" fill="#D9D9D9" fill-opacity="0.1"/>
<rect x="998" y="656" width="197" height="139" fill="#D9D9D9" fill-opacity="0.1"/>
<rect x="998" y="101" width="197" height="139" fill="#D9D9D9" fill-opacity="0.1"/>
<rect x="1195" y="240" width="198" height="139" fill="#D9D9D9" fill-opacity="0.1"/>
<rect x="1195" y="379" width="198" height="138" fill="#D9D9D9" fill-opacity="0.1"/>
<rect x="1195" y="517" width="198" height="139" fill="#D9D9D9" fill-opacity="0.1"/>
<rect x="1195" y="656" width="198" height="139" fill="#D9D9D9" fill-opacity="0.1"/>
<rect x="1195" y="101" width="198" height="139" fill="#D9D9D9" fill-opacity="0.1"/>
<path d="M8.43742 273C12.51 169.5 8.43742 152.688 8.43742 51V27.5C8.43742 9.70207 7.83813 5.00004 27.5 5.00004L84.0714 5.00007H321.446H494H670.5L1126 5.00004C1161.81 2.52069 1388.5 2.50004 1395.06 8.49087C1401.62 14.4817 1398.5 58 1398.5 58C1398.5 58 1395.06 121.303 1395.06 153.165V217.512C1395.06 244.434 1397.07 275.656 1395.06 302.512C1393.91 317.879 1395.06 348.012 1395.06 348.012C1389.62 368.703 1395.06 448.512 1395.06 448.512V541.011V608.714C1395.06 711.511 1400.12 789.79 1395.06 793.145C1390 796.5 1085.08 793.145 1085.08 793.145H647.836H441.078C313.924 793.145 268.192 792.516 141.078 793.145C132.656 793.187 10.172 795.358 4 788.5C1.12232 785.303 4.00002 766.658 4.00002 762.5L3.99999 719L4.00002 613C4.00002 568.405 8.43742 523.569 8.43742 468C8.43742 412.431 6.41096 324.5 8.43742 273Z" stroke="#222222" stroke-width="5" stroke-linecap="round"/>
<path d="M9 101H1392.5" stroke="#222222" stroke-width="5" stroke-linecap="round"/>
</svg>
