<svg width="1402" height="945" viewBox="0 0 1402 945" fill="none" xmlns="http://www.w3.org/2000/svg">
<path d="M8.71425 322.923C12.7853 200.09 8.71425 180.137 8.71425 59.4539V31.5641C8.71425 10.4416 8.11518 4.86123 27.7697 4.86123L84.32 4.86126H321.606H494.096H670.53L1125.86 4.86123C1161.66 1.91874 1388.26 1.89423 1394.82 9.00414C1401.38 16.114 1398.26 67.7615 1398.26 67.7615C1398.26 67.7615 1394.82 142.889 1394.82 180.703V257.07C1394.82 289.021 1396.83 326.075 1394.82 357.947C1393.67 376.185 1394.82 411.947 1394.82 411.947C1389.38 436.503 1394.82 531.22 1394.82 531.22V640.999V721.348C1394.82 843.348 1399.88 936.249 1394.82 940.23C1389.76 944.212 1084.95 940.23 1084.95 940.23H647.874H441.194C314.087 940.23 268.372 939.483 141.306 940.23C132.887 940.28 10.4482 942.856 4.27849 934.718C1.40188 930.923 4.27851 908.796 4.27851 903.861L4.27848 852.235L4.2785 726.435C4.2785 673.509 8.71425 620.298 8.71425 554.349C8.71425 488.399 6.68854 384.043 8.71425 322.923Z" stroke="#222222" stroke-width="5" stroke-linecap="round"/>
<path d="M9 96.4333H1392.5" stroke="#222222" stroke-width="5" stroke-linecap="round"/>
<path d="M69.4482 46.269H70.5762C75.4297 47.021 77.8564 48.1421 77.8564 49.6323V51.8882C77.4873 53.0093 76.3662 53.5698 74.4932 53.5698C72.0596 52.8179 70.3779 52.4419 69.4482 52.4419C66.8369 53.5356 65.5312 55.2173 65.5312 57.4868V58.6147C65.5312 59.8726 68.71 60.9937 75.0674 61.978C78.4307 63.687 80.1123 66.1138 80.1123 69.2583V69.8325C80.1123 74.5083 77.1182 77.311 71.1299 78.2407H70.002C65.9004 78.2407 63.8496 76.9351 63.8496 74.3237C63.8496 72.5874 66.8369 71.2749 72.8115 70.3862L73.3652 69.2583C71.998 68.2739 69.0107 67.3442 64.4033 66.4692C60.2881 64.1587 58.2305 61.1646 58.2305 57.4868C60.7051 50.0083 64.4443 46.269 69.4482 46.269ZM103.204 51.8882H103.758C105.125 51.8882 107.743 57.1177 111.612 67.5767V68.1509C111.612 68.6567 110.676 69.5933 108.803 70.9604C106.191 70.9604 104.886 69.6479 104.886 67.0229H104.312C102.138 70.3862 98.5898 72.0679 93.668 72.0679C88.8008 72.0679 85.2461 67.7681 83.0039 59.1685V55.8052C83.7285 54.0962 84.4736 53.1597 85.2393 52.9956H86.9209C88.1514 52.9956 89.2793 55.9897 90.3047 61.978C91.8906 64.5894 93.3809 65.895 94.7754 65.895C98.1523 65.895 99.8408 62.1558 99.8408 54.6772C99.8408 52.8179 100.962 51.8882 103.204 51.8882ZM129.085 54.1235C135.073 55.6138 138.067 58.4165 138.067 62.5317C138.437 64.3638 138.621 66.7974 138.621 69.8325V70.9604C138.621 72.6011 137.685 73.9067 135.812 74.8774C133.569 74.1118 132.448 73.3667 132.448 72.6421V70.9604C132.448 64.2202 131.512 60.8501 129.639 60.8501H126.275C125.059 60.8501 123.377 64.9653 121.23 73.1958L120.123 73.7495H117.867C116.377 73.1479 115.632 71.8423 115.632 69.8325V67.5767C115.632 64.2134 115.256 61.0347 114.504 58.0405C115.27 55.7983 116.015 54.6772 116.739 54.6772H118.995L121.23 56.3589C124.047 54.8687 126.665 54.1235 129.085 54.1235Z" fill="#FF5C50"/>
<path d="M271.839 42.9058H272.393C275.277 42.9058 277.711 47.021 279.693 55.2515C282.688 63.2222 284.185 68.4585 284.185 70.9604C283.665 73.5718 282.913 74.8774 281.929 74.8774H280.247C278.989 74.7134 277.123 68.9165 274.648 57.4868C274.129 57.4868 273.568 55.9897 272.967 52.9956H272.393C271.791 52.9956 270.294 55.4292 267.901 60.2964L263.984 64.7876H262.856C260.874 64.7876 256.95 61.2329 251.085 54.1235L249.957 53.5698H249.403V58.6147L248.85 59.7222H249.403L248.85 60.8501C248.85 62.395 249.034 63.8921 249.403 65.3413L248.85 67.5767C249.219 71.4048 249.403 74.3989 249.403 76.5591C248.173 77.311 247.052 77.687 246.04 77.687C244.536 76.1284 243.784 74.2554 243.784 72.0679V68.1509C243.784 67.7681 243.6 67.5767 243.23 67.5767L243.784 66.4692V47.397C243.784 44.772 244.905 43.4595 247.147 43.4595C250.087 45.2778 254.954 49.3931 261.749 55.8052H262.303C262.754 55.8052 264.436 53.0024 267.348 47.397C269.904 44.4028 271.401 42.9058 271.839 42.9058ZM299.976 50.7603C306.333 52.9067 309.512 56.0854 309.512 60.2964V62.5317C307.775 71.1313 304.036 75.4312 298.294 75.4312C290.815 75.4312 287.076 70.5708 287.076 60.8501C289.018 54.4927 292.196 51.314 296.612 51.314C296.886 51.314 298.007 51.1294 299.976 50.7603ZM293.249 61.978C293.249 65.1499 294.37 67.3921 296.612 68.7046H299.422C300.789 68.7046 302.095 66.2778 303.339 61.4243C302.327 58.4302 300.646 56.9331 298.294 56.9331C296.421 56.9331 294.739 58.6147 293.249 61.978ZM326.964 54.1235C332.952 55.6138 335.946 58.4165 335.946 62.5317C336.315 64.3638 336.5 66.7974 336.5 69.8325V70.9604C336.5 72.6011 335.563 73.9067 333.69 74.8774C331.448 74.1118 330.327 73.3667 330.327 72.6421V70.9604C330.327 64.2202 329.391 60.8501 327.518 60.8501H324.154C322.938 60.8501 321.256 64.9653 319.109 73.1958L318.002 73.7495H315.746C314.256 73.1479 313.511 71.8423 313.511 69.8325V67.5767C313.511 64.2134 313.135 61.0347 312.383 58.0405C313.148 55.7983 313.894 54.6772 314.618 54.6772H316.874L319.109 56.3589C321.926 54.8687 324.544 54.1235 326.964 54.1235Z" fill="#222222"/>
<path d="M472.074 38.9888H475.438C477.447 38.9888 478.76 39.7339 479.375 41.2241V44.5874C479.375 45.189 478.254 45.9341 476.012 46.8228C472.088 46.0845 469.654 45.7153 468.711 45.7153C466.756 46.0845 464.89 46.269 463.112 46.269V55.8052C463.112 59.2095 463.673 65.3823 464.794 74.3237C464.069 76.019 463.317 76.9487 462.538 77.1128H460.303C458.156 77.1128 456.844 69.8257 456.365 55.2515V50.2065C456.365 49.1812 455.996 48.0532 455.258 46.8228C452.783 47.5747 448.853 47.9507 443.466 47.9507C441.976 46.6382 441.23 45.3325 441.23 44.0337C442.133 41.7915 443.254 40.6704 444.594 40.6704C459.564 39.5493 468.725 38.9888 472.074 38.9888ZM502.446 51.8882H503C504.367 51.8882 506.985 57.1177 510.854 67.5767V68.1509C510.854 68.6567 509.918 69.5933 508.045 70.9604C505.434 70.9604 504.128 69.6479 504.128 67.0229H503.554C501.38 70.3862 497.832 72.0679 492.91 72.0679C488.043 72.0679 484.488 67.7681 482.246 59.1685V55.8052C482.971 54.0962 483.716 53.1597 484.481 52.9956H486.163C487.394 52.9956 488.521 55.9897 489.547 61.978C491.133 64.5894 492.623 65.895 494.018 65.895C497.395 65.895 499.083 62.1558 499.083 54.6772C499.083 52.8179 500.204 51.8882 502.446 51.8882ZM527.773 43.4595H528.881C535.99 44.4302 539.545 46.3032 539.545 49.0786C539.545 49.7622 539.921 51.2593 540.673 53.5698C539.538 58.8062 535.607 61.4243 528.881 61.4243L527.773 60.8501C527.391 60.8501 527.199 61.0415 527.199 61.4243L523.282 60.8501H521.047V61.4243C521.047 65.9087 524.971 68.1509 532.818 68.1509C536.277 66.2778 538.335 65.3413 538.991 65.3413L540.673 68.1509C539.688 72.6353 537.446 74.8774 533.946 74.8774C533.003 74.8774 531.506 75.062 529.455 75.4312C524.205 75.4312 519.529 72.4438 515.428 66.4692C514.307 62.4907 513.746 59.4966 513.746 57.4868V55.8052C513.746 49.2563 518.422 45.1411 527.773 43.4595ZM521.601 53.5698L525.518 54.1235H530.583L533.372 53.5698V51.314C530.72 50.5757 528.662 50.2065 527.199 50.2065C523.467 51.8882 521.601 53.0093 521.601 53.5698Z" fill="#222222"/>
<path d="M648.594 39.5425H649.722C651.075 40.9917 653.317 47.3491 656.448 58.6147C656.913 58.6147 657.85 60.481 659.258 64.2134H660.365C660.365 63.229 661.862 60.2417 664.856 55.2515C665.718 50.7534 667.399 48.5044 669.901 48.5044H671.029C672.027 48.8872 675.021 53.7544 680.012 63.106H681.693C686.643 47.397 690.566 39.5425 693.465 39.5425C694.969 39.9116 695.721 41.0327 695.721 42.9058V43.4595C690.635 59.7563 686.52 69.4839 683.375 72.6421H681.693C679.342 72.6421 675.411 68.3354 669.901 59.7222C666.552 67.4468 663.564 72.4985 660.939 74.8774H658.13C656.927 74.8774 653.748 68.52 648.594 55.8052C646.352 48.5317 645.23 44.2319 645.23 42.9058C645.23 40.6636 646.352 39.5425 648.594 39.5425ZM712.619 43.4595H713.727C720.836 44.4302 724.391 46.3032 724.391 49.0786C724.391 49.7622 724.767 51.2593 725.519 53.5698C724.384 58.8062 720.453 61.4243 713.727 61.4243L712.619 60.8501C712.236 60.8501 712.045 61.0415 712.045 61.4243L708.128 60.8501H705.893V61.4243C705.893 65.9087 709.816 68.1509 717.664 68.1509C721.123 66.2778 723.181 65.3413 723.837 65.3413L725.519 68.1509C724.534 72.6353 722.292 74.8774 718.792 74.8774C717.849 74.8774 716.352 75.062 714.301 75.4312C709.051 75.4312 704.375 72.4438 700.273 66.4692C699.152 62.4907 698.592 59.4966 698.592 57.4868V55.8052C698.592 49.2563 703.268 45.1411 712.619 43.4595ZM706.446 53.5698L710.363 54.1235H715.429L718.218 53.5698V51.314C715.565 50.5757 713.508 50.2065 712.045 50.2065C708.312 51.8882 706.446 53.0093 706.446 53.5698ZM742.991 54.1235C748.979 55.6138 751.974 58.4165 751.974 62.5317C752.343 64.3638 752.527 66.7974 752.527 69.8325V70.9604C752.527 72.6011 751.591 73.9067 749.718 74.8774C747.476 74.1118 746.354 73.3667 746.354 72.6421V70.9604C746.354 64.2202 745.418 60.8501 743.545 60.8501H740.182C738.965 60.8501 737.283 64.9653 735.137 73.1958L734.029 73.7495H731.773C730.283 73.1479 729.538 71.8423 729.538 69.8325V67.5767C729.538 64.2134 729.162 61.0347 728.41 58.0405C729.176 55.7983 729.921 54.6772 730.646 54.6772H732.901L735.137 56.3589C737.953 54.8687 740.571 54.1235 742.991 54.1235Z" fill="#222222"/>
<path d="M888.074 38.9888H891.438C893.447 38.9888 894.76 39.7339 895.375 41.2241V44.5874C895.375 45.189 894.254 45.9341 892.012 46.8228C888.088 46.0845 885.654 45.7153 884.711 45.7153C882.756 46.0845 880.89 46.269 879.112 46.269V55.8052C879.112 59.2095 879.673 65.3823 880.794 74.3237C880.069 76.019 879.317 76.9487 878.538 77.1128H876.303C874.156 77.1128 872.844 69.8257 872.365 55.2515V50.2065C872.365 49.1812 871.996 48.0532 871.258 46.8228C868.783 47.5747 864.853 47.9507 859.466 47.9507C857.976 46.6382 857.23 45.3325 857.23 44.0337C858.133 41.7915 859.254 40.6704 860.594 40.6704C875.564 39.5493 884.725 38.9888 888.074 38.9888ZM901.609 39.5425C904.234 39.5425 905.547 44.4028 905.547 54.1235H906.101C908.056 52.6333 910.113 51.8882 912.273 51.8882H914.509C918.146 51.8882 920.579 53.939 921.81 58.0405C922.931 59.9683 923.491 61.8413 923.491 63.6597V68.1509C923.491 70.1606 922.739 71.4663 921.235 72.0679H919.554C917.831 72.0679 916.71 68.52 916.19 61.4243C914.741 59.5513 913.244 58.6147 911.699 58.6147C909.416 58.6147 907.734 62.1626 906.654 69.2583L904.419 70.9604H902.737C899.743 70.9604 898.246 61.6089 898.246 42.9058C898.246 41.7847 899.367 40.6636 901.609 39.5425ZM946.583 51.8882H947.137C948.504 51.8882 951.122 57.1177 954.991 67.5767V68.1509C954.991 68.6567 954.055 69.5933 952.182 70.9604C949.57 70.9604 948.265 69.6479 948.265 67.0229H947.69C945.517 70.3862 941.969 72.0679 937.047 72.0679C932.18 72.0679 928.625 67.7681 926.383 59.1685V55.8052C927.107 54.0962 927.853 53.1597 928.618 52.9956H930.3C931.53 52.9956 932.658 55.9897 933.684 61.978C935.27 64.5894 936.76 65.895 938.154 65.895C941.531 65.895 943.22 62.1558 943.22 54.6772C943.22 52.8179 944.341 51.8882 946.583 51.8882Z" fill="#222222"/>
<path d="M1086.71 36.1792L1087.84 37.8608V38.9888C1087.84 41.6001 1086.53 42.9058 1083.9 42.9058H1076.07C1068.96 44.0269 1065.4 45.1479 1065.4 46.269C1065.77 51.7378 1066.33 54.7319 1067.08 55.2515C1068.97 54.4995 1073.46 53.939 1080.54 53.5698C1082.78 53.5698 1083.9 54.6909 1083.9 56.9331C1083.9 59.5444 1079.98 60.8501 1072.13 60.8501C1069.14 60.8501 1067.64 61.2261 1067.64 61.978L1069.89 79.3687C1069.89 80.0659 1068.96 81.187 1067.08 82.7319C1063.72 82.7319 1062.04 77.8716 1062.04 68.1509C1061.66 68.1509 1060.72 61.2329 1059.23 47.397V42.9058C1059.23 40.8687 1060.17 39.3716 1062.04 38.4146H1064.28C1073.18 36.9243 1080.65 36.1792 1086.71 36.1792ZM1094.09 49.6323C1096.42 49.6323 1098.29 52.811 1099.71 59.1685C1103.87 54.3149 1107.98 51.8882 1112.04 51.8882C1114.66 52.0933 1115.98 53.2144 1115.98 55.2515C1115.98 56.6733 1113.17 58.355 1107.57 60.2964L1102.5 67.5767V73.7495C1102.5 74.2964 1101.94 74.8569 1100.82 75.4312H1098.58C1096.99 75.4312 1095.49 70.5708 1094.09 60.8501C1093.48 60.8501 1092.36 58.0474 1090.73 52.4419C1090.73 50.5688 1091.85 49.6323 1094.09 49.6323ZM1122.78 38.4146H1131.77C1134.39 38.4146 1135.7 39.5356 1135.7 41.7778C1134.98 43.4868 1134.23 44.4233 1133.45 44.5874H1121.1C1120.53 44.5874 1119.78 43.8423 1118.87 42.3521C1118.87 39.7271 1120.17 38.4146 1122.78 38.4146ZM1129.53 51.314C1131.77 51.314 1132.89 56.9263 1132.89 68.1509C1132.13 70.3931 1131.38 71.5142 1130.64 71.5142H1128.4C1126.53 71.5142 1125.59 65.7173 1125.59 54.1235C1126.11 52.2505 1127.43 51.314 1129.53 51.314Z" fill="#222222"/>
<path d="M1257.07 34.4976C1260.28 34.4976 1263.45 35.9946 1266.58 38.9888V42.3521C1266.58 43.4731 1265.84 44.0337 1264.35 44.0337L1257.62 41.7778H1256.49C1250.14 42.7349 1246.96 44.7925 1246.96 47.9507C1246.96 53.187 1249.58 55.8052 1254.81 55.8052C1263.41 57.5142 1267.71 59.9478 1267.71 63.106C1268.7 63.106 1269.45 64.5962 1269.97 67.5767V71.5142C1269.97 75.9302 1265.48 78.5483 1256.49 79.3687H1255.37C1249.02 78.6577 1245.85 76.7847 1245.85 73.7495C1246.48 71.8901 1247.41 70.9604 1248.64 70.9604C1254.26 71.6987 1257.07 72.2593 1257.07 72.6421C1261.17 71.9858 1263.22 71.2339 1263.22 70.3862V69.8325C1263.22 65.7446 1259.3 63.311 1251.45 62.5317C1245.71 62.5317 1241.97 58.0474 1240.23 49.0786V47.397C1240.23 40.8345 1245.84 36.5347 1257.07 34.4976ZM1285.74 41.7778C1289.87 41.7778 1292.86 44.2114 1294.72 49.0786C1299.96 55.1216 1302.57 59.2368 1302.57 61.4243V63.6597C1302.57 64.2202 1301.82 64.7808 1300.32 65.3413C1298.04 65.3413 1296.35 63.8442 1295.27 60.8501H1294.15C1294.15 63.5435 1291.53 65.6011 1286.29 67.0229H1283.5C1276.39 65.7925 1272.84 62.2378 1272.84 56.3589V55.2515C1272.84 49.8784 1274.71 46.3237 1278.46 44.5874C1281.96 42.7144 1284.38 41.7778 1285.74 41.7778ZM1279.56 54.6772V56.9331C1280.52 58.7925 1282.02 59.7222 1284.06 59.7222H1286.29C1287.79 59.1206 1288.55 57.8149 1288.55 55.8052V54.1235C1287.99 50.7603 1286.87 49.0786 1285.18 49.0786C1281.44 50.3228 1279.56 52.189 1279.56 54.6772ZM1316.66 42.3521C1318.91 43.1177 1320.03 44.6079 1320.03 46.8228V51.8882C1320.15 52.6265 1320.53 52.9956 1321.15 52.9956L1327.88 52.4419C1329 52.4419 1330.12 53.563 1331.24 55.8052C1331.24 58.1978 1328.07 59.5103 1321.71 59.7427V61.978C1321.71 65.3413 1322.64 67.0229 1324.52 67.0229C1327.09 66.6538 1328.77 66.2778 1329.56 65.895C1331.27 66.6196 1332.21 67.3716 1332.37 68.1509V70.3862C1332.37 71.6577 1329.75 72.5942 1324.52 73.1958C1319.47 73.1958 1316.48 70.3931 1315.54 64.7876C1315.54 61.4243 1314.97 59.7427 1313.85 59.7427H1308.81C1306.57 59.7427 1305.45 58.6147 1305.45 56.3589V55.8052C1305.45 54.1919 1308.25 53.2554 1313.85 52.9956V46.269C1313.85 44.1772 1314.79 42.8716 1316.66 42.3521Z" fill="#4394FF"/>
</svg>
