<svg width="61" height="60" viewBox="0 0 61 60" fill="none" xmlns="http://www.w3.org/2000/svg">
<path d="M14.0042 7.64302C17.2112 4.12436 24.9417 2.62513 30.0135 2.57991L29.9601 8.59231C29.7275 9.98525 29.6216 26.045 29.7917 27.5309C30.0141 29.4724 42.8131 23.7472 46.4874 22.2245C50.1616 20.7018 52.0422 20.5994 55.5612 19.9719C57.4915 22.0209 57.0842 25.5433 58.2389 28.1603C58.4157 32.9246 57.7842 34.009 56.9174 38.2576C55.9969 42.7696 51.0165 47.4805 48.0624 50.9093C44.6771 54.8387 36.774 56.3283 32.1744 56.9937C27.0168 57.7399 24.0852 56.4137 19.1989 54.6438C15.76 53.3981 10.4495 48.5686 8.34601 45.5085C4.49078 39.8998 2.97558 34.7885 2.94006 27.7703C2.92581 24.9543 4.38103 18.3352 6.36775 15.8135C8.70793 12.8431 11.4789 10.4138 14.0042 7.64302Z" stroke="#222222" stroke-width="5" stroke-linecap="round" stroke-linejoin="round"/>
</svg>
