<svg width="32" height="38" viewBox="0 0 32 38" fill="none" xmlns="http://www.w3.org/2000/svg">
<path d="M2 8H30" stroke="#FF5C50" stroke-width="3" stroke-linecap="round"/>
<path d="M9 16.1667C9.07732 17.4812 9.37784 18.7655 9.66256 20.0467C9.87456 21.0007 9.94332 21.939 10.0972 22.8931C10.2363 23.7555 10.2436 24.6268 10.3145 25.4956C10.3396 25.8034 10.2004 27.1498 10.5265 26.2801" stroke="#FF5C50" stroke-width="3" stroke-linecap="round"/>
<path d="M16 16.1667C16 18.8593 16.3933 21.5945 16.7103 24.2659C16.7424 24.5365 16.7103 24.9167 16.7103 26.6667" stroke="#FF5C50" stroke-width="3" stroke-linecap="round"/>
<path d="M23.0955 16.1667C23.0955 19.2486 23.0954 23.5952 23.0954 26.6667" stroke="#FF5C50" stroke-width="3" stroke-linecap="round"/>
<path d="M3.16663 11.5C3.16663 13.4629 3.25606 15.429 3.25606 17.3949C3.25606 19.4176 3.73619 21.3855 3.90195 23.3982C4.04622 25.15 3.9715 26.9241 3.9715 28.6824C3.9715 29.5866 3.92483 30.5369 4.19011 31.4009C4.42035 32.1507 4.30853 33.0121 4.46337 33.7795C4.5159 34.0398 4.59752 34.3052 4.59752 34.5675C4.59752 34.8498 4.6175 35.1163 4.66708 35.3948C4.7262 35.7269 5.04157 35.6259 5.34278 35.6607C6.23547 35.764 7.1258 35.7609 8.01577 35.8577C10.172 36.0923 12.388 35.9661 14.5542 35.9661C16.987 35.9661 19.4199 35.9661 21.8527 35.9661C22.5258 35.9661 23.2071 35.9937 23.8798 35.9612C24.542 35.9291 25.4504 35.9613 26.0808 35.7691C26.5041 35.64 26.957 35.3605 27.0385 34.8845C27.1661 34.1396 27.4746 33.4627 27.5853 32.7165C27.6625 32.1961 28.0182 31.0566 28.1321 30.5486C28.2822 29.8793 28.2375 29.5871 28.4203 28.9227C28.4203 28.085 28.4203 27.995 28.4203 26.9446C28.4203 25.8942 28.4994 25.5632 28.5849 24.8854C28.7477 23.594 28.7439 22.3296 28.7439 21.0294C28.7439 19.4335 28.8333 17.8455 28.8333 16.2474C28.8333 14.7698 28.6544 13.3174 28.6544 11.8546" stroke="#FF5C50" stroke-width="3" stroke-linecap="round"/>
<path d="M6.76669 5.66675C6.25693 5.05462 7.85432 3.3823 7.98064 2.65418C8.00497 2.51394 8.19086 2.49346 8.31785 2.48142C9.73163 2.34728 11.2033 2.45982 12.6229 2.45982C13.9072 2.45982 15.1894 2.36527 16.467 2.27086C18.156 2.14606 19.8504 2.16828 21.5476 2.16828C22.6667 2.16828 22.8146 2.09635 23.2337 3.14008C23.4825 3.75964 23.7498 4.45256 24.1666 4.98649" stroke="#FF5C50" stroke-width="3" stroke-linecap="round"/>
</svg>
