<svg width="92" height="75" viewBox="0 0 92 75" fill="none" xmlns="http://www.w3.org/2000/svg">
<path d="M42.1314 6.26624C35.6286 9.03338 28.3502 8.9668 22.1632 12.5362C20.2418 13.6447 18.6327 15.8433 17.0012 17.3582C15.4824 18.7686 13.9674 20.0899 12.5191 21.6012C9.22808 25.0353 4.86577 29.0473 4.18438 33.9144C3.53948 38.5208 4.67009 42.8188 6.27436 47.0586C8.0256 51.6869 10.5318 56.0138 14.2062 59.4348C15.995 61.1002 17.8569 62.9683 20.1488 63.8414C22.4829 64.7306 24.6431 66.1701 27 67C29.6697 67.94 31.2216 68.3265 34 68.8271C35.4737 69.0927 39.0327 70.1739 40.5 70.5C43.1966 71.0992 47.7406 70.4283 50.5 70.5C53.9218 70.5889 55.2452 69.8526 58.5 68.8271C61.096 68.0092 61.841 67.5757 64.5 67C65.6483 66.7514 68.0719 65.0283 68.9234 64.2317C69.7527 63.4559 70.7668 63.004 71.5925 62.2299C72.3473 61.5223 73.0559 60.8066 73.8588 60.1525C75.6572 58.6871 77.3572 57.413 78.8319 55.5696C80.1873 53.8754 81.661 52.3506 82.9237 50.5713C84.1062 48.9051 84.7931 46.9607 85.5929 45.0945C86.3539 43.3189 87.2431 41.6698 87.8087 39.8066C88.4285 37.7651 88.1361 35.3762 88.1361 33.2723C88.1361 31.2868 86.9976 29.4557 86.1972 27.6948C85.1483 25.3872 83.6308 23.7294 82.0676 21.8026C81.4884 21.0887 81.3011 20.1965 80.8589 19.4105C80.4736 18.7255 79.8731 18.2225 79.474 17.5471C78.3884 15.7098 77.0468 14.1134 75.4703 12.6495C72.6384 10.0198 69.1379 8.47209 65.6499 6.94612C63.7189 6.10128 62.075 4.9942 59.934 4.73023C56.6471 4.325 53.2908 4 49.9751 4C48.7785 4 47.7265 4.45325 46.5254 4.45325C45.9417 4.45325 42.7872 5.12513 43.4911 5.35975" stroke="#FF3E30" stroke-width="7" stroke-linecap="round"/>
<path d="M30.8057 22.5391C34.4549 25.276 37.9019 28.1405 41.3987 31.0746C43.4184 32.7693 46.1127 33.0962 47.9175 35.1081C49.2012 36.5391 50.7569 37.71 52.0631 39.1315C53.1189 40.2804 54.4243 41.1907 55.3734 42.4418C56.1809 43.5062 56.9929 44.6276 58.0421 45.4669C58.8106 46.0818 59.5179 46.9942 60.0486 47.8198C60.2359 48.1112 60.5513 48.5736 60.8737 48.5736" stroke="#FF3E30" stroke-width="7" stroke-linecap="round"/>
<path d="M57.9344 20C53.3684 23.3141 50.2398 28.4492 46.934 32.9358C44.2934 36.5193 41.3877 39.8282 38.704 43.3659C37.2117 45.3329 36.1452 47.5543 34.8232 49.6198C34.4755 50.1631 33.8398 50.861 33.7436 51.5347C33.582 52.6655 33.0797 51.5426 33 50.9847" stroke="#FF3E30" stroke-width="7" stroke-linecap="round"/>
</svg>
