<svg width="84" height="81" viewBox="0 0 84 81" fill="none" xmlns="http://www.w3.org/2000/svg">
<path d="M31.2949 12.7078C35.2868 12.4298 51.6014 9.81958 55.5706 12.7079L56.7857 13.361C62.5674 15.4589 69.7199 18.9735 73.9238 27.2993C76.41 35.6614 77.0241 42.2219 74.2992 49.2404C72.9611 52.687 70.6759 57.3405 67.9358 59.7458C65.0664 62.2646 61.1046 64.5239 57.7654 66.4576C54.6781 68.2454 50.233 69.1557 46.7854 70.1151C43.7303 70.9652 40.2194 70.3783 37.1319 70.1167C30.0385 69.5157 17.7896 65.115 13.523 58.4569C10.8242 54.2453 11.4024 53.7403 9.21628 49.2404C7.47579 45.6578 9.05108 42.1207 9.21628 38.0855C9.37432 34.2254 9.40484 30.6361 11.3402 27.1263C12.9663 24.1772 15.0043 21.0379 17.711 18.9735C21.3465 16.2006 26.6153 13.0338 31.2949 12.7078Z" fill="#A45BFF"/>
<path d="M55.5706 12.7079C51.6014 9.81958 35.2868 12.4298 31.2949 12.7078C26.6153 13.0338 21.3465 16.2006 17.711 18.9734C15.0043 21.0379 12.9663 24.1772 11.3402 27.1263C9.40484 30.6361 9.37432 34.2254 9.21628 38.0855C9.05108 42.1207 7.47579 45.6578 9.21628 49.2404C11.4024 53.7403 10.8242 54.2453 13.523 58.4569C17.7896 65.115 30.0385 69.5157 37.1319 70.1167C40.2194 70.3783 43.7303 70.9652 46.7854 70.1151C50.233 69.1557 54.6781 68.2454 57.7654 66.4576C61.1046 64.5239 65.0664 62.2646 67.9358 59.7458C70.6759 57.3405 72.9611 52.687 74.2992 49.2404C77.0241 42.2219 76.41 35.6614 73.9238 27.2993C69.7199 18.9735 62.5674 15.4589 56.7857 13.361" stroke="#222222" stroke-width="5" stroke-linecap="round"/>
<path d="M32.8575 33C32.69 33.7256 32.1773 34.1363 31.7696 34.7275C31.4509 35.1896 31.0786 35.6425 30.6926 36.0505C30.5009 36.2531 30.3652 36.5683 30.1514 36.7393C29.9269 36.9189 29.9594 36.8841 30.2006 36.7393" stroke="#222222" stroke-width="5" stroke-linecap="round"/>
<path d="M47 32C48.3762 33.4991 50.3575 33.7322 51.9202 34.9302C52.1783 35.1281 52.6351 35.2864 52.8058 35.5425" stroke="#222222" stroke-width="5" stroke-linecap="round"/>
<path d="M34 46.263C37.148 45.476 40.3165 44.6304 43.6003 45.1708C45.5621 45.4936 47.4474 45.7924 49.1765 46.7804" stroke="#222222" stroke-width="5" stroke-linecap="round"/>
</svg>
