<svg width="59" height="44" viewBox="0 0 59 44" fill="none" xmlns="http://www.w3.org/2000/svg">
<path d="M46 7.53619C44.6193 7.53619 43.5 8.65548 43.5 10.0362C43.5 11.4169 44.6193 12.5362 46 12.5362V7.53619ZM34.9211 38.8758L34.5337 36.406H34.5337L34.9211 38.8758ZM5.91004 21.7941C7.00997 20.9595 7.22508 19.3913 6.3905 18.2914C5.55592 17.1914 3.9877 16.9763 2.88777 17.8109L5.91004 21.7941ZM3.58207 17.2587C2.51915 18.1399 2.37185 19.716 3.25308 20.7789C4.13431 21.8418 5.71035 21.9891 6.77327 21.1079L3.58207 17.2587ZM7.59263 20.4036C8.62402 19.4856 8.71601 17.9054 7.79808 16.874C6.88016 15.8426 5.29992 15.7506 4.26853 16.6685L7.59263 20.4036ZM4.94149 16.0496C3.94035 17.0005 3.89956 18.5829 4.85039 19.584C5.80123 20.5851 7.38361 20.6259 8.38476 19.6751L4.94149 16.0496ZM9.15077 18.9241C10.1212 17.942 10.1118 16.3591 9.12962 15.3886C8.14748 14.4182 6.5646 14.4277 5.59415 15.4098L9.15077 18.9241ZM6.22536 14.75C5.28729 15.7631 5.34812 17.3449 6.36122 18.283C7.37433 19.221 8.95607 19.1602 9.89415 18.1471L6.22536 14.75ZM10.6141 17.3428C11.5171 16.2983 11.4025 14.7196 10.358 13.8165C9.31358 12.9135 7.73482 13.0281 6.83178 14.0726L10.6141 17.3428ZM7.41014 13.3789C6.54573 14.4555 6.71777 16.029 7.79441 16.8934C8.87105 17.7579 10.4446 17.5858 11.309 16.5092L7.41014 13.3789ZM11.9766 15.6435C12.7977 14.5335 12.5635 12.968 11.4535 12.1469C10.3435 11.3258 8.77798 11.56 7.95687 12.6701L11.9766 15.6435ZM8.46782 11.9475C7.69594 13.0923 7.99825 14.646 9.14305 15.4179C10.2878 16.1898 11.8416 15.8875 12.6135 14.7427L8.46782 11.9475ZM13.215 13.8029C13.9302 12.6219 13.5526 11.0846 12.3716 10.3694C11.1906 9.65418 9.65335 10.0318 8.93812 11.2128L13.215 13.8029ZM9.36214 10.4683C8.71281 11.6868 9.1742 13.201 10.3927 13.8503C11.6112 14.4997 13.1254 14.0383 13.7747 12.8198L9.36214 10.4683ZM14.2842 11.7887C14.8562 10.5321 14.3012 9.04967 13.0446 8.47766C11.7879 7.90565 10.3055 8.46065 9.73349 9.7173L14.2842 11.7887ZM10.0452 8.96416C9.56443 10.2585 10.2239 11.6974 11.5182 12.1782C12.8125 12.659 14.2515 11.9995 14.7323 10.7052L10.0452 8.96416ZM38.1627 5.53612C38.7673 6.77742 40.2637 7.29355 41.505 6.68894C42.7463 6.08433 43.2625 4.58793 42.6578 3.34664L38.1627 5.53612ZM43.1029 4.30149C42.5282 3.04606 41.0445 2.49423 39.7891 3.06892C38.5337 3.64362 37.9819 5.12723 38.5566 6.38265L43.1029 4.30149ZM39.0074 7.34165C39.6151 8.58139 41.1129 9.09368 42.3526 8.48589C43.5923 7.8781 44.1046 6.38038 43.4968 5.14064L39.0074 7.34165ZM43.8842 5.87666C43.1975 4.67877 41.6699 4.2643 40.472 4.95091C39.2741 5.63751 38.8596 7.1652 39.5462 8.36309L43.8842 5.87666ZM40.2237 9.41989C41.0321 10.5392 42.5948 10.7913 43.7141 9.98296C44.8334 9.17459 45.0855 7.61188 44.2772 6.49255L40.2237 9.41989ZM44.6671 6.96019C43.6971 5.97766 42.1142 5.96754 41.1316 6.93759C40.1491 7.90764 40.139 9.49052 41.109 10.473L44.6671 6.96019ZM42.2705 11.434C43.4216 12.1964 44.9729 11.8814 45.7353 10.7303C46.4978 9.57916 46.1827 8.02792 45.0316 7.26547L42.2705 11.434ZM45.3743 7.43839C44.0735 6.97561 42.6438 7.65499 42.181 8.95584C41.7182 10.2567 42.3976 11.6864 43.6984 12.1492L45.3743 7.43839ZM45.2416 12.497C46.6148 12.6411 47.8448 11.6448 47.9889 10.2716C48.1331 8.89847 47.1368 7.66845 45.7636 7.52431L45.2416 12.497ZM46.21 12.5544C47.5827 12.7022 48.8154 11.7092 48.9633 10.3364C49.1111 8.96363 48.1181 7.73094 46.7453 7.58312L46.21 12.5544ZM47.7267 7.70273C46.3557 7.53917 45.1117 8.51798 44.9481 9.88897C44.7846 11.26 45.7634 12.504 47.1344 12.6675L47.7267 7.70273ZM48.1907 12.7736C49.5672 12.8812 50.7703 11.8526 50.8779 10.476C50.9855 9.09953 49.9568 7.89642 48.5803 7.78882L48.1907 12.7736ZM49.4008 7.83083C48.0205 7.79965 46.8762 8.89338 46.845 10.2737C46.8138 11.6541 47.9076 12.7984 49.2879 12.8296L49.4008 7.83083ZM50.4011 12.8208C51.7808 12.767 52.8556 11.6049 52.8018 10.2253C52.7481 8.84559 51.586 7.77076 50.2063 7.82455L50.4011 12.8208ZM51.0033 7.76788C49.63 7.9103 48.6321 9.13908 48.7745 10.5124C48.917 11.8858 50.1457 12.8836 51.5191 12.7412L51.0033 7.76788ZM52.6311 12.5891C53.9922 12.3575 54.9079 11.0663 54.6763 9.70516C54.4447 8.34401 53.1535 7.42835 51.7923 7.65997L52.6311 12.5891ZM18.5243 31.1707C19.2081 32.3702 20.7349 32.7882 21.9343 32.1044C23.1338 31.4206 23.5519 29.8938 22.8681 28.6944L18.5243 31.1707ZM23.3409 29.4874C22.6105 28.3157 21.0685 27.9581 19.8968 28.6885C18.7252 29.419 18.3675 30.961 19.098 32.1326L23.3409 29.4874ZM19.7115 33.0736C20.4893 34.2144 22.0447 34.5086 23.1855 33.7308C24.3262 32.953 24.6205 31.3977 23.8426 30.2569L19.7115 33.0736ZM24.3738 31.0014C23.5477 29.8951 21.9812 29.668 20.8749 30.4941C19.7686 31.3202 19.5414 32.8867 20.3675 33.993L24.3738 31.0014ZM21.0668 34.8868C21.9421 35.9545 23.5174 36.1104 24.5851 35.235C25.6528 34.3596 25.8087 32.7844 24.9334 31.7167L21.0668 34.8868ZM25.5208 32.3994C24.595 31.375 23.0141 31.2951 21.9897 32.2208C20.9654 33.1466 20.8854 34.7275 21.8112 35.7518L25.5208 32.3994ZM22.6043 36.5857C23.5815 37.561 25.1644 37.5595 26.1398 36.5822C27.1151 35.6049 27.1136 34.022 26.1363 33.0466L22.6043 36.5857ZM26.7782 33.6532C25.7484 32.7334 24.168 32.8226 23.2483 33.8523C22.3285 34.882 22.4176 36.4624 23.4473 37.3822L26.7782 33.6532ZM24.343 38.1359C25.4258 38.9925 26.9981 38.8091 27.8547 37.7263C28.7113 36.6435 28.528 35.0712 27.4451 34.2146L24.343 38.1359ZM28.1355 34.7258C26.9995 33.9411 25.4424 34.2259 24.6576 35.3619C23.8729 36.4979 24.1577 38.055 25.2937 38.8398L28.1355 34.7258ZM26.3023 39.4858C27.4907 40.1886 29.0239 39.795 29.7267 38.6066C30.4296 37.4182 30.036 35.885 28.8475 35.1821L26.3023 39.4858ZM29.5777 35.5777C28.3391 34.9676 26.8404 35.4771 26.2303 36.7157C25.6202 37.9543 26.1298 39.453 27.3684 40.0631L29.5777 35.5777ZM28.491 40.5601C29.7757 41.0659 31.2272 40.4345 31.733 39.1497C32.2388 37.865 31.6074 36.4135 30.3226 35.9077L28.491 40.5601ZM31.0787 36.1678C29.7542 35.7777 28.3643 36.5352 27.9742 37.8597C27.5842 39.1842 28.3416 40.5741 29.6661 40.9641L31.0787 36.1678ZM30.8862 41.2624C32.2414 41.5264 33.5541 40.6418 33.8181 39.2865C34.0821 37.9313 33.1975 36.6186 31.8422 36.3546L30.8862 41.2624ZM32.6101 36.4657C31.2356 36.3357 30.0158 37.3446 29.8858 38.7192C29.7558 40.0937 30.7646 41.3135 32.1392 41.4435L32.6101 36.4657ZM33.4096 41.4998C34.7903 41.4916 35.9029 40.3656 35.8947 38.9849C35.8865 37.6043 34.7605 36.4916 33.3799 36.4999L33.4096 41.4998ZM34.1495 36.4566C32.7765 36.6029 31.7822 37.8345 31.9285 39.2075C32.0749 40.5804 33.3065 41.5747 34.6794 41.4284L34.1495 36.4566ZM35.8883 41.2448C37.2446 40.9865 38.1347 39.6775 37.8763 38.3212C37.618 36.9649 36.309 36.0748 34.9527 36.3332L35.8883 41.2448ZM35.7932 36.1457C34.4553 36.4868 33.6472 37.8479 33.9883 39.1858C34.3294 40.5237 35.6905 41.3318 37.0284 40.9907L35.7932 36.1457ZM38.139 40.6737C39.4556 40.258 40.186 38.8537 39.7704 37.537C39.3547 36.2204 37.9504 35.49 36.6337 35.9056L38.139 40.6737ZM37.4716 35.6169C36.1779 36.0994 35.5204 37.5393 36.0029 38.833C36.4855 40.1266 37.9253 40.7842 39.219 40.3016L37.4716 35.6169ZM40.2692 39.8813C41.539 39.3389 42.1286 37.8699 41.5862 36.6002C41.0438 35.3305 39.5748 34.7409 38.3051 35.2832L40.2692 39.8813ZM39.1325 34.9084C37.887 35.5043 37.3604 36.997 37.9563 38.2425C38.5522 39.4881 40.0449 40.0147 41.2904 39.4188L39.1325 34.9084ZM42.2837 38.9193C43.5052 38.2756 43.9735 36.7635 43.3297 35.5421C42.686 34.3206 41.1739 33.8523 39.9525 34.4961L42.2837 38.9193ZM40.7637 34.0497C39.5658 34.7363 39.1514 36.264 39.838 37.4619C40.5247 38.6597 42.0524 39.0742 43.2502 38.3875L40.7637 34.0497ZM44.1919 37.827C45.3669 37.1018 45.7315 35.5614 45.0063 34.3865C44.2811 33.2116 42.7408 32.8469 41.5658 33.5721L44.1919 37.827ZM42.3584 33.0663C41.2056 33.8261 40.887 35.3767 41.6469 36.5295C42.4068 37.6823 43.9573 38.0008 45.1101 37.2409L42.3584 33.0663ZM46.0061 36.6323C47.1376 35.8411 47.4135 34.2824 46.6223 33.1509C45.8311 32.0194 44.2724 31.7435 43.1408 32.5347L46.0061 36.6323ZM43.9131 31.9798C42.802 32.7994 42.5656 34.3646 43.3853 35.4757C44.2049 36.5869 45.77 36.8232 46.8812 36.0036L43.9131 31.9798ZM47.7379 35.3558C48.8295 34.5103 49.029 32.9401 48.1836 31.8485C47.3381 30.7569 45.7679 30.5573 44.6763 31.4027L47.7379 35.3558ZM45.4293 30.8061C44.3563 31.6751 44.191 33.2493 45.0599 34.3223C45.9289 35.3953 47.5032 35.5607 48.5761 34.6917L45.4293 30.8061ZM49.3966 34.0132C50.4518 33.1228 50.5854 31.5455 49.695 30.4903C48.8045 29.4351 47.2273 29.3015 46.1721 30.1919L49.3966 34.0132ZM46.9054 29.5611C45.867 30.4712 45.763 32.0507 46.6731 33.089C47.5831 34.1274 49.1626 34.2314 50.201 33.3213L46.9054 29.5611ZM50.9918 32.6158C52.0141 31.6878 52.0906 30.1067 51.1626 29.0844C50.2346 28.062 48.6535 27.9856 47.6312 28.9136L50.9918 32.6158ZM48.3465 28.2536C47.3392 29.1979 47.2882 30.78 48.2325 31.7873C49.1768 32.7946 50.7589 32.8456 51.7662 31.9013L48.3465 28.2536ZM52.529 31.1753C53.5222 30.2162 53.5498 28.6336 52.5907 27.6403C51.6316 26.6471 50.049 26.6194 49.0558 27.5786L52.529 31.1753ZM49.7561 26.8931C48.7757 27.8652 48.7689 29.4481 49.741 30.4286C50.7132 31.409 52.2961 31.4158 53.2765 30.4436L49.7561 26.8931ZM54.0146 29.7032C54.984 28.7201 54.9729 27.1372 53.9898 26.1678C53.0066 25.1984 51.4237 25.2095 50.4543 26.1926L54.0146 29.7032ZM51.1498 25.481C50.1884 26.472 50.2123 28.0547 51.2032 29.0162C52.1942 29.9776 53.7769 29.9537 54.7383 28.9628L51.1498 25.481ZM55.4454 28.232C56.4059 27.2401 56.3805 25.6574 55.3886 24.6969C54.3967 23.7364 52.814 23.7618 51.8535 24.7537L55.4454 28.232ZM5.45219 22.1315C5.59851 22.0271 5.75151 21.9144 5.91004 21.7941L2.88777 17.8109C2.76499 17.904 2.65135 17.9876 2.54781 18.0615L5.45219 22.1315ZM6.77327 21.1079C7.03603 20.8901 7.31029 20.6548 7.59263 20.4036L4.26853 16.6685C4.02952 16.8812 3.79955 17.0784 3.58207 17.2587L6.77327 21.1079ZM8.38476 19.6751C8.63659 19.4359 8.89267 19.1853 9.15077 18.9241L5.59415 15.4098C5.37435 15.6322 5.15611 15.8458 4.94149 16.0496L8.38476 19.6751ZM9.89415 18.1471C10.1344 17.8876 10.375 17.6193 10.6141 17.3428L6.83178 14.0726C6.63141 14.3043 6.42877 14.5304 6.22536 14.75L9.89415 18.1471ZM11.309 16.5092C11.5348 16.228 11.7579 15.9393 11.9766 15.6435L7.95687 12.6701C7.77937 12.91 7.59671 13.1465 7.41014 13.3789L11.309 16.5092ZM12.6135 14.7427C12.8201 14.4363 13.0212 14.1228 13.215 13.8029L8.93812 11.2128C8.78879 11.4594 8.63168 11.7045 8.46782 11.9475L12.6135 14.7427ZM13.7747 12.8198C13.9542 12.483 14.1247 12.1391 14.2842 11.7887L9.73349 9.7173C9.61976 9.96715 9.49572 10.2177 9.36214 10.4683L13.7747 12.8198ZM14.7323 10.7052C14.8013 10.5194 14.8669 10.3318 14.9288 10.1425L10.1764 8.58854C10.1357 8.7131 10.0919 8.83833 10.0452 8.96416L14.7323 10.7052ZM37.989 5.19629C38.0409 5.29143 38.0981 5.40342 38.1627 5.53612L42.6578 3.34664C42.5712 3.16869 42.4783 2.98513 42.3794 2.80371L37.989 5.19629ZM38.5566 6.38265C38.6906 6.67546 38.842 7.00448 39.0074 7.34165L43.4968 5.14064C43.3633 4.86826 43.2358 4.59196 43.1029 4.30149L38.5566 6.38265ZM39.5462 8.36309C39.7449 8.70966 39.969 9.06724 40.2237 9.41989L44.2772 6.49255C44.1452 6.30977 44.0148 6.10461 43.8842 5.87666L39.5462 8.36309ZM41.109 10.473C41.4476 10.816 41.8325 11.1438 42.2705 11.434L45.0316 7.26547C44.9157 7.1887 44.7943 7.08905 44.6671 6.96019L41.109 10.473ZM43.6984 12.1492C44.1855 12.3224 44.7005 12.4402 45.2416 12.497L45.7636 7.52431C45.6113 7.50833 45.4839 7.47739 45.3743 7.43839L43.6984 12.1492ZM46 12.5362C45.9903 12.5362 46.0016 12.5359 46.0422 12.5387C46.0817 12.5415 46.1358 12.5464 46.21 12.5544L46.7453 7.58312C46.5364 7.56063 46.2696 7.53619 46 7.53619V12.5362ZM47.1344 12.6675C47.4435 12.7044 47.7986 12.743 48.1907 12.7736L48.5803 7.78882C48.2786 7.76524 47.9956 7.73482 47.7267 7.70273L47.1344 12.6675ZM49.2879 12.8296C49.6396 12.8375 50.0112 12.836 50.4011 12.8208L50.2063 7.82455C49.927 7.83544 49.6583 7.83664 49.4008 7.83083L49.2879 12.8296ZM51.5191 12.7412C51.8784 12.704 52.2493 12.6541 52.6311 12.5891L51.7923 7.65997C51.5215 7.70605 51.2584 7.74143 51.0033 7.76788L51.5191 12.7412ZM18.2522 30.6824C18.3415 30.8463 18.4322 31.009 18.5243 31.1707L22.8681 28.6944C22.7918 28.5606 22.7167 28.4258 22.6426 28.2898L18.2522 30.6824ZM19.098 32.1326C19.2968 32.4515 19.5013 32.7653 19.7115 33.0736L23.8426 30.2569C23.6715 30.0059 23.5042 29.7493 23.3409 29.4874L19.098 32.1326ZM20.3675 33.993C20.5948 34.2973 20.8279 34.5954 21.0668 34.8868L24.9334 31.7167C24.7434 31.485 24.5568 31.2465 24.3738 31.0014L20.3675 33.993ZM21.8112 35.7518C22.0694 36.0376 22.3338 36.3158 22.6043 36.5857L26.1363 33.0466C25.9283 32.839 25.723 32.6232 25.5208 32.3994L21.8112 35.7518ZM23.4473 37.3822C23.7394 37.6431 24.038 37.8947 24.343 38.1359L27.4451 34.2146C27.2207 34.037 26.9983 33.8498 26.7782 33.6532L23.4473 37.3822ZM25.2937 38.8398C25.6231 39.0673 25.9593 39.283 26.3023 39.4858L28.8475 35.1821C28.6089 35.041 28.3715 34.8888 28.1355 34.7258L25.2937 38.8398ZM27.3684 40.0631C27.7357 40.244 28.11 40.4101 28.491 40.5601L30.3226 35.9077C30.0738 35.8097 29.8254 35.6997 29.5777 35.5777L27.3684 40.0631ZM29.6661 40.9641C30.0669 41.0822 30.4737 41.182 30.8862 41.2624L31.8422 36.3546C31.5873 36.3049 31.3327 36.2426 31.0787 36.1678L29.6661 40.9641ZM32.1392 41.4435C32.559 41.4832 32.9827 41.5023 33.4096 41.4998L33.3799 36.4999C33.1219 36.5014 32.8653 36.4899 32.6101 36.4657L32.1392 41.4435ZM34.6794 41.4284C34.8888 41.4061 35.0985 41.3785 35.3084 41.3456L34.5337 36.406C34.405 36.4261 34.2769 36.443 34.1495 36.4566L34.6794 41.4284ZM35.3084 41.3456C35.5026 41.3151 35.6959 41.2815 35.8883 41.2448L34.9527 36.3332C34.8127 36.3598 34.673 36.3841 34.5337 36.406L35.3084 41.3456ZM37.0284 40.9907C37.4023 40.8954 37.7726 40.7893 38.139 40.6737L36.6337 35.9056C36.3529 35.9943 36.0726 36.0744 35.7932 36.1457L37.0284 40.9907ZM39.219 40.3016C39.5729 40.1696 39.9231 40.0292 40.2692 39.8813L38.3051 35.2832C38.0274 35.4019 37.7495 35.5133 37.4716 35.6169L39.219 40.3016ZM41.2904 39.4188C41.6255 39.2585 41.9567 39.0917 42.2837 38.9193L39.9525 34.4961C39.6801 34.6396 39.4067 34.7772 39.1325 34.9084L41.2904 39.4188ZM43.2502 38.3875C43.5683 38.2052 43.8822 38.0181 44.1919 37.827L41.5658 33.5721C41.3002 33.7361 41.0327 33.8954 40.7637 34.0497L43.2502 38.3875ZM45.1101 37.2409C45.4132 37.0411 45.7119 36.838 46.0061 36.6323L43.1408 32.5347C42.8825 32.7153 42.6216 32.8927 42.3584 33.0663L45.1101 37.2409ZM46.8812 36.0036C47.1716 35.7893 47.4573 35.5731 47.7379 35.3558L44.6763 31.4027C44.4252 31.5972 44.1707 31.7898 43.9131 31.9798L46.8812 36.0036ZM48.5761 34.6917C48.8553 34.4656 49.1289 34.2392 49.3966 34.0132L46.1721 30.1919C45.9288 30.3972 45.6811 30.6022 45.4293 30.8061L48.5761 34.6917ZM50.201 33.3213C50.4715 33.0843 50.7352 32.8487 50.9918 32.6158L47.6312 28.9136C47.3949 29.1281 47.1528 29.3442 46.9054 29.5611L50.201 33.3213ZM51.7662 31.9013C52.0294 31.6545 52.2838 31.4121 52.529 31.1753L49.0558 27.5786C48.827 27.7995 48.5904 28.0249 48.3465 28.2536L51.7662 31.9013ZM53.2765 30.4436C53.5357 30.1866 53.782 29.9391 54.0146 29.7032L50.4543 26.1926C50.2329 26.4172 50 26.6512 49.7561 26.8931L53.2765 30.4436ZM54.7383 28.9628C54.9957 28.6975 55.2417 28.4424 55.4454 28.232L51.8535 24.7537C51.6345 24.9798 51.4092 25.2137 51.1498 25.481L54.7383 28.9628ZM46 5.03619C43.2386 5.03619 41 7.27477 41 10.0362C41 12.7976 43.2386 15.0362 46 15.0362V5.03619ZM34.9211 38.8758L34.1463 33.9361H34.1463L34.9211 38.8758ZM7.42117 23.7857C9.62103 22.1165 10.0513 18.9801 8.3821 16.7802C6.71295 14.5804 3.57649 14.1501 1.37663 15.8193L7.42117 23.7857ZM1.98647 15.3341C-0.139376 17.0966 -0.433965 20.2487 1.32849 22.3745C3.09094 24.5004 6.24303 24.795 8.36888 23.0325L1.98647 15.3341ZM9.25468 22.2711C11.3175 20.4352 11.5014 17.2747 9.66559 15.2119C7.82974 13.1491 4.66927 12.9652 2.60648 14.801L9.25468 22.2711ZM3.21986 14.2369C1.21757 16.1386 1.136 19.3034 3.03767 21.3056C4.93933 23.3079 8.10411 23.3895 10.1064 21.4878L3.21986 14.2369ZM10.9291 20.6813C12.87 18.717 12.851 15.5512 10.8868 13.6103C8.92251 11.6694 5.75674 11.6884 3.81584 13.6526L10.9291 20.6813ZM4.39097 13.0515C2.51483 15.0777 2.63648 18.2412 4.66269 20.1173C6.6889 21.9935 9.85239 21.8718 11.7285 19.8456L4.39097 13.0515ZM12.5052 18.9779C14.3113 16.889 14.082 13.7315 11.9931 11.9254C9.90424 10.1193 6.74673 10.3486 4.94063 12.4375L12.5052 18.9779ZM5.46071 11.8137C3.73188 13.967 4.07597 17.114 6.22926 18.8429C8.38254 20.5717 11.5296 20.2276 13.2584 18.0743L5.46071 11.8137ZM13.9865 17.1303C15.6287 14.9102 15.1603 11.7793 12.9402 10.1371C10.7202 8.49484 7.58922 8.96326 5.947 11.1833L13.9865 17.1303ZM6.39498 10.5499C4.85122 12.8395 5.45584 15.947 7.74544 17.4908C10.035 19.0345 13.1426 18.4299 14.6863 16.1403L6.39498 10.5499ZM15.3534 15.0979C16.7839 12.7359 16.0287 9.66144 13.6666 8.23098C11.3046 6.80052 8.23016 7.55571 6.79969 9.91775L15.3534 15.0979ZM7.15586 9.2926C5.85719 11.7296 6.77998 14.7579 9.21697 16.0566C11.654 17.3553 14.6823 16.4325 15.981 13.9955L7.15586 9.2926ZM16.5596 12.8245C17.7036 10.3112 16.5936 7.34632 14.0803 6.2023C11.567 5.05827 8.60215 6.16829 7.45813 8.68158L16.5596 12.8245ZM7.70165 8.09365C6.74011 10.6823 8.05912 13.5602 10.6477 14.5218C13.2363 15.4833 16.1143 14.1643 17.0758 11.5757L7.70165 8.09365ZM35.9152 6.63087C37.1244 9.11346 40.1172 10.1457 42.5998 8.93651C45.0824 7.72729 46.1146 4.73448 44.9054 2.25189L35.9152 6.63087ZM45.376 3.2609C44.2266 0.750058 41.2594 -0.353617 38.7485 0.795779C36.2377 1.94517 35.134 4.91239 36.2834 7.42323L45.376 3.2609ZM36.7626 8.44215C37.9782 10.9216 40.9736 11.9462 43.4531 10.7306C45.9326 9.51506 46.9572 6.51962 45.7416 4.04014L36.7626 8.44215ZM46.0531 4.63345C44.6799 2.23768 41.6245 1.40872 39.2288 2.78194C36.833 4.15515 36.004 7.21052 37.3772 9.6063L46.0531 4.63345ZM38.197 10.8836C39.8137 13.1222 42.9391 13.6264 45.1778 12.0097C47.4165 10.393 47.9206 7.26755 46.3039 5.02888L38.197 10.8836ZM46.4461 5.20376C44.506 3.2387 41.3403 3.21846 39.3752 5.15856C37.4102 7.09866 37.3899 10.2644 39.33 12.2295L46.4461 5.20376ZM40.89 13.5182C43.1922 15.0431 46.2947 14.413 47.8196 12.1108C49.3445 9.8086 48.7144 6.70612 46.4122 5.18122L40.89 13.5182ZM46.2123 5.083C43.6106 4.15744 40.7512 5.51621 39.8256 8.1179C38.9 10.7196 40.2588 13.579 42.8605 14.5046L46.2123 5.083ZM44.9806 14.9833C47.727 15.2716 50.187 13.279 50.4753 10.5326C50.7636 7.78628 48.7709 5.32625 46.0246 5.03797L44.9806 14.9833ZM45.9423 15.04C48.6879 15.3357 51.1532 13.3496 51.4489 10.6041C51.7445 7.85851 49.7585 5.39313 47.0129 5.09749L45.9423 15.04ZM48.0228 5.22034C45.2809 4.89321 42.7929 6.85083 42.4657 9.59281C42.1386 12.3348 44.0962 14.8228 46.8382 15.1499L48.0228 5.22034ZM47.9958 15.266C50.7489 15.4812 53.1551 13.4239 53.3703 10.6709C53.5855 7.91784 51.5282 5.51162 48.7751 5.29642L47.9958 15.266ZM49.4573 5.33147C46.6965 5.26911 44.408 7.45657 44.3456 10.2173C44.2833 12.978 46.4707 15.2666 49.2315 15.3289L49.4573 5.33147ZM50.4985 15.3189C53.2579 15.2113 55.4075 12.8872 55.2999 10.1279C55.1924 7.36852 52.8683 5.21886 50.1089 5.32645L50.4985 15.3189ZM50.7454 5.28122C47.9987 5.56606 46.003 8.02361 46.2879 10.7703C46.5727 13.517 49.0303 15.5127 51.777 15.2279L50.7454 5.28122ZM53.0505 15.0537C55.7728 14.5904 57.6041 12.0081 57.1409 9.28578C56.6776 6.56348 54.0952 4.73216 51.3729 5.1954L53.0505 15.0537ZM16.3525 32.4088C17.7201 34.8078 20.7735 35.6439 23.1725 34.2762C25.5715 32.9086 26.4075 29.8552 25.0399 27.4562L16.3525 32.4088ZM25.4624 28.1648C24.0015 25.8215 20.9175 25.1061 18.5742 26.5671C16.2309 28.028 15.5156 31.1119 16.9765 33.4553L25.4624 28.1648ZM17.646 34.482C19.2016 36.7635 22.3123 37.352 24.5938 35.7964C26.8754 34.2408 27.4638 31.1301 25.9082 28.8486L17.646 34.482ZM26.377 29.5056C24.7248 27.293 21.5917 26.8387 19.3791 28.4909C17.1665 30.1431 16.7122 33.2762 18.3644 35.4888L26.377 29.5056ZM19.1334 36.4718C20.8842 38.6073 24.0347 38.9191 26.1701 37.1683C28.3056 35.4176 28.6174 32.2671 26.8667 30.1317L19.1334 36.4718ZM27.3755 30.7232C25.524 28.6744 22.3623 28.5145 20.3135 30.366C18.2648 32.2175 18.1049 35.3793 19.9564 37.4281L27.3755 30.7232ZM20.8382 38.3552C22.7928 40.3059 25.9586 40.3027 27.9093 38.3482C29.86 36.3937 29.8569 33.2278 27.9023 31.2771L20.8382 38.3552ZM28.4436 31.7887C26.3841 29.9492 23.2233 30.1274 21.3838 32.1869C19.5442 34.2464 19.7224 37.4072 21.7819 39.2467L28.4436 31.7887ZM22.7919 40.0965C24.9576 41.8098 28.1021 41.4431 29.8154 39.2774C31.5286 37.1117 31.1619 33.9672 28.9962 32.2539L22.7919 40.0965ZM29.5564 32.6689C27.2843 31.0994 24.1701 31.669 22.6007 33.941C21.0312 36.2131 21.6008 39.3273 23.8729 40.8967L29.5564 32.6689ZM25.0296 41.6376C27.4065 43.0433 30.4728 42.2561 31.8786 39.8792C33.2843 37.5024 32.497 34.436 30.1202 33.0303L25.0296 41.6376ZM30.6824 33.335C28.2052 32.1148 25.2078 33.1338 23.9876 35.6111C22.7675 38.0883 23.7865 41.0856 26.2637 42.3058L30.6824 33.335ZM27.5751 42.8863C30.1446 43.8979 33.0476 42.635 34.0592 40.0656C35.0708 37.4961 33.8079 34.5931 31.2385 33.5815L27.5751 42.8863ZM31.7849 33.7697C29.136 32.9895 26.3562 34.5045 25.5761 37.1534C24.7959 39.8024 26.3109 42.5822 28.9598 43.3623L31.7849 33.7697ZM30.4081 43.7162C33.1186 44.2442 35.7439 42.475 36.2719 39.7646C36.8 37.0541 35.0307 34.4288 32.3203 33.9007L30.4081 43.7162ZM32.8456 33.9768C30.0965 33.7168 27.657 35.7346 27.3969 38.4837C27.1368 41.2329 29.1546 43.6723 31.9038 43.9324L32.8456 33.9768ZM33.4245 43.9997C36.1859 43.9833 38.4111 41.7314 38.3947 38.9701C38.3782 36.2087 36.1264 33.9835 33.365 33.9999L33.4245 43.9997ZM33.8845 33.9706C31.1386 34.2633 29.1499 36.7266 29.4426 39.4724C29.7353 42.2183 32.1985 44.207 34.9444 43.9143L33.8845 33.9706ZM36.3561 43.7007C39.0687 43.184 40.8489 40.566 40.3322 37.8534C39.8154 35.1407 37.1975 33.3606 34.4849 33.8773L36.3561 43.7007ZM35.1756 33.7232C32.4998 34.4053 30.8836 37.1275 31.5658 39.8034C32.248 42.4792 34.9702 44.0954 37.646 43.4132L35.1756 33.7232ZM38.8916 43.0577C41.5249 42.2264 42.9857 39.4177 42.1544 36.7844C41.3231 34.1511 38.5144 32.6903 35.8811 33.5216L38.8916 43.0577ZM36.5979 33.2745C34.0106 34.2396 32.6955 37.1194 33.6606 39.7067C34.6256 42.294 37.5054 43.609 40.0927 42.644L36.5979 33.2745ZM41.2513 42.1803C43.7907 41.0956 44.97 38.1576 43.8852 35.6181C42.8005 33.0787 39.8625 31.8994 37.323 32.9842L41.2513 42.1803ZM38.0536 32.6532C35.5626 33.845 34.5093 36.8305 35.7011 39.3215C36.8929 41.8125 39.8784 42.8657 42.3694 41.674L38.0536 32.6532ZM43.4493 41.131C45.8922 39.8435 46.8289 36.8194 45.5414 34.3764C44.2538 31.9335 41.2297 30.9969 38.7868 32.2844L43.4493 41.131ZM39.5204 31.8807C37.1247 33.254 36.2958 36.3094 37.6691 38.7051C39.0424 41.1009 42.0978 41.9297 44.4935 40.5565L39.5204 31.8807ZM45.5049 39.9544C47.8548 38.504 48.5841 35.4234 47.1337 33.0735C45.6834 30.7236 42.6027 29.9943 40.2528 31.4447L45.5049 39.9544ZM40.9825 30.9789C38.6769 32.4987 38.0398 35.5997 39.5596 37.9053C41.0793 40.2109 44.1804 40.848 46.486 39.3283L40.9825 30.9789ZM47.4387 38.6811C49.7018 37.0987 50.2535 33.9813 48.6711 31.7183C47.0886 29.4552 43.9713 28.9035 41.7082 30.4859L47.4387 38.6811ZM42.4291 29.9679C40.2068 31.6072 39.7342 34.7375 41.3734 36.9598C43.0126 39.182 46.1429 39.6547 48.3652 38.0154L42.4291 29.9679ZM49.2687 37.3323C51.4519 35.6414 51.851 32.5009 50.1601 30.3177C48.4692 28.1345 45.3287 27.7353 43.1455 29.4262L49.2687 37.3323ZM43.8559 28.8633C41.71 30.6013 41.3792 33.7498 43.1172 35.8957C44.8551 38.0417 48.0036 38.3724 50.1495 36.6345L43.8559 28.8633ZM51.0089 35.9239C53.1193 34.143 53.3865 30.9885 51.6056 28.8781C49.8248 26.7676 46.6702 26.5004 44.5598 28.2813L51.0089 35.9239ZM45.2576 27.681C43.1809 29.5011 42.9729 32.6601 44.793 34.7368C46.6131 36.8135 49.772 37.0215 51.8487 35.2014L45.2576 27.681ZM52.6721 34.4669C54.7168 32.6108 54.8697 29.4487 53.0137 27.4041C51.1577 25.3594 47.9955 25.2065 45.9509 27.0625L52.6721 34.4669ZM46.6366 26.4297C44.6221 28.3184 44.52 31.4826 46.4086 33.4971C48.2973 35.5117 51.4615 35.6138 53.476 33.7251L46.6366 26.4297ZM54.2656 32.9737C56.252 31.0555 56.3073 27.8902 54.3891 25.9037C52.4709 23.9173 49.3056 23.862 47.3191 25.7802L54.2656 32.9737ZM47.9959 25.1178C46.035 27.062 46.0215 30.2278 47.9658 32.1888C49.91 34.1497 53.0758 34.1632 55.0368 32.2189L47.9959 25.1178ZM55.7948 31.4585C57.7336 29.4922 57.7114 26.3265 55.7451 24.3876C53.7788 22.4488 50.613 22.471 48.6742 24.4373L55.7948 31.4585ZM49.3556 23.7402C47.4327 25.722 47.4805 28.8875 49.4623 30.8104C51.4442 32.7333 54.6097 32.6855 56.5326 30.7036L49.3556 23.7402ZM57.2413 29.9711C59.1623 27.9874 59.1115 24.822 57.1277 22.901C55.144 20.98 51.9786 21.0308 50.0576 23.0146L57.2413 29.9711ZM6.90437 24.1665C7.07209 24.0468 7.24477 23.9195 7.42117 23.7857L1.37663 15.8193C1.27173 15.8989 1.17777 15.9679 1.09563 16.0265L6.90437 24.1665ZM8.36888 23.0325C8.65426 22.7959 8.95068 22.5416 9.25468 22.2711L2.60648 14.801C2.38913 14.9945 2.18131 15.1726 1.98647 15.3341L8.36888 23.0325ZM10.1064 21.4878C10.3768 21.231 10.6518 20.9619 10.9291 20.6813L3.81584 13.6526C3.61519 13.8557 3.41587 14.0507 3.21986 14.2369L10.1064 21.4878ZM11.7285 19.8456C11.9872 19.5662 12.2468 19.2768 12.5052 18.9779L4.94063 12.4375C4.75962 12.6468 4.57595 12.8517 4.39097 13.0515L11.7285 19.8456ZM13.2584 18.0743C13.5038 17.7687 13.7471 17.4539 13.9865 17.1303L5.947 11.1833C5.79012 11.3954 5.62769 11.6057 5.46071 11.8137L13.2584 18.0743ZM14.6863 16.1403C14.9143 15.8022 15.1374 15.4545 15.3534 15.0979L6.79969 9.91775C6.67257 10.1277 6.53746 10.3385 6.39498 10.5499L14.6863 16.1403ZM15.981 13.9955C16.1834 13.6156 16.3772 13.2251 16.5596 12.8245L7.45813 8.68158C7.36727 8.88118 7.26649 9.085 7.15586 9.2926L15.981 13.9955ZM17.0758 11.5757C17.156 11.3599 17.2326 11.1411 17.305 10.9194L7.80023 7.81158C7.77008 7.90377 7.73725 7.99781 7.70165 8.09365L17.0758 11.5757ZM35.7938 6.39259C35.8222 6.44457 35.8615 6.52078 35.9152 6.63087L44.9054 2.25189C44.8077 2.05133 44.697 1.83198 44.5746 1.60741L35.7938 6.39259ZM36.2834 7.42323C36.418 7.71721 36.5814 8.07259 36.7626 8.44215L45.7416 4.04014C45.6239 3.80015 45.5084 3.55021 45.376 3.2609L36.2834 7.42323ZM37.3772 9.6063C37.6099 10.0122 37.8809 10.446 38.197 10.8836L46.3039 5.02888C46.2332 4.93103 46.1498 4.80208 46.0531 4.63345L37.3772 9.6063ZM39.33 12.2295C39.7743 12.6794 40.2909 13.1214 40.89 13.5182L46.4122 5.18122C46.4573 5.21113 46.4677 5.22559 46.4461 5.20376L39.33 12.2295ZM42.8605 14.5046C43.5363 14.745 44.2451 14.9061 44.9806 14.9833L46.0246 5.03797C46.0667 5.04239 46.1332 5.05486 46.2123 5.083L42.8605 14.5046ZM46 15.0362C45.9548 15.0362 45.9207 15.0351 45.9001 15.0343C45.8793 15.0334 45.8672 15.0326 45.8656 15.0325C45.8639 15.0324 45.8692 15.0327 45.8829 15.034C45.8965 15.0353 45.9159 15.0372 45.9423 15.04L47.0129 5.09749C46.7808 5.0725 46.407 5.03619 46 5.03619V15.0362ZM46.8382 15.1499C47.1675 15.1892 47.5586 15.2318 47.9958 15.266L48.7751 5.29642C48.5186 5.27637 48.2717 5.25002 48.0228 5.22034L46.8382 15.1499ZM49.2315 15.3289C49.6302 15.3379 50.0533 15.3362 50.4985 15.3189L50.1089 5.32645C49.8849 5.33519 49.6677 5.33622 49.4573 5.33147L49.2315 15.3289ZM51.777 15.2279C52.1884 15.1852 52.6132 15.1281 53.0505 15.0537L51.3729 5.1954C51.1576 5.23204 50.9484 5.26017 50.7454 5.28122L51.777 15.2279ZM16.057 31.8787C16.1539 32.0565 16.2524 32.2332 16.3525 32.4088L25.0399 27.4562C24.9716 27.3365 24.9043 27.2156 24.8378 27.0935L16.057 31.8787ZM16.9765 33.4553C17.193 33.8026 17.4162 34.145 17.646 34.482L25.9082 28.8486C25.7566 28.6262 25.6079 28.3982 25.4624 28.1648L16.9765 33.4553ZM18.3644 35.4888C18.6137 35.8227 18.8701 36.1506 19.1334 36.4718L26.8667 30.1317C26.7012 29.9298 26.5379 29.7211 26.377 29.5056L18.3644 35.4888ZM19.9564 37.4281C20.2426 37.7448 20.5366 38.0542 20.8382 38.3552L27.9023 31.2771C27.7255 31.1007 27.5498 30.916 27.3755 30.7232L19.9564 37.4281ZM21.7819 39.2467C22.11 39.5398 22.4467 39.8235 22.7919 40.0965L28.9962 32.2539C28.812 32.1082 28.6277 31.9532 28.4436 31.7887L21.7819 39.2467ZM23.8729 40.8967C24.2489 41.1565 24.6345 41.4039 25.0296 41.6376L30.1202 33.0303C29.9337 32.92 29.7457 32.7996 29.5564 32.6689L23.8729 40.8967ZM26.2637 42.3058C26.6909 42.5162 27.1282 42.7104 27.5751 42.8863L31.2385 33.5815C31.0557 33.5095 30.8702 33.4275 30.6824 33.335L26.2637 42.3058ZM28.9598 43.3623C29.434 43.5019 29.917 43.6205 30.4081 43.7162L32.3203 33.9007C32.144 33.8664 31.9656 33.8229 31.7849 33.7697L28.9598 43.3623ZM31.9038 43.9324C32.4059 43.9799 32.9131 44.0028 33.4245 43.9997L33.365 33.9999C33.1915 34.0009 33.0184 33.9932 32.8456 33.9768L31.9038 43.9324ZM34.9444 43.9143C35.1948 43.8876 35.4453 43.8547 35.6958 43.8154L34.1463 33.9361C34.0582 33.95 33.9709 33.9614 33.8845 33.9706L34.9444 43.9143ZM35.6958 43.8154C35.9173 43.7806 36.1374 43.7423 36.3561 43.7007L34.4849 33.8773C34.3711 33.899 34.2583 33.9186 34.1463 33.9361L35.6958 43.8154ZM37.646 43.4132C38.0671 43.3059 38.4825 43.1868 38.8916 43.0577L35.8811 33.5216C35.643 33.5968 35.4078 33.664 35.1756 33.7232L37.646 43.4132ZM40.0927 42.644C40.4847 42.4978 40.871 42.3428 41.2513 42.1803L37.323 32.9842C37.0795 33.0882 36.8377 33.1851 36.5979 33.2745L40.0927 42.644ZM42.3694 41.674C42.7349 41.4991 43.095 41.3177 43.4493 41.131L38.7868 32.2844C38.5418 32.4136 38.2973 32.5366 38.0536 32.6532L42.3694 41.674ZM44.4935 40.5565C44.836 40.3601 45.1733 40.1591 45.5049 39.9544L40.2528 31.4447C40.0092 31.5951 39.765 31.7406 39.5204 31.8807L44.4935 40.5565ZM46.486 39.3283C46.809 39.1154 47.1267 38.8993 47.4387 38.6811L41.7082 30.4859C41.4678 30.654 41.2258 30.8185 40.9825 30.9789L46.486 39.3283ZM48.3652 38.0154C48.6721 37.7891 48.9734 37.561 49.2687 37.3323L43.1455 29.4262C42.9092 29.6092 42.6703 29.79 42.4291 29.9679L48.3652 38.0154ZM50.1495 36.6345C50.4424 36.3973 50.7289 36.1601 51.0089 35.9239L44.5598 28.2813C44.3287 28.4762 44.094 28.6705 43.8559 28.8633L50.1495 36.6345ZM51.8487 35.2014C52.1308 34.9543 52.4053 34.709 52.6721 34.4669L45.9509 27.0625C45.7247 27.2678 45.4935 27.4742 45.2576 27.681L51.8487 35.2014ZM53.476 33.7251C53.7488 33.4693 54.0122 33.2184 54.2656 32.9737L47.3191 25.7802C47.0985 25.9932 46.8709 26.2101 46.6366 26.4297L53.476 33.7251ZM55.0368 32.2189C55.3036 31.9543 55.5566 31.7 55.7948 31.4585L48.6742 24.4373C48.4583 24.6562 48.2321 24.8835 47.9959 25.1178L55.0368 32.2189ZM56.5326 30.7036C56.789 30.4394 57.0452 30.1736 57.2413 29.9711L50.0576 23.0146C49.831 23.2486 49.616 23.4718 49.3556 23.7402L56.5326 30.7036Z" fill="#222222"/>
</svg>
