<svg width="162" height="76" viewBox="0 0 162 76" fill="none" xmlns="http://www.w3.org/2000/svg">
<path d="M63.3232 6.50739C58.1117 7.39446 52.5986 7.73686 47.3136 7.73686C45.5094 7.73686 43.8262 7.92995 42.1055 8.50354C38.2404 9.79191 33.3262 10.5277 29.8121 12.4956C25.7954 14.7449 21.1001 15.6089 16.9635 17.7302C13.5217 19.4952 10.2446 20.7367 6.86447 22.859C4.51131 24.3366 2.47587 28.6199 2.47587 31.3719C2.47587 35.3782 2 39.3902 2 43.4273C2 50.1196 7.55564 58.1169 12.8393 61.7748C14.9144 63.2114 16.0858 64.7968 18.4176 66.0312C20.0719 66.907 21.8049 67.0536 23.52 67.6968C26.2436 68.7181 29.0424 69.9539 31.9007 70.5256C39.4562 72.0367 47.6963 72.4555 55.4035 72.4555C60.1857 72.4555 64.6772 73.0318 69.3888 73.3808C72.7148 73.6272 77.6904 73.552 80.8232 72.4555C90.6252 72.4555 97.8882 72.3722 107.326 70.5256C115.79 68.8697 124.141 67.1108 132.323 64.5074C137.595 62.8301 144.946 60.8841 148.823 57.0074C153.323 53.0074 158.823 49.6933 158.823 42.0074C158.823 37.9881 160.41 32.2653 158.823 28.5074C157.032 24.2652 156.569 20.8597 153.323 17.7302C151.616 16.0842 146.334 9.63461 144.323 8.50354C140.816 6.53073 136.346 3.77558 132.323 3.50739C124.363 2.97673 118.349 2 110.323 2C102.49 2 95.8232 3.5074 86.3232 3.5074C80.3927 4.79665 69.4428 6.50739 63.3232 6.50739Z" fill="#24292A" stroke="#24292A" stroke-width="4" stroke-linecap="round"/>
<path d="M36.4082 26.5645C41.1387 28.2962 43.5039 29.668 43.5039 30.6797C43.5039 31.9831 42.8841 32.9811 41.6445 33.6738C41.0612 33.6738 39.3158 32.7988 36.4082 31.0488H34.5352C28.8021 32.2155 25.9355 34.5853 25.9355 38.1582C25.9355 44.9212 28.4284 48.9089 33.4141 50.1211L36.0254 50.5039L36.4082 48.6309V46.3887H33.4141C33.0586 46.3887 32.6849 46.015 32.293 45.2676V43.3945C32.694 42.401 33.5645 41.9043 34.9043 41.9043H39.0195C39.2383 41.9043 41.7311 41.6536 46.498 41.1523C47.9928 41.5443 48.7402 42.4147 48.7402 43.7637C48.7402 45.0124 46.1243 45.8874 40.8926 46.3887L40.5234 48.6309H40.8926C42.8249 47.1361 43.946 46.3887 44.2559 46.3887C45.2493 46.6348 45.7461 47.3822 45.7461 48.6309V49C45.7461 50.3034 44.1283 52.0488 40.8926 54.2363C40.8926 55.8952 40.3913 56.8932 39.3887 57.2305H37.8984C37.6159 57.2305 36.9915 56.4831 36.0254 54.9883C29.3626 54.9883 24.8783 51.748 22.5723 45.2676C22.071 43.5358 21.8203 42.0365 21.8203 40.7695V38.5273C21.8203 31.8372 26.0586 27.9772 34.5352 26.9473L36.4082 26.5645ZM53.2793 26.5645H59.2676C61.0176 26.5645 61.8926 27.3118 61.8926 28.8066C61.4095 29.946 60.9082 30.5703 60.3887 30.6797H52.1582C51.7754 30.6797 51.2786 30.1829 50.668 29.1895C50.668 27.4395 51.5384 26.5645 53.2793 26.5645ZM57.7773 35.1641C59.2721 35.1641 60.0195 38.9056 60.0195 46.3887C59.5091 47.8835 59.0078 48.6309 58.5156 48.6309H57.0254C55.7767 48.6309 55.1523 44.7663 55.1523 37.0371C55.4987 35.7884 56.3737 35.1641 57.7773 35.1641ZM71.2988 29.1895C72.7936 29.6999 73.541 30.6934 73.541 32.1699V35.5469C73.623 36.0391 73.8737 36.2852 74.293 36.2852L78.7773 35.916C79.5247 35.916 80.2721 36.6634 81.0195 38.1582C81.0195 39.7533 78.9004 40.6283 74.6621 40.7832V42.2734C74.6621 44.5156 75.2865 45.6367 76.5352 45.6367C78.2487 45.3906 79.3698 45.14 79.8984 44.8848C81.0378 45.3678 81.6621 45.8691 81.7715 46.3887V47.8789C81.7715 48.7266 80.026 49.3509 76.5352 49.752C73.1719 49.752 71.1758 47.8835 70.5469 44.1465C70.5469 41.9043 70.1732 40.7832 69.4258 40.7832H66.0625C64.5677 40.7832 63.8203 40.0312 63.8203 38.5273V38.1582C63.8203 37.0827 65.6888 36.4583 69.4258 36.2852V31.8008C69.4258 30.4062 70.0501 29.5358 71.2988 29.1895ZM85.9414 27.3164C87.6914 27.3164 88.5664 30.5566 88.5664 37.0371H88.9355C90.2389 36.0436 91.6107 35.5469 93.0508 35.5469H94.541C96.9655 35.5469 98.5879 36.9141 99.4082 39.6484C100.156 40.9336 100.529 42.1823 100.529 43.3945V46.3887C100.529 47.7285 100.028 48.599 99.0254 49H97.9043C96.7559 49 96.0085 46.6348 95.6621 41.9043C94.696 40.6556 93.6979 40.0312 92.668 40.0312C91.1458 40.0312 90.0247 42.3965 89.3047 47.127L87.8145 48.2617H86.6934C84.6973 48.2617 83.6992 42.0273 83.6992 29.5586C83.6992 28.8112 84.4466 28.0638 85.9414 27.3164ZM115.924 35.5469H116.293C117.204 35.5469 118.95 39.0332 121.529 46.0059V46.3887C121.529 46.7259 120.905 47.3503 119.656 48.2617C117.915 48.2617 117.045 47.3867 117.045 45.6367H116.662C115.213 47.8789 112.848 49 109.566 49C106.322 49 103.952 46.1335 102.457 40.4004V38.1582C102.94 37.0189 103.437 36.3945 103.947 36.2852H105.068C105.889 36.2852 106.641 38.2812 107.324 42.2734C108.382 44.0143 109.375 44.8848 110.305 44.8848C112.556 44.8848 113.682 42.3919 113.682 37.4062C113.682 36.1667 114.429 35.5469 115.924 35.5469ZM126.451 25.4434C127.946 27.3027 128.693 30.2969 128.693 34.4258H129.062C131.314 32.9219 133.187 32.1699 134.682 32.1699C138.665 33.0085 140.656 36.0026 140.656 41.1523V41.9043C139.298 45.8874 136.928 47.8789 133.547 47.8789C128.315 47.8789 125.699 46.0104 125.699 42.2734C124.952 38.5729 124.204 33.5872 123.457 27.3164C123.74 26.0677 124.738 25.4434 126.451 25.4434ZM130.936 42.6426C132.193 43.1439 133.064 43.3945 133.547 43.3945C135.297 42.8294 136.172 41.8314 136.172 40.4004C136.172 38.8509 135.548 37.7298 134.299 37.0371C132.057 37.7845 130.936 39.653 130.936 42.6426Z" fill="white"/>
</svg>
