<svg width="162" height="76" viewBox="0 0 162 76" fill="none" xmlns="http://www.w3.org/2000/svg">
<path d="M63.3232 6.50739C58.1117 7.39446 52.5986 7.73686 47.3136 7.73686C45.5094 7.73686 43.8262 7.92995 42.1055 8.50354C38.2404 9.79191 33.3262 10.5277 29.8121 12.4956C25.7954 14.7449 21.1001 15.6089 16.9635 17.7302C13.5217 19.4952 10.2446 20.7367 6.86447 22.859C4.51131 24.3366 2.47587 28.6199 2.47587 31.3719C2.47587 35.3782 2 39.3902 2 43.4273C2 50.1196 7.55564 58.1169 12.8393 61.7748C14.9144 63.2114 16.0858 64.7968 18.4176 66.0312C20.0719 66.907 21.8049 67.0536 23.52 67.6968C26.2436 68.7181 29.0424 69.9539 31.9007 70.5256C39.4562 72.0367 47.6963 72.4555 55.4035 72.4555C60.1857 72.4555 64.6772 73.0318 69.3888 73.3808C72.7148 73.6272 77.6904 73.552 80.8232 72.4555C90.6252 72.4555 97.8882 72.3722 107.326 70.5256C115.79 68.8697 124.141 67.1108 132.323 64.5074C137.595 62.8301 144.946 60.8841 148.823 57.0074C153.323 53.0074 158.823 49.6933 158.823 42.0074C158.823 37.9881 160.41 32.2653 158.823 28.5074C157.032 24.2652 156.569 20.8597 153.323 17.7302C151.616 16.0842 146.334 9.63461 144.323 8.50354C140.816 6.53073 136.346 3.77558 132.323 3.50739C124.363 2.97673 118.349 2 110.323 2C102.49 2 95.8232 3.5074 86.3232 3.5074C80.3927 4.79665 69.4428 6.50739 63.3232 6.50739Z" fill="#FF3E30"/>
<path d="M63.3232 6.50739V4.50739H63.1542L62.9876 4.53574L63.3232 6.50739ZM29.8121 12.4956L28.8349 10.7506L29.8121 12.4956ZM16.9635 17.7302L17.8762 19.5098L16.9635 17.7302ZM6.86447 22.859L5.80094 21.1652H5.80094L6.86447 22.859ZM12.8393 61.7748L11.7009 63.4192L12.8393 61.7748ZM18.4176 66.0312L19.3534 64.2637L18.4176 66.0312ZM23.52 67.6968L22.8178 69.5694L23.52 67.6968ZM31.9007 70.5256L31.5084 72.4867L31.9007 70.5256ZM69.3888 73.3808L69.2411 75.3754L69.3888 73.3808ZM80.8232 72.4555V70.4555H80.4834L80.1625 70.5678L80.8232 72.4555ZM107.326 70.5256L106.942 68.5628L107.326 70.5256ZM132.323 64.5074L131.717 62.6016L132.323 64.5074ZM148.823 57.0074L147.495 55.5126L147.451 55.5516L147.409 55.5932L148.823 57.0074ZM158.823 28.5074L156.981 29.2853L158.823 28.5074ZM153.323 17.7302L154.712 16.2905L153.323 17.7302ZM144.323 8.50354L143.343 10.2467L144.323 8.50354ZM132.323 3.50739L132.19 5.50296L132.323 3.50739ZM86.3232 3.5074V1.5074H86.1084L85.8984 1.55305L86.3232 3.5074ZM62.9876 4.53574C57.915 5.39918 52.5186 5.73686 47.3136 5.73686V9.73686C52.6785 9.73686 58.3083 9.38975 63.6588 8.47903L62.9876 4.53574ZM47.3136 5.73686C45.3594 5.73686 43.4514 5.94672 41.473 6.60617L42.7379 10.4009C44.2011 9.91317 45.6594 9.73686 47.3136 9.73686V5.73686ZM41.473 6.60617C39.6046 7.22899 37.5667 7.69268 35.2973 8.3162C33.123 8.9136 30.8167 9.64073 28.8349 10.7506L30.7893 14.2406C32.3216 13.3825 34.2295 12.7578 36.357 12.1733C38.3895 11.6148 40.7413 11.0665 42.7379 10.4009L41.473 6.60617ZM28.8349 10.7506C27.0011 11.7775 24.982 12.505 22.7761 13.2718C20.6222 14.0205 18.2689 14.8131 16.0509 15.9505L17.8762 19.5098C19.7948 18.5259 21.8574 17.8259 24.0895 17.05C26.2695 16.2922 28.6064 15.463 30.7893 14.2406L28.8349 10.7506ZM16.0509 15.9505C12.8752 17.5791 9.25664 18.9954 5.80094 21.1652L7.92801 24.5528C11.2325 22.4779 14.1682 21.4113 17.8762 19.5098L16.0509 15.9505ZM5.80094 21.1652C4.18371 22.1807 2.88018 23.9876 2.00034 25.7402C1.11193 27.5098 0.475872 29.5822 0.475872 31.3719H4.47587C4.47587 30.4095 4.85753 28.9643 5.57514 27.5349C6.30131 26.0884 7.19207 25.0149 7.92801 24.5528L5.80094 21.1652ZM0.475872 31.3719C0.475872 33.3059 0.36101 35.2511 0.241436 37.2698C0.123034 39.2687 0 41.3398 0 43.4273H4C4 41.4777 4.1149 39.5243 4.23444 37.5063C4.3528 35.5081 4.47587 33.4442 4.47587 31.3719H0.475872ZM0 43.4273C0 47.2826 1.58017 51.3247 3.74024 54.7957C5.9111 58.284 8.80118 61.4117 11.7009 63.4192L13.9777 60.1304C11.5938 58.48 9.0642 55.7801 7.13632 52.6822C5.19765 49.567 4 46.2643 4 43.4273H0ZM11.7009 63.4192C12.6231 64.0576 13.317 64.7066 14.2233 65.4911C15.1061 66.2551 16.1164 67.0759 17.4818 67.7988L19.3534 64.2637C18.3871 63.7521 17.6457 63.1629 16.841 62.4665C16.06 61.7906 15.1306 60.9286 13.9777 60.1304L11.7009 63.4192ZM17.4818 67.7988C18.5182 68.3475 19.5466 68.6493 20.4335 68.8845C21.3735 69.1337 22.0828 69.2938 22.8178 69.5694L24.2223 65.8241C23.2421 65.4566 22.2273 65.2218 21.4585 65.018C20.6366 64.8001 19.9713 64.5908 19.3534 64.2637L17.4818 67.7988ZM22.8178 69.5694C25.3881 70.5333 28.4403 71.8731 31.5084 72.4867L32.2929 68.5644C29.6444 68.0347 27.0991 66.903 24.2223 65.8241L22.8178 69.5694ZM31.5084 72.4867C39.2502 74.0351 47.6395 74.4555 55.4035 74.4555V70.4555C47.7531 70.4555 39.6622 70.0383 32.2929 68.5644L31.5084 72.4867ZM55.4035 74.4555C60.089 74.4555 64.3912 75.0161 69.2411 75.3754L69.5366 71.3863C64.9632 71.0475 60.2825 70.4555 55.4035 70.4555V74.4555ZM69.2411 75.3754C72.6174 75.6255 77.9414 75.5831 81.4839 74.3432L80.1625 70.5678C77.4394 71.5209 72.8123 71.6289 69.5366 71.3863L69.2411 75.3754ZM80.8232 74.4555C90.6359 74.4555 98.0669 74.3751 107.71 72.4884L106.942 68.5628C97.7094 70.3692 90.6145 70.4555 80.8232 70.4555V74.4555ZM107.71 72.4884C116.182 70.8308 124.63 69.0541 132.93 66.4133L131.717 62.6016C123.652 65.1676 115.398 66.9085 106.942 68.5628L107.71 72.4884ZM132.93 66.4133C135.491 65.5982 138.766 64.6562 141.833 63.4417C144.89 62.2309 148.005 60.6536 150.237 58.4216L147.409 55.5932C145.764 57.2379 143.265 58.572 140.36 59.7227C137.464 60.8696 134.427 61.7393 131.717 62.6016L132.93 66.4133ZM150.152 58.5022C154.285 54.8287 160.823 50.8192 160.823 42.0074H156.823C156.823 48.5674 152.362 51.1861 147.495 55.5126L150.152 58.5022ZM160.823 42.0074C160.823 41.1171 160.912 40.0966 161.035 38.9433C161.154 37.826 161.31 36.5568 161.411 35.3239C161.611 32.9006 161.665 30.0958 160.666 27.7294L156.981 29.2853C157.568 30.6769 157.622 32.6125 157.425 34.9948C157.328 36.1648 157.186 37.3147 157.058 38.5184C156.933 39.6859 156.823 40.888 156.823 42.0074H160.823ZM160.666 27.7294C160.242 26.7251 159.893 25.7636 159.547 24.7986C159.207 23.8494 158.86 22.8725 158.462 21.9263C157.648 19.9899 156.587 18.0993 154.712 16.2905L151.935 19.1699C153.305 20.4906 154.098 21.8675 154.775 23.4767C155.123 24.3034 155.43 25.1689 155.782 26.1491C156.128 27.1135 156.509 28.1686 156.981 29.2853L160.666 27.7294ZM154.712 16.2905C153.919 15.5259 152.286 13.6301 150.416 11.5768C149.516 10.589 148.584 9.59245 147.738 8.76325C146.944 7.98389 146.066 7.18914 145.304 6.76039L143.343 10.2467C143.586 10.3835 144.122 10.8191 144.937 11.6186C145.701 12.3682 146.573 13.299 147.459 14.2707C149.159 16.1364 151.021 18.2885 151.935 19.1699L154.712 16.2905ZM145.304 6.76039C143.605 5.80465 141.513 4.56602 139.368 3.55662C137.227 2.54886 134.837 1.67052 132.456 1.51181L132.19 5.50296C133.832 5.61244 135.689 6.24578 137.665 7.17583C139.638 8.10427 141.535 9.22961 143.343 10.2467L145.304 6.76039ZM132.456 1.51181C124.72 0.996095 118.419 0 110.323 0V4C118.28 4 124.006 4.95736 132.19 5.50296L132.456 1.51181ZM110.323 0C106.29 0 102.563 0.388736 98.7527 0.763295C94.9251 1.13958 90.9674 1.5074 86.3232 1.5074V5.5074C91.179 5.5074 95.3049 5.12152 99.144 4.74411C103.001 4.36496 106.523 4 110.323 4V0ZM85.8984 1.55305C80.015 2.83204 69.2291 4.50739 63.3232 4.50739V8.50739C69.6565 8.50739 80.7704 6.76125 86.7481 5.46175L85.8984 1.55305Z" fill="#FF3E30"/>
<path d="M39.4082 23.5645C44.1387 25.2962 46.5039 26.668 46.5039 27.6797C46.5039 28.9831 45.8841 29.9811 44.6445 30.6738C44.0612 30.6738 42.3158 29.7988 39.4082 28.0488H37.5352C31.8021 29.2155 28.9355 31.5853 28.9355 35.1582C28.9355 41.9212 31.4284 45.9089 36.4141 47.1211L39.0254 47.5039L39.4082 45.6309V43.3887H36.4141C36.0586 43.3887 35.6849 43.015 35.293 42.2676V40.3945C35.694 39.401 36.5645 38.9043 37.9043 38.9043H42.0195C42.2383 38.9043 44.7311 38.6536 49.498 38.1523C50.9928 38.5443 51.7402 39.4147 51.7402 40.7637C51.7402 42.0124 49.1243 42.8874 43.8926 43.3887L43.5234 45.6309H43.8926C45.8249 44.1361 46.946 43.3887 47.2559 43.3887C48.2493 43.6348 48.7461 44.3822 48.7461 45.6309V46C48.7461 47.3034 47.1283 49.0488 43.8926 51.2363C43.8926 52.8952 43.3913 53.8932 42.3887 54.2305H40.8984C40.6159 54.2305 39.9915 53.4831 39.0254 51.9883C32.3626 51.9883 27.8783 48.748 25.5723 42.2676C25.071 40.5358 24.8203 39.0365 24.8203 37.7695V35.5273C24.8203 28.8372 29.0586 24.9772 37.5352 23.9473L39.4082 23.5645ZM62.2676 31.7949C66.5059 33.2259 68.625 35.3451 68.625 38.1523V39.6426C67.4674 45.3757 64.9746 48.2422 61.1465 48.2422C56.1608 48.2422 53.668 45.002 53.668 38.5215C54.9622 34.2832 57.0814 32.1641 60.0254 32.1641C60.2077 32.1641 60.9551 32.041 62.2676 31.7949ZM57.7832 39.2734C57.7832 41.388 58.5306 42.8828 60.0254 43.7578H61.8984C62.8099 43.7578 63.6803 42.14 64.5098 38.9043C63.8353 36.9082 62.7142 35.9102 61.1465 35.9102C59.8978 35.9102 58.7767 37.0312 57.7832 39.2734ZM79.1387 31.7949C83.377 33.2259 85.4961 35.3451 85.4961 38.1523V39.6426C84.3385 45.3757 81.8457 48.2422 78.0176 48.2422C73.0319 48.2422 70.5391 45.002 70.5391 38.5215C71.8333 34.2832 73.9525 32.1641 76.8965 32.1641C77.0788 32.1641 77.8262 32.041 79.1387 31.7949ZM74.6543 39.2734C74.6543 41.388 75.4017 42.8828 76.8965 43.7578H78.7695C79.681 43.7578 80.5514 42.14 81.3809 38.9043C80.7064 36.9082 79.5853 35.9102 78.0176 35.9102C76.7689 35.9102 75.6478 37.0312 74.6543 39.2734ZM94.1367 25.4375C97.7461 25.4375 100.239 27.5566 101.615 31.7949C103.064 36.2793 103.939 38.5215 104.24 38.5215C106.984 38.5215 108.355 39.0228 108.355 40.0254V40.3945C108.355 41.8893 107.608 42.6367 106.113 42.6367H103.857C103.402 47.8685 101.533 50.4844 98.252 50.4844H96.7617C93.2708 50.4844 91.5254 48.4928 91.5254 44.5098C91.5254 42.8145 94.0182 41.069 99.0039 39.2734V38.1523H98.6348C97.8145 38.6536 97.0625 38.9043 96.3789 38.9043H93.3984C90.1536 38.9043 88.1576 36.2839 87.4102 31.043C87.4102 29.138 89.2786 27.2695 93.0156 25.4375H94.1367ZM91.8945 31.4258V32.916C91.8945 33.2533 92.5189 33.8776 93.7676 34.7891H95.6406C95.9961 34.7891 96.4928 34.1647 97.1309 32.916C96.5931 30.6738 95.5951 29.5527 94.1367 29.5527H93.7676C93.4303 29.5527 92.806 30.1771 91.8945 31.4258ZM96.3789 45.2617V46C96.8802 46 97.1309 46.1276 97.1309 46.3828C98.6257 45.7904 99.373 44.9154 99.373 43.7578H99.0039C97.2539 44.2591 96.3789 44.7604 96.3789 45.2617ZM112.512 25.4375C114.007 25.4375 114.754 28.8008 114.754 35.5273C114.754 36.6576 114.882 40.3991 115.137 46.752C114.654 47.8913 114.152 48.5156 113.633 48.625H113.264C111.769 48.625 111.021 47.5039 111.021 45.2617C110.52 39.8568 110.27 33.6224 110.27 26.5586C111.236 25.8112 111.983 25.4375 112.512 25.4375ZM126.402 26.9277H127.141C131.88 27.5749 134.25 28.8236 134.25 30.6738C134.25 31.1296 134.501 32.1276 135.002 33.668C134.245 37.1589 131.625 38.9043 127.141 38.9043L126.402 38.5215C126.147 38.5215 126.02 38.6491 126.02 38.9043L123.408 38.5215H121.918V38.9043C121.918 41.8939 124.534 43.3887 129.766 43.3887C132.072 42.14 133.443 41.5156 133.881 41.5156L135.002 43.3887C134.346 46.3783 132.851 47.873 130.518 47.873C129.889 47.873 128.891 47.9961 127.523 48.2422C124.023 48.2422 120.906 46.2507 118.172 42.2676C117.424 39.6152 117.051 37.6191 117.051 36.2793V35.1582C117.051 30.7923 120.168 28.0488 126.402 26.9277ZM122.287 33.668L124.898 34.0371H128.275L130.135 33.668V32.1641C128.367 31.6719 126.995 31.4258 126.02 31.4258C123.531 32.5469 122.287 33.2943 122.287 33.668Z" fill="white"/>
</svg>
