<svg width="41" height="42" viewBox="0 0 41 42" fill="none" xmlns="http://www.w3.org/2000/svg">
<path d="M19.1267 14.6543C18.1545 14.7996 17.0722 14.8871 16.1672 15.2893C15.1063 15.7608 14.1481 16.944 13.5366 17.8973C13.0813 18.607 12.8722 19.5107 12.7428 20.3352C12.5889 21.3164 12.8847 22.1552 13.1737 23.0679C13.4758 24.0219 14.1561 24.8069 14.8632 25.4944C15.7515 26.3579 16.7035 27.2359 17.6866 27.989C19.2409 29.1795 20.6691 28.63 22.3696 28.1704C23.1098 27.9704 23.9759 27.8103 24.6148 27.354C25.3357 26.8391 26.2927 26.2512 26.8599 25.5738C27.4734 24.841 27.7771 23.7952 28.2319 22.9658C28.6662 22.1738 29.2321 21.0811 29.2524 20.1651C29.2939 18.2996 28.1114 16.6811 27.3134 15.0852C26.6872 13.8327 25.1614 12.1257 23.6396 12.1257" stroke="#222222" stroke-width="4" stroke-linecap="round"/>
<path d="M35.4404 13.5016C36.3548 13.1613 37.3578 13.0222 38.2979 12.7872" stroke="#222222" stroke-width="4" stroke-linecap="round"/>
<path d="M33.8223 28.968C34.8068 29.795 35.648 30.5845 36.8328 31.1111C37.1909 31.2703 37.6766 31.9092 38.1084 31.6213" stroke="#222222" stroke-width="4" stroke-linecap="round"/>
<path d="M17.9149 34.901C18.0091 35.5956 17.9856 36.2337 17.8582 36.925C17.7704 37.4018 17.766 37.9034 17.6598 38.3707C17.5981 38.6422 17.7108 39.795 17.7108 39.0851" stroke="#222222" stroke-width="4" stroke-linecap="round"/>
<path d="M6.73294 24.1138C6.10146 24.8983 5.64944 25.5048 4.72594 25.996C4.09401 26.3322 3.37869 26.4714 2.69626 26.665C2.31403 26.7735 1.86447 27.3765 2.0386 26.7671" stroke="#222222" stroke-width="4" stroke-linecap="round"/>
<path d="M10.1216 10.0903C9.40825 9.15591 6.75512 7.77512 4.69678 7.45679" stroke="#222222" stroke-width="4" stroke-linecap="round"/>
<path d="M25.1924 6.08204C25.3644 4.68695 26.131 3.358 26.519 2" stroke="#222222" stroke-width="4" stroke-linecap="round"/>
</svg>
