<svg width="829" height="144" viewBox="0 0 829 144" fill="none" xmlns="http://www.w3.org/2000/svg">
<path fill-rule="evenodd" clip-rule="evenodd" d="M0 0H829V143.5H0V0ZM71.7612 25.8715C79.7654 23.195 85.3199 22.6542 93.8895 22.6542H97.5C101 22 107.118 20.5355 111.047 20.5355H144.814L180.009 18.4168H219.151C235.639 18.4168 263.272 15.5918 263.272 15.5918H300.969C327.968 15.5918 345.939 13.7925 372.861 14.8856C395.015 15.7851 414.072 16.0014 436.195 14.8856C453.395 14.018 468.027 14.8856 485.296 14.8856C504.148 14.8856 520.685 14.2302 539.549 15.5918C566.247 17.519 592.909 15.5918 619.648 15.5918C628.369 15.5918 639.065 16.5229 647.664 15.5918C659.836 14.2738 682.91 17.1725 695.076 15.5918C704.73 14.3375 700.282 15.5288 710.102 15.0425C717.438 14.6793 724.835 14.8856 732.182 14.8856C737.101 14.8856 742.1 14.686 747.015 14.8856C750.676 15.0342 750.494 27.2815 750.494 30.4228C750.494 38.9735 752.927 49.7392 754.999 58C757.156 66.5964 758.926 69.7251 758.926 78.5C756.052 93.8967 759.54 100.712 758.926 104.396C758.491 107.005 758.068 119.623 754.999 121.284C752.73 122.513 740.4 122.819 737.92 122.847C727.83 122.962 722.265 124.902 709.456 124.902C693.8 126.284 688.58 123.443 676.01 124.902C668.582 125.763 655.341 124.902 647.664 124.902C637.926 124.902 605.65 125.473 595.942 124.902C571.917 123.488 576.126 124.432 552.121 122.847C538.087 121.92 526.853 123.199 513.067 124.768L511.893 124.902C497.608 126.526 468.791 124.902 468.791 124.902H431.436C431.436 124.902 408.532 125.309 399.11 125.387C387.656 125.481 374.631 125.117 363.192 125.765C352.805 126.353 335.176 127.256 335.176 127.256C335.176 127.256 325.275 127.415 318.654 128.68C313.748 129.618 306.018 129.786 300.969 130.355C291.881 131.38 282.251 130.708 273.091 130.708H241.154C230.854 130.708 220.531 130.89 210.233 130.708C201.889 130.561 188.101 130.159 180.009 128.68C167.851 126.459 144.814 130.355 144.814 130.355L106.935 130.708C106.935 130.708 91.6842 132.49 86.0788 130.708C81.3603 129.209 83.491 125.167 82.1006 121.135C79.5213 113.654 79.1051 105.703 79.1051 97.9076C79.1051 89.2015 77.3913 81.0803 76.5444 72.4831C75.7272 64.1884 76.0179 54.3307 72.5342 46.5093C71.1296 43.3558 65.8041 27.8634 71.7612 25.8715Z" fill="white"/>
<path d="M93.8895 22.6542C85.3199 22.6542 79.7654 23.195 71.7612 25.8715C65.8041 27.8634 71.1296 43.3558 72.5342 46.5093C76.0179 54.3307 75.7272 64.1884 76.5444 72.4831C77.3913 81.0803 79.1051 89.2015 79.1051 97.9076C79.1051 105.703 79.5213 113.654 82.1006 121.135C83.491 125.167 81.3603 129.209 86.0788 130.708C91.6842 132.49 106.935 130.708 106.935 130.708L144.814 130.355C144.814 130.355 167.851 126.459 180.009 128.68C188.101 130.159 201.889 130.561 210.233 130.708C220.531 130.89 230.854 130.708 241.154 130.708C251.8 130.708 262.445 130.708 273.091 130.708C282.251 130.708 291.881 131.38 300.969 130.355C306.018 129.786 313.748 129.618 318.653 128.68C325.275 127.415 335.176 127.256 335.176 127.256C335.176 127.256 352.805 126.353 363.192 125.765C374.631 125.117 387.656 125.481 399.11 125.387C408.532 125.309 431.436 124.902 431.436 124.902H468.791C468.791 124.902 497.608 126.526 511.893 124.902C526.221 123.273 537.69 121.894 552.121 122.847C576.126 124.432 571.917 123.488 595.942 124.902C605.65 125.473 637.926 124.902 647.664 124.902C655.341 124.902 668.582 125.763 676.01 124.902C688.58 123.443 693.8 126.284 709.456 124.902C722.265 124.902 727.83 122.962 737.92 122.847C740.4 122.819 752.73 122.513 754.999 121.284C758.068 119.623 758.491 107.005 758.926 104.396C759.54 100.712 756.052 93.8967 758.926 78.5C758.926 69.7251 757.156 66.5964 754.999 58C752.927 49.7392 750.494 38.9735 750.494 30.4228C750.494 27.2815 750.676 15.0343 747.015 14.8856C742.1 14.686 737.101 14.8856 732.182 14.8856C724.835 14.8856 717.438 14.6793 710.102 15.0425C700.282 15.5288 704.73 14.3375 695.076 15.5918C682.91 17.1725 659.836 14.2738 647.664 15.5918C639.065 16.5229 628.369 15.5918 619.648 15.5918C592.909 15.5918 566.247 17.519 539.549 15.5918C520.685 14.2302 504.149 14.8856 485.296 14.8856C468.027 14.8856 453.395 14.018 436.195 14.8856C414.072 16.0014 395.015 15.7851 372.861 14.8856C345.939 13.7925 327.968 15.5918 300.969 15.5918C290.204 15.5918 263.272 15.5918 263.272 15.5918C263.272 15.5918 235.639 18.4168 219.151 18.4168C201.093 18.4168 180.009 18.4168 180.009 18.4168L144.814 20.5355H126.132C126.132 20.5355 119.355 20.5355 111.047 20.5355C107.118 20.5355 93.8895 21.2417 98.8344 21.791" stroke="#222222" stroke-width="6" stroke-linecap="round"/>
</svg>
