<svg width="108" height="77" viewBox="0 0 108 77" fill="none" xmlns="http://www.w3.org/2000/svg">
<path d="M32.5828 10.7702C29.8191 8.59326 27.0061 6.43457 24.3264 4.21657C23.9157 3.87663 23.5036 3.32698 22.9973 3.01131C22.7391 2.85036 21.6017 4.45859 21.5071 4.56811C20.1173 6.17728 18.0264 8.32676 17.7414 10.1927C17.5871 11.2026 17.3403 11.5903 15.3522 11.9001C12.6069 12.328 10.0372 12.1261 7.20934 12.1261C6.18227 12.1261 0.353524 12.1261 2.6985 13.1682C2.6985 13.1682 2.13465 15.0876 2.13465 15.88C2.13465 18.5591 2.95321 21.1709 3.38318 23.8272C4.31658 29.5936 2.12436 35.3473 3.38319 41.1026C4.18549 44.7707 3.38319 49.7912 3.38319 53.4948C3.38319 57.6683 3.33399 59.6207 2.6985 63.7807C2.45161 65.397 2.13465 70.9498 2.13465 70.9498C1.83169 72.3427 2.13465 73.356 2.13465 74.9379C2.13465 74.9379 4.43445 74.8914 5.73929 74.9379C11.5836 75.1461 17.751 74.7799 23.5813 74.5864C33.09 74.2707 42.1038 72.7456 51.6734 72.9291C59.0888 73.0714 66.399 73.4782 73.8449 73.356C77.1953 73.301 80.4894 73.1426 83.8534 73.1426C87.0023 73.1426 90.107 73.0891 93.2778 73.1426C95.6934 73.1833 98.069 73.5651 100.527 73.5945C101.417 73.6052 102.591 73.9266 103.447 73.808C104.917 73.6044 105.108 69.9339 105.32 69.3259C107.59 62.815 103.447 47.7866 103.447 41.1026C103.263 38.578 104.431 36.026 103.447 33.5726C102.36 30.8608 102.426 26.6353 101.474 23.8649C100.912 22.2293 100.906 20.432 100.709 18.7676C100.496 16.9753 100.53 15.1293 100.084 13.3565C99.8895 12.5821 100.364 12.1545 98.8358 12.1261C94.6292 12.0478 90.4408 11.9222 86.2296 11.9001C79.0408 11.8625 72.0539 10.3182 64.8837 10.3182C59.1195 10.3182 53.4408 10.4881 47.6861 10.5442C44.7062 10.5732 42.3734 10.6475 39.3894 10.3684C37.4151 10.1838 35.3017 10.3182 33.3078 10.3182" stroke="#222222" stroke-width="4" stroke-linecap="round"/>
</svg>
