<svg width="9" height="39" viewBox="0 0 9 39" fill="none" xmlns="http://www.w3.org/2000/svg">
<path d="M6.96223 6.06366C6.55259 6.44095 5.82982 7.25621 4.05347 6.88777C2.27712 6.51933 1.91851 5.18095 1.91851 5.18095C1.65555 4.19959 2.71383 3.22298 2.71383 3.22298C3.87806 1.78689 5.86959 1.93514 6.61893 2.78017C7.10595 3.3294 7.57438 5.49986 6.96223 6.06366Z" fill="#222222" stroke="#222222" stroke-width="3" stroke-linecap="round"/>
<path d="M6.96223 20.739C6.55259 21.1162 5.82982 21.9315 4.05347 21.5631C2.27712 21.1946 1.91851 19.8562 1.91851 19.8562C1.65555 18.8749 2.71383 17.8983 2.71383 17.8983C3.87806 16.4622 5.86959 16.6104 6.61893 17.4555C7.10595 18.0047 7.57438 20.1752 6.96223 20.739Z" fill="#222222" stroke="#222222" stroke-width="3" stroke-linecap="round"/>
<path d="M7.24087 34.9519C6.94284 35.4224 6.4557 36.3969 4.64452 36.5008C2.83334 36.6046 2.14054 35.4047 2.14054 35.4047C1.63255 34.5248 2.402 33.3076 2.402 33.3076C3.15488 31.6191 5.11692 31.2468 6.05943 31.8691C6.67201 32.2736 7.68623 34.2489 7.24087 34.9519Z" fill="#222222" stroke="#222222" stroke-width="3" stroke-linecap="round"/>
</svg>
