<svg width="92" height="75" viewBox="0 0 92 75" fill="none" xmlns="http://www.w3.org/2000/svg">
<path d="M25.9996 36.9102C29.8471 40.1227 30.7279 46.0551 34.2988 49.5644C35.2653 50.5142 36.5459 51.3871 37.1433 52.6226C37.2763 52.8976 38.7694 51.3735 38.8666 51.288C40.0908 50.2111 41.5066 49.3002 42.6868 48.1961C43.3897 47.5386 44.0875 46.7393 44.6647 45.9738C45.4786 44.8946 46.6466 44.2284 47.4436 43.1395C49.198 40.7425 51.3492 38.8753 53.581 36.9102C54.6263 35.9898 55.5932 34.9142 56.4866 33.8494C57.6686 32.4407 59.1866 31.3466 60.5383 30.1038C61.7998 28.9441 62.7975 27.7057 63.7908 26.3183C64.3369 25.5554 64.9182 24.6966 65.7929 24.3091" stroke="#60AC00" stroke-width="7" stroke-linecap="round"/>
<path d="M42.1314 6.26624C35.6286 9.03338 28.3502 8.9668 22.1632 12.5362C20.2418 13.6447 18.6327 15.8433 17.0012 17.3582C15.4824 18.7686 13.9674 20.0899 12.5191 21.6012C9.22808 25.0353 4.86577 29.0473 4.18438 33.9144C3.53948 38.5208 4.67009 42.8188 6.27436 47.0586C8.0256 51.6869 10.5318 56.0138 14.2062 59.4348C15.995 61.1002 17.8569 62.9683 20.1488 63.8414C22.4829 64.7306 24.6431 66.1701 27 67C29.6697 67.94 31.2216 68.3265 34 68.8271C35.4737 69.0927 39.0327 70.1739 40.5 70.5C43.1966 71.0992 47.7406 70.4283 50.5 70.5C53.9218 70.5889 55.2452 69.8526 58.5 68.8271C61.096 68.0092 61.841 67.5757 64.5 67C65.6483 66.7514 68.0719 65.0283 68.9234 64.2317C69.7527 63.4559 70.7668 63.004 71.5925 62.2299C72.3473 61.5223 73.0559 60.8066 73.8588 60.1525C75.6572 58.6871 77.3572 57.413 78.8319 55.5696C80.1873 53.8754 81.661 52.3506 82.9237 50.5713C84.1062 48.9051 84.7931 46.9607 85.5929 45.0945C86.3539 43.3189 87.2431 41.6698 87.8087 39.8066C88.4285 37.7651 88.1361 35.3762 88.1361 33.2723C88.1361 31.2868 86.9976 29.4557 86.1972 27.6948C85.1483 25.3872 83.6308 23.7294 82.0676 21.8026C81.4884 21.0887 81.3011 20.1965 80.8589 19.4105C80.4736 18.7255 79.8731 18.2225 79.474 17.5471C78.3884 15.7098 77.0468 14.1134 75.4703 12.6495C72.6384 10.0198 69.1379 8.47209 65.6499 6.94612C63.7189 6.10128 62.075 4.9942 59.934 4.73023C56.6471 4.325 53.2908 4 49.9751 4C48.7785 4 47.7265 4.45325 46.5254 4.45325C45.9417 4.45325 42.7872 5.12513 43.4911 5.35975" stroke="#60AC00" stroke-width="7" stroke-linecap="round"/>
</svg>
