<svg width="167" height="77" viewBox="0 0 167 77" fill="none" xmlns="http://www.w3.org/2000/svg">
<path d="M76.8968 65.1926C79.3918 67.7323 81.9312 70.2508 84.3504 72.8385C84.7212 73.2351 85.0932 73.8763 85.5503 74.2446C85.7834 74.4324 86.8102 72.5561 86.8956 72.4284C88.1502 70.551 90.0378 68.0433 90.2952 65.8664C90.4344 64.6882 90.6572 64.2359 92.4521 63.8743C94.9304 63.3751 157.28 63.6107 159.833 63.6107C160.76 63.6107 166.022 63.6107 163.905 62.395C163.905 62.395 164.414 60.1556 164.414 59.2312C164.414 56.1056 164.802 52.3568 164.414 49.2578C164.541 42.0562 163.905 36.7578 163.905 29.2578C163.181 24.9784 163.287 19.6681 163.287 15.3473C163.287 14.3645 163.263 13.891 163.231 13.7214C163.248 13.5814 163.267 13.4272 163.287 13.2578C163.51 11.3722 163.414 4.9831 163.414 4.9831C163.687 3.35797 163.414 4.27036 163.414 2.4248C163.414 2.4248 161.338 2.23003 160.16 2.1758C154.884 1.9329 130.299 1.94997 125.036 2.1758C117.536 2.4248 112.536 2.4248 99.5355 2.17581C92.8411 2.00984 86.3983 2.03328 79.6764 2.1758C76.6518 2.23993 44.5656 2.4248 41.5287 2.4248C38.686 2.4248 15.8831 2.48713 13.0207 2.4248C10.84 2.37731 9.255 2.45919 7.03564 2.42481C6.23231 2.41236 3.80855 2.28638 3.0355 2.4248C1.70881 2.66233 2.03561 8.25781 2.03561 8.25781C2.53567 15.7578 3.03564 22.4599 3.03564 30.2578C3.20181 33.2032 3.53564 35.7578 3.53564 40.2578C4.03564 46.7578 4.53564 46.7578 4.53564 50.2578C5.04313 52.1659 4.85713 53.8161 5.03564 55.7578C5.22788 57.8488 5.2189 60.1896 5.62157 62.2578C5.79746 63.1612 5.65628 63.2246 7.03564 63.2578C10.8332 63.3491 35.5818 63.8486 39.3835 63.8743C44.3086 63.9077 55.4159 64.9533 63.3149 65.4556C63.2973 65.4558 63.2797 65.456 63.2621 65.4562C60.8508 65.4866 63.1581 65.5456 65.803 65.6001C67.2692 65.6753 68.5531 65.7199 69.571 65.7199C72.3594 65.7199 68.8563 65.663 65.803 65.6001C65.0212 65.5599 64.1876 65.5111 63.3149 65.4556C65.9799 65.4213 68.0758 65.3379 70.7521 65.6613C72.5344 65.8767 75.0967 65.1926 76.8968 65.1926Z" fill="white"/>
<path d="M76.8968 65.1926L76.8968 63.1926L77.7357 63.1926L78.3235 63.791L76.8968 65.1926ZM84.3504 72.8385L85.8114 71.4726L85.8114 71.4726L84.3504 72.8385ZM85.5503 74.2446L84.2955 75.802L84.2955 75.802L85.5503 74.2446ZM86.8956 72.4284L85.2327 71.3171L85.2327 71.3171L86.8956 72.4284ZM90.2952 65.8664L92.2813 66.1011L92.2813 66.1012L90.2952 65.8664ZM92.4521 63.8743L92.0571 61.9137L92.0571 61.9137L92.4521 63.8743ZM163.905 62.395L162.909 64.1293L161.627 63.3932L161.955 61.9517L163.905 62.395ZM164.414 49.2578L162.429 49.5064L162.412 49.365L162.414 49.2225L164.414 49.2578ZM163.905 29.2578L165.877 28.9241L165.905 29.0898L165.905 29.2578L163.905 29.2578ZM163.287 13.2578L161.301 13.0231L161.301 13.023L163.287 13.2578ZM163.414 4.9831L161.414 5.01306L161.411 4.83087L161.442 4.65118L163.414 4.9831ZM163.414 2.4248L163.601 0.433545C164.628 0.529955 165.414 1.3926 165.414 2.4248L163.414 2.4248ZM160.16 2.1758L160.068 4.17369L160.068 4.17368L160.16 2.1758ZM125.036 2.1758L125.121 4.17396L125.112 4.17438L125.102 4.1747L125.036 2.1758ZM99.5355 2.17581L99.4972 4.17547L99.4859 4.17519L99.5355 2.17581ZM79.6764 2.1758L79.634 0.176252L79.634 0.176252L79.6764 2.1758ZM13.0207 2.4248L13.0642 0.425273L13.0642 0.425273L13.0207 2.4248ZM7.03564 2.42481L7.06662 0.425045L7.06663 0.425046L7.03564 2.42481ZM3.0355 2.4248L3.388 4.39349L3.38798 4.39349L3.0355 2.4248ZM2.03561 8.25781L0.0400414 8.39087L0.0394932 8.38265L0.0390128 8.37442L2.03561 8.25781ZM3.03564 30.2578L1.03882 30.3705L1.03564 30.3142L1.03564 30.2578L3.03564 30.2578ZM3.53564 40.2578L1.54153 40.4112L1.53564 40.3346L1.53564 40.2578L3.53564 40.2578ZM4.53564 50.2578L2.60283 50.7719L2.53564 50.5192L2.53564 50.2578L4.53564 50.2578ZM5.03564 55.7578L7.02724 55.5747L7.02724 55.5747L5.03564 55.7578ZM5.62157 62.2578L3.65843 62.64L3.65843 62.64L5.62157 62.2578ZM7.03564 63.2578L7.08373 61.2584L7.08373 61.2584L7.03564 63.2578ZM39.3835 63.8743L39.37 65.8743L39.37 65.8743L39.3835 63.8743ZM63.2621 65.4562L63.2873 67.4561L63.2873 67.4561L63.2621 65.4562ZM70.7521 65.6613L70.5121 67.6469L70.5121 67.6469L70.7521 65.6613ZM78.3235 63.791C80.7939 66.3057 83.3697 68.8609 85.8114 71.4726L82.8895 74.2043C80.4928 71.6408 77.9896 69.159 75.4701 66.5942L78.3235 63.791ZM85.8114 71.4726C85.9676 71.6397 86.1049 71.8117 86.2116 71.9495C86.286 72.0456 86.4565 72.2719 86.5044 72.3343C86.5919 72.4483 86.6592 72.5316 86.7172 72.5968C86.745 72.6281 86.7666 72.6507 86.7826 72.6664C86.7988 72.6822 86.8062 72.6881 86.8051 72.6872L84.2955 75.802C83.8642 75.4545 83.5323 75.0316 83.3316 74.7701C83.0689 74.4279 82.9867 74.3084 82.8895 74.2043L85.8114 71.4726ZM86.8051 72.6872C86.2947 72.276 85.7042 72.2107 85.2677 72.2849C84.8998 72.3474 84.6536 72.5008 84.5648 72.5599C84.3816 72.6816 84.2974 72.7923 84.3309 72.7534C84.3659 72.7128 84.457 72.5896 84.5956 72.3738C84.7222 72.1768 84.85 71.9632 84.9567 71.7811C85.0101 71.69 85.0545 71.6132 85.0936 71.546C85.109 71.5194 85.1772 71.4002 85.2327 71.3171L88.5584 73.5397C88.5804 73.5067 88.5698 73.5271 88.4076 73.8038C88.2904 74.0036 88.1309 74.2713 87.961 74.5358C87.8031 74.7816 87.5885 75.1003 87.3627 75.3626C87.2658 75.4752 87.0626 75.7027 86.7783 75.8916C86.6388 75.9842 86.3467 76.1588 85.9381 76.2283C85.4609 76.3094 84.835 76.2367 84.2955 75.802L86.8051 72.6872ZM85.2327 71.3171C85.9099 70.3038 86.6218 69.3155 87.2415 68.2524C87.8666 67.1803 88.23 66.3001 88.309 65.6316L92.2813 66.1012C92.103 67.6096 91.394 69.0717 90.6972 70.2669C89.9952 71.4713 89.1359 72.6756 88.5584 73.5397L85.2327 71.3171ZM88.309 65.6316C88.3771 65.0553 88.504 64.0069 89.3197 63.169C90.0786 62.3895 91.1321 62.1 92.0571 61.9137L92.847 65.835C92.4553 65.9139 92.2406 65.9806 92.1287 66.026C92.0271 66.0672 92.0876 66.0601 92.1858 65.9592C92.2963 65.8457 92.3383 65.7344 92.3431 65.7194C92.3431 65.7193 92.3425 65.7212 92.3414 65.7251C92.3403 65.729 92.3388 65.7349 92.3368 65.743C92.3329 65.7594 92.3278 65.7831 92.3218 65.8158C92.3094 65.8839 92.2964 65.974 92.2813 66.1011L88.309 65.6316ZM92.0571 61.9137C92.3994 61.8448 92.9679 61.8141 93.5026 61.791C94.1177 61.7644 94.9326 61.7409 95.9117 61.7201C97.8724 61.6785 100.532 61.6467 103.651 61.6226C109.893 61.5744 118.005 61.5571 126.114 61.5553C142.266 61.5518 158.633 61.6107 159.833 61.6107L159.833 65.6107C158.479 65.6107 142.395 65.5518 126.115 65.5553C118.008 65.5571 109.908 65.5744 103.682 65.6225C100.568 65.6465 97.93 65.6782 95.9966 65.7192C95.0286 65.7398 94.2475 65.7625 93.6757 65.7872C93.0236 65.8155 92.8144 65.8415 92.847 65.835L92.0571 61.9137ZM159.833 61.6107C160.319 61.6107 161.736 61.6079 162.752 61.4755C162.998 61.4434 163.17 61.4097 163.273 61.3822C163.438 61.3379 163.267 61.3531 163.03 61.5465C162.888 61.6619 162.614 61.93 162.477 62.3893C162.327 62.8952 162.424 63.3587 162.579 63.675C162.806 64.139 163.132 64.2576 162.909 64.1293L164.901 60.6606C165.207 60.8363 165.832 61.2208 166.172 61.9175C166.384 62.3502 166.492 62.9217 166.312 63.528C166.146 64.0876 165.801 64.4483 165.554 64.6491C165.107 65.0135 164.587 65.1712 164.309 65.2456C163.97 65.3368 163.606 65.3981 163.269 65.442C161.952 65.6135 160.274 65.6107 159.833 65.6107L159.833 61.6107ZM163.905 62.395C161.955 61.9517 161.955 61.9517 161.955 61.9518C161.955 61.9518 161.955 61.9519 161.955 61.9519C161.955 61.9519 161.955 61.952 161.955 61.9519C161.955 61.9519 161.955 61.9517 161.955 61.9514C161.955 61.9508 161.955 61.9497 161.955 61.948C161.956 61.9447 161.957 61.9393 161.959 61.932C161.962 61.9174 161.967 61.895 161.974 61.8657C161.987 61.8071 162.006 61.7211 162.028 61.6146C162.074 61.4007 162.134 61.1078 162.194 60.7894C162.327 60.0839 162.414 59.4758 162.414 59.2312L166.414 59.2312C166.414 59.9109 166.246 60.8848 166.125 61.5301C166.058 61.8871 165.991 62.2118 165.941 62.4467C165.916 62.5645 165.895 62.6607 165.88 62.7282C165.872 62.7619 165.866 62.7886 165.862 62.8072C165.86 62.8165 165.858 62.8238 165.857 62.829C165.857 62.8317 165.856 62.8337 165.856 62.8353C165.856 62.8361 165.856 62.8367 165.855 62.8372C165.855 62.8374 165.855 62.8377 165.855 62.8378C165.855 62.8379 165.855 62.838 165.855 62.8381C165.855 62.8382 165.855 62.8383 163.905 62.395ZM162.414 59.2312C162.414 57.6364 162.514 55.808 162.56 54.178C162.608 52.4819 162.604 50.8967 162.429 49.5064L166.398 49.0092C166.612 50.7179 166.608 52.5566 166.559 54.2911C166.508 56.0916 166.414 57.7003 166.414 59.2312L162.414 59.2312ZM162.414 49.2225C162.477 45.6893 162.352 42.6182 162.209 39.4602C162.066 36.3083 161.905 33.0615 161.905 29.2578L165.905 29.2578C165.905 32.9541 166.061 36.1066 166.205 39.2793C166.348 42.4458 166.478 45.6247 166.414 49.2931L162.414 49.2225ZM161.933 29.5916C161.173 25.1024 161.287 19.5749 161.287 15.3473L165.287 15.3473C165.287 19.7614 165.188 24.8544 165.877 28.9241L161.933 29.5916ZM161.287 15.3473C161.287 14.8682 161.281 14.532 161.272 14.3049C161.268 14.1913 161.264 14.1161 161.26 14.0704C161.255 14.0135 161.255 14.0358 161.267 14.0989L165.195 13.344C165.272 13.7431 165.287 14.4368 165.287 15.3473L161.287 15.3473ZM161.267 14.0989C161.272 14.1271 161.289 14.2122 161.327 14.3235C161.347 14.3807 161.381 14.4719 161.437 14.5792C161.488 14.6781 161.591 14.8553 161.768 15.0389C161.947 15.2246 162.278 15.492 162.776 15.5999C163.025 15.6541 163.28 15.6591 163.526 15.6179C163.769 15.5774 163.974 15.4972 164.139 15.409C164.451 15.2413 164.644 15.03 164.74 14.9121C164.843 14.7849 164.909 14.6707 164.946 14.6017C165.018 14.4668 165.055 14.3571 165.067 14.319C165.083 14.2695 165.092 14.2336 165.096 14.2198C165.102 14.1929 165.102 14.1875 165.098 14.2147C165.089 14.2658 165.077 14.3523 165.065 14.4629C165.054 14.5699 165.044 14.6784 165.038 14.7668C165.035 14.8109 165.033 14.8444 165.032 14.8665C165.031 14.8954 165.032 14.8845 165.031 14.8497C165.031 14.8368 165.03 14.7761 165.02 14.6932C165.015 14.6533 165.004 14.5682 164.977 14.4615C164.964 14.4067 164.941 14.3238 164.903 14.2257C164.868 14.1355 164.799 13.9759 164.675 13.799C164.556 13.631 164.308 13.3326 163.876 13.1339C163.652 13.0304 163.395 12.9631 163.119 12.9523C162.845 12.9415 162.595 12.9881 162.383 13.0622C161.98 13.2027 161.724 13.4356 161.601 13.5635C161.468 13.7016 161.383 13.8302 161.337 13.9055C161.247 14.0539 161.198 14.1798 161.18 14.2266C161.157 14.287 161.142 14.3351 161.134 14.3611C161.119 14.4128 161.112 14.4479 161.111 14.4512C161.109 14.4589 161.11 14.4574 161.112 14.4433C161.118 14.4148 161.127 14.3621 161.139 14.2773C161.165 14.1087 161.2 13.8508 161.246 13.4762L165.216 13.9667C165.167 14.3576 165.128 14.6539 165.095 14.8714C165.079 14.9796 165.063 15.078 165.047 15.1639C165.039 15.2071 165.03 15.2537 165.02 15.301C165.01 15.3439 164.995 15.4102 164.973 15.4852C164.962 15.5229 164.944 15.5808 164.918 15.649C164.898 15.7037 164.845 15.8356 164.752 15.9883C164.705 16.0657 164.619 16.1959 164.485 16.3352C164.361 16.4644 164.104 16.6981 163.7 16.839C163.487 16.9133 163.237 16.96 162.962 16.9492C162.685 16.9383 162.428 16.8709 162.203 16.7671C161.771 16.568 161.521 16.2687 161.402 16.0994C161.277 15.9213 161.207 15.76 161.172 15.6677C161.133 15.5676 161.109 15.4822 161.095 15.4247C161.067 15.3122 161.054 15.22 161.048 15.1714C161.036 15.0712 161.034 14.9875 161.033 14.9465C161.03 14.8555 161.033 14.7681 161.036 14.7056C161.038 14.6363 161.043 14.5635 161.047 14.4919C161.057 14.3488 161.072 14.188 161.089 14.0312C161.105 13.8782 161.127 13.7065 161.154 13.5484C161.167 13.471 161.185 13.3733 161.21 13.2716C161.222 13.2205 161.24 13.1517 161.266 13.0744C161.287 13.0084 161.333 12.876 161.414 12.7241C161.455 12.6467 161.526 12.5255 161.633 12.3927C161.733 12.2693 161.931 12.054 162.248 11.8839C162.415 11.7946 162.622 11.7136 162.867 11.6727C163.115 11.6312 163.372 11.6362 163.624 11.6909C164.126 11.7998 164.461 12.0698 164.645 12.2599C164.826 12.4479 164.933 12.6314 164.988 12.7383C165.048 12.8537 165.087 12.9548 165.11 13.0239C165.157 13.159 165.182 13.2757 165.195 13.344L161.267 14.0989ZM161.246 13.4762C161.263 13.34 161.281 13.1894 161.301 13.0231L165.273 13.4925C165.253 13.6651 165.234 13.8228 165.216 13.9667L161.246 13.4762ZM161.301 13.023C161.395 12.2204 161.43 10.2826 161.434 8.40907C161.436 7.50193 161.431 6.65197 161.425 6.02834C161.423 5.71673 161.42 5.46214 161.418 5.28578C161.417 5.19761 161.416 5.12903 161.415 5.08268C161.415 5.05951 161.415 5.0419 161.414 5.03019C161.414 5.02433 161.414 5.01995 161.414 5.01708C161.414 5.01564 161.414 5.01459 161.414 5.01392C161.414 5.01358 161.414 5.01334 161.414 5.0132C161.414 5.01313 161.414 5.01309 161.414 5.01306C161.414 5.01305 161.414 5.01306 163.414 4.9831C165.414 4.95313 165.414 4.9532 165.414 4.95328C165.414 4.95335 165.414 4.95346 165.414 4.95358C165.414 4.95383 165.414 4.95417 165.414 4.95461C165.414 4.95549 165.414 4.95675 165.414 4.95839C165.414 4.96168 165.414 4.96649 165.414 4.97278C165.414 4.98536 165.414 5.00386 165.415 5.02794C165.415 5.07611 165.416 5.14663 165.417 5.23685C165.42 5.41726 165.423 5.67654 165.425 5.99338C165.431 6.62662 165.436 7.4918 165.434 8.41764C165.43 10.2101 165.401 12.4096 165.273 13.4926L161.301 13.023ZM161.442 4.65118C161.509 4.24953 161.529 4.08067 161.535 4.00849C161.537 3.9835 161.534 3.99878 161.536 4.03757C161.537 4.05666 161.539 4.07534 161.541 4.09208C161.542 4.10792 161.544 4.11706 161.544 4.11445C161.543 4.10897 161.541 4.09987 161.535 4.0697C161.531 4.04377 161.523 4.00231 161.515 3.95581C161.498 3.85602 161.48 3.73623 161.464 3.5877C161.433 3.29662 161.414 2.93268 161.414 2.4248L165.414 2.4248C165.414 2.8397 165.429 3.0538 165.441 3.16149C165.454 3.28555 165.454 3.24846 165.489 3.45877C165.585 4.03565 165.52 4.52268 165.386 5.31502L161.442 4.65118ZM163.414 2.4248C163.227 4.41606 163.227 4.41606 163.227 4.41606C163.227 4.41606 163.227 4.41606 163.227 4.41606C163.227 4.41606 163.227 4.41605 163.227 4.41604C163.227 4.41603 163.226 4.416 163.226 4.41596C163.225 4.41588 163.224 4.41575 163.222 4.41558C163.218 4.41524 163.213 4.41471 163.205 4.41402C163.19 4.41264 163.168 4.41058 163.139 4.40793C163.082 4.40262 162.997 4.39493 162.892 4.38553C162.683 4.3667 162.391 4.34104 162.063 4.31374C161.398 4.25842 160.617 4.19895 160.068 4.17369L160.252 0.177917C160.881 0.206879 161.726 0.271912 162.395 0.327533C162.733 0.355704 163.034 0.382129 163.25 0.401517C163.358 0.411218 163.445 0.419175 163.506 0.424729C163.536 0.427507 163.559 0.429685 163.575 0.431181C163.583 0.43193 163.59 0.432508 163.594 0.432905C163.596 0.433104 163.598 0.433257 163.599 0.433364C163.599 0.433418 163.6 0.43346 163.6 0.43349C163.6 0.433505 163.6 0.433517 163.601 0.433527C163.601 0.433531 163.601 0.433536 163.601 0.433538C163.601 0.433542 163.601 0.433545 163.414 2.4248ZM160.068 4.17368C154.856 3.93373 130.33 3.95045 125.121 4.17396L124.95 0.177641C130.267 -0.0505203 154.912 -0.0679361 160.252 0.177918L160.068 4.17368ZM125.102 4.1747C117.551 4.4254 112.511 4.4247 99.4972 4.17544L99.5738 0.176173C112.56 0.424906 117.52 0.424208 124.969 0.176904L125.102 4.1747ZM99.4859 4.17519C92.8289 4.01016 86.4177 4.03332 79.7188 4.17535L79.634 0.176252C86.379 0.0332391 92.8533 0.00952994 99.5851 0.17642L99.4859 4.17519ZM79.7188 4.17535C76.6707 4.23998 44.5655 4.4248 41.5287 4.4248L41.5287 0.424804C44.5658 0.424805 76.6329 0.239887 79.634 0.176252L79.7188 4.17535ZM41.5287 4.4248C38.7217 4.4248 15.8684 4.48729 12.9771 4.42432L13.0642 0.425273C15.8978 0.486978 38.6503 0.424803 41.5287 0.424804L41.5287 4.4248ZM12.9771 4.42432C11.9222 4.40135 11.0093 4.40955 10.0643 4.41977C9.12243 4.42996 8.14503 4.44223 7.00466 4.42457L7.06663 0.425046C8.14561 0.441763 9.07038 0.43029 10.021 0.420007C10.9685 0.409758 11.9384 0.400758 13.0642 0.425273L12.9771 4.42432ZM7.00467 4.42457C6.78211 4.42112 6.45642 4.41007 6.11575 4.39904C5.76387 4.38766 5.3726 4.37545 4.985 4.36785C4.59509 4.3602 4.22546 4.35758 3.91649 4.3642C3.76232 4.3675 3.6345 4.37288 3.53394 4.37981C3.42567 4.38728 3.3836 4.39428 3.388 4.39349L2.68301 0.456105C3.30606 0.344549 4.32748 0.354182 5.06343 0.368615C6.04472 0.38786 6.56553 0.417284 7.06662 0.425045L7.00467 4.42457ZM3.38798 4.39349C3.95226 4.29246 4.22086 3.93475 4.2719 3.85876C4.3219 3.78433 4.29631 3.79385 4.24578 3.9747C4.14789 4.32497 4.07408 4.87744 4.03459 5.54797C3.99662 6.19262 3.99558 6.84388 4.00493 7.34231C4.00956 7.58923 4.01663 7.79352 4.02245 7.9343C4.02536 8.00459 4.02794 8.05877 4.02973 8.09419C4.03062 8.11189 4.03131 8.12488 4.03175 8.13283C4.03196 8.13681 4.03211 8.13952 4.03219 8.14093C4.03223 8.14164 4.03226 8.14201 4.03226 8.14206C4.03226 8.14209 4.03226 8.14203 4.03225 8.14188C4.03224 8.14181 4.03223 8.14164 4.03223 8.14161C4.03222 8.14142 4.03221 8.1412 2.03561 8.25781C0.0390128 8.37442 0.038998 8.37417 0.0389819 8.37389C0.0389749 8.37377 0.0389576 8.37347 0.0389436 8.37323C0.0389157 8.37275 0.0388828 8.37218 0.0388452 8.37152C0.0387701 8.37022 0.0386759 8.36857 0.0385637 8.36658C0.0383393 8.36261 0.0380428 8.35729 0.0376818 8.35068C0.0369599 8.33744 0.0359796 8.31898 0.0348026 8.29564C0.0324495 8.24898 0.0293054 8.18271 0.0258668 8.09953C0.0189978 7.93338 0.0109067 7.69867 0.00562991 7.41731C-0.00483767 6.85916 -0.00466074 6.0967 0.0415087 5.31279C0.0861543 4.55476 0.179399 3.66382 0.393372 2.89813C0.498763 2.521 0.665307 2.05441 0.951366 1.62851C1.23847 1.20105 1.78707 0.616516 2.68302 0.456103L3.38798 4.39349ZM4.03118 8.12476C4.52988 15.6044 5.03564 22.3794 5.03564 30.2578L1.03564 30.2578C1.03564 22.5404 0.541464 15.9113 0.0400414 8.39087L4.03118 8.12476ZM5.03247 30.1452C5.19114 32.9578 5.53564 35.6874 5.53564 40.2578L1.53564 40.2578C1.53564 35.8283 1.21248 33.4486 1.03882 30.3705L5.03247 30.1452ZM5.52975 40.1044C5.77468 43.2885 6.01735 44.8617 6.20102 46.0861C6.39554 47.383 6.53564 48.3674 6.53564 50.2578L2.53564 50.2578C2.53564 48.6482 2.42575 47.8827 2.24527 46.6795C2.05394 45.404 1.79661 43.7271 1.54153 40.4112L5.52975 40.1044ZM6.46845 49.7438C6.77579 50.8993 6.86515 51.9526 6.90708 52.9075C6.95166 53.9226 6.94333 54.662 7.02724 55.5747L3.04404 55.9409C2.94944 54.9119 2.94485 53.8554 2.91093 53.083C2.87437 52.2503 2.80299 51.5244 2.60283 50.7719L6.46845 49.7438ZM7.02724 55.5747C7.1263 56.6521 7.17784 57.85 7.24545 58.8861C7.31627 59.9714 7.40848 60.9705 7.58471 61.8756L3.65843 62.64C3.43198 61.4769 3.32735 60.2715 3.25394 59.1466C3.17732 57.9725 3.13723 56.9545 3.04404 55.9409L7.02724 55.5747ZM7.58471 61.8756C7.61086 62.01 7.63243 62.1358 7.64547 62.2092C7.6616 62.3001 7.66566 62.3161 7.66414 62.3099C7.66334 62.3067 7.5718 61.8937 7.15955 61.5493C6.9705 61.3913 6.78867 61.3112 6.67433 61.2722C6.56971 61.2365 6.50602 61.23 6.52459 61.2325C6.53972 61.2346 6.5874 61.2397 6.68979 61.2451C6.78979 61.2503 6.9161 61.2544 7.08373 61.2584L6.98755 65.2572C6.65966 65.2493 6.3006 65.2385 5.99043 65.1967C5.70502 65.1582 5.11991 65.0575 4.59505 64.619C4.0237 64.1417 3.84826 63.5414 3.78136 63.2712C3.73566 63.0866 3.66984 62.6987 3.65843 62.64L7.58471 61.8756ZM7.08373 61.2584C10.8835 61.3498 35.6153 61.8488 39.3971 61.8744L39.37 65.8743C35.5484 65.8484 10.783 65.3485 6.98755 65.2572L7.08373 61.2584ZM39.3971 61.8744C44.3917 61.9082 55.6846 62.9663 63.4418 63.4596L63.1879 67.4515C55.1472 66.9402 44.2254 65.9072 39.37 65.8743L39.3971 61.8744ZM63.4418 63.4596C64.3085 63.5147 65.1338 63.5631 65.9055 63.6027L65.7004 67.5974C64.9087 67.5568 64.0667 67.5074 63.1879 67.4515L63.4418 63.4596ZM65.9055 63.6027C67.3584 63.6773 68.6032 63.7199 69.571 63.7199L69.571 67.7199C68.503 67.7199 67.18 67.6734 65.7004 67.5974L65.9055 63.6027ZM69.571 63.7199C69.918 63.7199 70.16 63.719 70.3146 63.7174C70.3936 63.7166 70.4396 63.7157 70.4617 63.7151C70.4751 63.7147 70.4651 63.7148 70.4432 63.7162C70.4344 63.7167 70.4006 63.7189 70.3551 63.724C70.3332 63.7265 70.288 63.732 70.2308 63.7423C70.2039 63.7472 70.0442 63.7744 69.8531 63.85C69.7791 63.8792 69.5103 63.9862 69.2408 64.232C68.9378 64.5084 68.371 65.2504 68.6689 66.2702C68.8877 67.0193 69.4483 67.3563 69.5456 67.4158C69.7253 67.5255 69.8813 67.5811 69.9435 67.6022C70.0812 67.6491 70.1928 67.6696 70.2225 67.675C70.269 67.6836 70.3059 67.6886 70.3253 67.6911C70.3645 67.6962 70.3936 67.6986 70.4019 67.6993C70.4135 67.7003 70.4209 67.7008 70.4219 67.7008C70.4236 67.7009 70.4177 67.7005 70.4008 67.6998C70.3849 67.6991 70.3639 67.6982 70.337 67.6973C70.2268 67.6933 70.0552 67.6885 69.8291 67.683C68.9247 67.661 67.2978 67.6313 65.7618 67.5996L65.8442 63.6005C67.3615 63.6318 69.0128 63.662 69.9263 63.6842C70.1546 63.6897 70.3462 63.695 70.4816 63.6999C70.5455 63.7022 70.6147 63.705 70.6735 63.7087C70.6916 63.7099 70.7593 63.714 70.8362 63.7239C70.859 63.7268 70.8988 63.7323 70.9475 63.7413C70.9796 63.7472 71.093 63.7681 71.2319 63.8154C71.2946 63.8367 71.4512 63.8925 71.6311 64.0025C71.7288 64.0621 72.2896 64.3993 72.5085 65.1487C72.8064 66.1687 72.2396 66.9108 71.9363 67.1874C71.6666 67.4334 71.3974 67.5407 71.323 67.5701C71.1308 67.646 70.9696 67.6736 70.9405 67.6789C70.8813 67.6896 70.8333 67.6954 70.8081 67.6983C70.7561 67.7042 70.7134 67.7071 70.6934 67.7083C70.6491 67.7111 70.6073 67.7125 70.5791 67.7134C70.5179 67.7152 70.4414 67.7164 70.3553 67.7172C70.1797 67.719 69.9212 67.7199 69.571 67.7199L69.571 63.7199ZM65.7618 67.5996C64.4474 67.5726 63.1849 67.5438 62.5529 67.5174C62.4041 67.5111 62.2456 67.5034 62.1254 67.4923C62.0934 67.4893 62.0407 67.4841 61.9805 67.4753C61.9507 67.4709 61.9007 67.463 61.8405 67.4502C61.8015 67.4419 61.6609 67.4119 61.4927 67.3431C61.4162 67.3118 61.2257 67.2298 61.0189 67.0686C60.8507 66.9375 60.3342 66.4916 60.2566 65.6805C60.171 64.7855 60.6779 64.2097 60.9159 63.9972C61.1548 63.7838 61.3869 63.6814 61.4707 63.6459C61.6614 63.5653 61.8224 63.5333 61.8607 63.5256C61.9257 63.5124 61.9795 63.5048 62.0106 63.5007C62.2418 63.4705 62.7119 63.463 63.2369 63.4564L63.2873 67.4561C62.6066 67.4647 62.4609 67.4759 62.5292 67.467C62.5501 67.4643 62.5955 67.458 62.6538 67.4462C62.6855 67.4398 62.8415 67.4092 63.029 67.3299C63.1111 67.2952 63.342 67.1934 63.5802 66.9807C63.8174 66.7689 64.324 66.1938 64.2384 65.2995C64.1609 64.489 63.6449 64.0438 63.4776 63.9135C63.2716 63.753 63.0825 63.6717 63.0076 63.6411C62.8429 63.5737 62.7074 63.5451 62.6751 63.5382C62.6215 63.5268 62.5798 63.5204 62.5599 63.5174C62.5372 63.5141 62.52 63.5121 62.511 63.5111C62.5014 63.51 62.4949 63.5094 62.4926 63.5092C62.4889 63.5088 62.5049 63.5103 62.5514 63.5129C62.5939 63.5152 62.6499 63.5179 62.72 63.5209C63.3001 63.5451 64.5137 63.5731 65.8442 63.6005L65.7618 67.5996ZM63.2369 63.4564C63.2543 63.4562 63.2717 63.456 63.2891 63.4557L63.3406 67.4554C63.3229 67.4556 63.3051 67.4559 63.2873 67.4561L63.2369 63.4564ZM63.2891 63.4557C65.9003 63.4221 68.1525 63.3326 70.9921 63.6758L70.5121 67.6469C67.9992 67.3432 66.0595 67.4204 63.3406 67.4554L63.2891 63.4557ZM70.9921 63.6758C71.595 63.7486 72.4381 63.6729 73.5553 63.525C74.5469 63.3937 75.8259 63.1926 76.8968 63.1926L76.8968 67.1926C76.1676 67.1926 75.2655 67.3335 74.0803 67.4904C73.0207 67.6307 71.6915 67.7894 70.5121 67.6469L70.9921 63.6758Z" fill="#222222"/>
</svg>
