<svg width="62" height="58" viewBox="0 0 62 58" fill="none" xmlns="http://www.w3.org/2000/svg">
<path d="M33.7776 37.9717C36.4072 35.4227 43.0801 27.5511 45.8153 25.0935C49.8546 21.4642 54.1545 16.9327 58.4166 13.5785C59.3198 12.8677 59.1026 13.427 59.0996 12.3669C59.0972 11.4761 57.2239 8.25036 56.7669 7.57865C56.0073 6.46216 55.6713 7.1316 54.8693 6.04428C50.5555 2.1679 49.0567 4.93869 47.3962 6.16348C43.2792 9.20015 41.118 13.8878 36.9671 16.852C35.3754 17.9886 33.9426 19.4247 32.6078 20.847C29.7718 23.8692 25.9375 27.0587 23.0861 30.0694C24.6574 32.6881 27.1755 34.3162 29.6887 35.9948C30.352 36.4378 32.738 38.4695 33.5663 37.9398" stroke="#222222" stroke-width="5" stroke-linecap="round"/>
<path d="M22.9297 29.3633C22.338 30.6002 20.2823 36.6196 20.2823 36.6196C19.8921 37.5035 18.0928 43.3005 17.8487 44.211C17.8289 44.2849 25.1657 42.2931 25.7049 42.116C28.59 41.1683 33.5612 40.021 33.5612 40.021" stroke="#222222" stroke-width="5" stroke-linecap="round"/>
<path d="M38.2964 2.86574C35.1554 2.86574 28.6244 2.86573 25.3649 2.86573C22.2208 2.86573 19.0767 2.86573 15.9326 2.86573C14.5533 2.86573 12.9812 2.67512 11.6272 3.01363C9.90431 3.44435 7.68973 2.72524 6.10579 3.60521C4.63568 4.42193 4.55508 4.06342 4.46251 6.05368C4.28369 9.8984 4.25834 13.7253 4.16672 17.573C4.09104 20.7516 3.59158 23.8816 3.59158 27.0711C3.59158 35.0446 3 43.0249 3 51.0136C3 52.624 3 52.783 3 54.3934C4.6964 54.4721 14.2423 55.4605 15.9326 55.0252C18.1232 54.4609 23.147 55.0868 25.3649 55.0252C28.9705 54.925 40.9719 54.3934 44.6405 54.3934C45.5176 53.6513 44.5965 52.0877 44.6405 51.1779C44.796 47.9644 44.9244 44.8644 45.5279 41.7127C45.8505 40.0282 45.8458 38.2828 46.1852 36.5857" stroke="#222222" stroke-width="5" stroke-linecap="round"/>
</svg>
