<svg width="64" height="61" viewBox="0 0 64 61" fill="none" xmlns="http://www.w3.org/2000/svg">
<path d="M41.9999 9.60452C39 7.42157 26.6695 9.39432 23.6525 9.60447C20.1157 9.85082 16.1336 12.2443 13.3859 14.34C11.3402 15.9003 9.79987 18.273 8.57087 20.5018C7.10815 23.1546 7.08509 25.8673 6.96564 28.7847C6.84078 31.8345 5.65019 34.5078 6.96564 37.2156C8.61791 40.6166 8.18089 40.9983 10.2206 44.1813C13.4453 49.2135 22.7029 52.5395 28.0641 52.9937C30.3976 53.1914 33.0511 53.635 35.3601 52.9925C37.9658 52.2674 41.3253 51.5794 43.6587 50.2282C46.1825 48.7667 49.1768 47.0592 51.3455 45.1554C53.4164 43.3375 55.1436 39.8205 56.1549 37.2156C58.2143 31.911 57.7502 26.9526 55.8711 20.6326C52.6938 14.34 47.2881 11.6837 42.9183 10.0982" stroke="#222222" stroke-width="4" stroke-linecap="round"/>
<path d="M33.6751 38.1578L33.4814 36.9229L33.6751 38.1578ZM21.5162 30.7242C22.0534 30.2905 22.1373 29.5035 21.7036 28.9664C21.27 28.4292 20.483 28.3453 19.9458 28.779L21.5162 30.7242ZM20.6217 28.1847C20.1212 28.6602 20.1008 29.4514 20.5762 29.9519C21.0516 30.4525 21.8428 30.4729 22.3434 29.9975L20.6217 28.1847ZM23.1084 29.2146C23.5718 28.7028 23.5325 27.9123 23.0208 27.449C22.509 26.9856 21.7186 27.0248 21.2552 27.5366L23.1084 29.2146ZM21.8275 26.8496C21.4094 27.399 21.5158 28.1833 22.0652 28.6013C22.6146 29.0194 23.3989 28.9129 23.8169 28.3636L21.8275 26.8496ZM24.4561 27.4283C24.8137 26.8378 24.6249 26.0692 24.0344 25.7116C23.4439 25.3539 22.6752 25.5427 22.3176 26.1333L24.4561 27.4283ZM22.6977 25.4009C22.4261 26.0356 22.7204 26.7703 23.3551 27.0419C23.9898 27.3135 24.7245 27.0192 24.9961 26.3846L22.6977 25.4009ZM35.0218 24.0647C35.3101 24.692 36.0524 24.9668 36.6796 24.6784C37.3069 24.3901 37.5817 23.6479 37.2933 23.0206L35.0218 24.0647ZM37.671 23.7988C37.3338 23.1964 36.5721 22.9814 35.9697 23.3187C35.3673 23.6559 35.1523 24.4176 35.4895 25.02L37.671 23.7988ZM36.2817 26.0811C36.7779 26.5611 37.5692 26.5479 38.0492 26.0517C38.5292 25.5556 38.516 24.7642 38.0199 24.2842L36.2817 26.0811ZM38.2863 24.4452C37.6174 24.2747 36.9368 24.6787 36.7662 25.3476C36.5956 26.0166 36.9996 26.6971 37.6686 26.8677L38.2863 24.4452ZM38.7798 27.002C39.4648 27.0881 40.0899 26.6026 40.1759 25.9176C40.262 25.2326 39.7765 24.6076 39.0915 24.5215L38.7798 27.002ZM39.9266 24.5915C39.2365 24.5759 38.6643 25.1228 38.6487 25.813C38.6331 26.5031 39.18 27.0753 39.8702 27.0909L39.9266 24.5915ZM41.0184 27.0331C41.7034 26.947 42.1889 26.3219 42.1028 25.6369C42.0167 24.952 41.3916 24.4665 40.7066 24.5526L41.0184 27.0331ZM26.6063 35.1821C26.9628 35.7733 27.731 35.9637 28.3222 35.6072C28.9134 35.2508 29.1037 34.4825 28.7473 33.8913L26.6063 35.1821ZM29.2328 34.6191C28.8228 34.0636 28.0402 33.9458 27.4847 34.3558C26.9293 34.7658 26.8115 35.5484 27.2215 36.1038L29.2328 34.6191ZM27.9339 36.9715C28.4 37.4808 29.1907 37.5158 29.6999 37.0497C30.2092 36.5836 30.2442 35.793 29.7782 35.2837L27.9339 36.9715ZM30.3796 35.8674C29.8548 35.4188 29.0657 35.4806 28.6172 36.0054C28.1686 36.5302 28.2305 37.3192 28.7552 37.7678L30.3796 35.8674ZM29.6991 38.4648C30.2835 38.8322 31.0552 38.6562 31.4226 38.0717C31.79 37.4872 31.614 36.7156 31.0295 36.3482L29.6991 38.4648ZM31.715 36.7023C31.0754 36.4425 30.3463 36.7505 30.0865 37.3901C29.8268 38.0298 30.1348 38.7589 30.7744 39.0186L31.715 36.7023ZM31.9704 39.3688C32.6495 39.4926 33.3005 39.0424 33.4243 38.3632C33.5481 37.6841 33.0979 37.0331 32.4188 36.9093L31.9704 39.3688ZM33.1273 36.9585C32.4376 36.9886 31.9029 37.5722 31.9331 38.2619C31.9632 38.9516 32.5468 39.4862 33.2364 39.4561L33.1273 36.9585ZM34.4524 39.2789C35.1247 39.1224 35.5429 38.4504 35.3864 37.7781C35.2299 37.1057 34.5579 36.6875 33.8855 36.844L34.4524 39.2789ZM34.6981 36.5978C34.0507 36.8375 33.7202 37.5566 33.9599 38.204C34.1995 38.8514 34.9187 39.1819 35.5661 38.9423L34.6981 36.5978ZM36.6071 38.4934C37.2269 38.1893 37.4827 37.4403 37.1785 36.8206C36.8743 36.2008 36.1253 35.945 35.5056 36.2492L36.6071 38.4934ZM36.299 35.8167C35.7064 36.1709 35.5132 36.9384 35.8673 37.531C36.2215 38.1236 36.989 38.3168 37.5816 37.9627L36.299 35.8167ZM38.4983 37.3706C39.0656 36.9772 39.2067 36.1984 38.8133 35.6311C38.4199 35.0638 37.6412 34.9227 37.0738 35.3161L38.4983 37.3706ZM37.828 34.7602C37.2836 35.1848 37.1865 35.9702 37.611 36.5146C38.0356 37.059 38.821 37.1561 39.3654 36.7316L37.828 34.7602ZM40.1899 36.0559C40.7136 35.6061 40.7736 34.8169 40.3239 34.2932C39.8741 33.7694 39.0849 33.7094 38.5612 34.1592L40.1899 36.0559ZM39.2747 33.5206C38.7692 33.9908 38.7406 34.7818 39.2108 35.2873C39.681 35.7927 40.472 35.8213 40.9774 35.3511L39.2747 33.5206ZM41.7314 34.6256C42.2214 34.1392 42.2243 33.3478 41.7379 32.8579C41.2515 32.3679 40.4601 32.365 39.9701 32.8514L41.7314 34.6256ZM40.6593 32.1509C40.1793 32.6471 40.1924 33.4384 40.6887 33.9184C41.1849 34.3984 41.9762 34.3852 42.4562 33.889L40.6593 32.1509ZM21.0596 31.0726C21.1992 30.9729 21.3531 30.8559 21.5162 30.7242L19.9458 28.779C19.8161 28.8837 19.7018 28.9702 19.6074 29.0376L21.0596 31.0726ZM22.3434 29.9975C22.5922 29.7612 22.851 29.4989 23.1084 29.2146L21.2552 27.5366C21.0433 27.7705 20.8289 27.9881 20.6217 28.1847L22.3434 29.9975ZM23.8169 28.3636C24.0408 28.0693 24.2573 27.7565 24.4561 27.4283L22.3176 26.1333C22.1703 26.3765 22.005 26.6163 21.8275 26.8496L23.8169 28.3636ZM24.9961 26.3846C25.0756 26.1988 25.1481 26.0082 25.2118 25.8134L22.8356 25.0365C22.7965 25.1562 22.7504 25.2778 22.6977 25.4009L24.9961 26.3846ZM34.8484 23.708C34.8958 23.795 34.9495 23.9074 35.0218 24.0647L37.2933 23.0206C37.2208 22.8627 37.1359 22.681 37.0436 22.5117L34.8484 23.708ZM35.4895 25.02C35.6793 25.359 35.9329 25.7437 36.2817 26.0811L38.0199 24.2842C37.9114 24.1793 37.7963 24.0227 37.671 23.7988L35.4895 25.02ZM37.6686 26.8677C37.9206 26.932 38.1834 26.9643 38.4554 26.9643V24.4643C38.3829 24.4643 38.3281 24.4559 38.2863 24.4452L37.6686 26.8677ZM38.4554 26.9643C38.4438 26.9643 38.4593 26.9638 38.528 26.9712C38.594 26.9783 38.6693 26.9881 38.7798 27.002L39.0915 24.5215C38.9367 24.502 38.6699 24.4643 38.4554 24.4643V26.9643ZM39.8702 27.0909C40.2128 27.0986 40.598 27.0859 41.0184 27.0331L40.7066 24.5526C40.4253 24.5879 40.1645 24.5969 39.9266 24.5915L39.8702 27.0909ZM26.3325 34.7046C26.4206 34.8662 26.5119 35.0255 26.6063 35.1821L28.7473 33.8913C28.6719 33.7662 28.5986 33.6385 28.5277 33.5083L26.3325 34.7046ZM27.2215 36.1038C27.4455 36.4074 27.6833 36.6976 27.9339 36.9715L29.7782 35.2837C29.5898 35.0778 29.4075 34.8557 29.2328 34.6191L27.2215 36.1038ZM28.7552 37.7678C29.0544 38.0235 29.3693 38.2575 29.6991 38.4648L31.0295 36.3482C30.8102 36.2104 30.593 36.0498 30.3796 35.8674L28.7552 37.7678ZM30.7744 39.0186C31.1582 39.1744 31.5577 39.2935 31.9704 39.3688L32.4188 36.9093C32.1843 36.8666 31.9495 36.7975 31.715 36.7023L30.7744 39.0186ZM33.2364 39.4561C33.4464 39.4469 33.6573 39.4259 33.8688 39.3927L33.4814 36.9229C33.362 36.9417 33.244 36.9534 33.1273 36.9585L33.2364 39.4561ZM33.8688 39.3927C34.0655 39.3619 34.2601 39.3237 34.4524 39.2789L33.8855 36.844C33.7499 36.8756 33.6152 36.902 33.4814 36.9229L33.8688 39.3927ZM35.5661 38.9423C35.9225 38.8103 36.27 38.6589 36.6071 38.4934L35.5056 36.2492C35.2367 36.3812 34.9672 36.4982 34.6981 36.5978L35.5661 38.9423ZM37.5816 37.9627C37.8972 37.774 38.2033 37.5751 38.4983 37.3706L37.0738 35.3161C36.8203 35.4919 36.5616 35.6598 36.299 35.8167L37.5816 37.9627ZM39.3654 36.7316C39.6531 36.5072 39.9285 36.2803 40.1899 36.0559L38.5612 34.1592C38.3263 34.3609 38.0814 34.5626 37.828 34.7602L39.3654 36.7316ZM40.9774 35.3511C41.2506 35.097 41.5029 34.8525 41.7314 34.6256L39.9701 32.8514C39.757 33.063 39.5244 33.2883 39.2747 33.5206L40.9774 35.3511ZM42.4562 33.889C42.5925 33.7481 42.7041 33.6322 42.7995 33.5349L41.0148 31.7842C40.9113 31.8898 40.7891 32.0167 40.6593 32.1509L42.4562 33.889ZM33.6751 38.1578L33.2878 35.688H33.2878L33.6751 38.1578ZM22.3015 31.6968C23.3758 30.8294 23.5435 29.2554 22.6762 28.1811C21.8089 27.1068 20.2349 26.9391 19.1606 27.8064L22.3015 31.6968ZM19.7609 27.2784C18.7598 28.2292 18.719 29.8116 19.6698 30.8127C20.6207 31.8139 22.2031 31.8547 23.2042 30.9038L19.7609 27.2784ZM24.035 30.0536C24.9617 29.0301 24.8833 27.4491 23.8598 26.5224C22.8363 25.5957 21.2553 25.6741 20.3286 26.6976L24.035 30.0536ZM20.8327 26.0927C19.9966 27.1914 20.2095 28.7599 21.3082 29.5961C22.407 30.4322 23.9755 30.2193 24.8117 29.1205L20.8327 26.0927ZM25.5253 28.0758C26.2405 26.8948 25.8629 25.3576 24.6819 24.6423C23.5009 23.9271 21.9636 24.3047 21.2484 25.4857L25.5253 28.0758ZM21.5486 24.9091C21.0053 26.1784 21.5939 27.6478 22.8633 28.1911C24.1326 28.7344 25.602 28.1457 26.1453 26.8764L21.5486 24.9091ZM33.8861 24.5868C34.4627 25.8413 35.9472 26.3909 37.2017 25.8142C38.4562 25.2376 39.0058 23.7531 38.4291 22.4986L33.8861 24.5868ZM38.7617 23.1883C38.0873 21.9835 36.5639 21.5535 35.3591 22.2279C34.1543 22.9023 33.7243 24.4257 34.3987 25.6305L38.7617 23.1883ZM35.4126 26.9795C36.405 27.9395 37.9876 27.9132 38.9476 26.9208C39.9076 25.9285 39.8813 24.3458 38.8889 23.3858L35.4126 26.9795ZM38.5952 23.234C37.2573 22.8928 35.8961 23.7009 35.555 25.0388C35.2138 26.3767 36.0218 27.7378 37.3597 28.079L38.5952 23.234ZM38.624 28.2422C39.9939 28.4144 41.244 27.4434 41.4162 26.0735C41.5883 24.7035 40.6173 23.4534 39.2474 23.2813L38.624 28.2422ZM39.9549 23.3418C38.5745 23.3106 37.4302 24.4044 37.399 25.7847C37.3679 27.1651 38.4616 28.3094 39.842 28.3405L39.9549 23.3418ZM41.1743 28.2733C42.5443 28.1011 43.5152 26.851 43.343 25.481C43.1708 24.1111 41.9207 23.1401 40.5508 23.3123L41.1743 28.2733ZM25.5358 35.8275C26.2487 37.01 27.7852 37.3906 28.9676 36.6777C30.15 35.9648 30.5307 34.4283 29.8178 33.2459L25.5358 35.8275ZM30.2385 33.8767C29.4184 32.7658 27.8532 32.5301 26.7424 33.3501C25.6315 34.1701 25.3958 35.7354 26.2158 36.8462L30.2385 33.8767ZM27.0118 37.8154C27.9439 38.834 29.5253 38.904 30.5438 37.9718C31.5624 37.0397 31.6324 35.4583 30.7003 34.4398L27.0118 37.8154ZM31.1917 34.9171C30.1421 34.0201 28.5641 34.1437 27.667 35.1933C26.7699 36.2428 26.8935 37.8209 27.9431 38.718L31.1917 34.9171ZM29.0338 39.5231C30.2028 40.2579 31.7461 39.9059 32.4809 38.737C33.2157 37.568 32.8637 36.0247 31.6948 35.2899L29.0338 39.5231ZM32.1853 35.5441C30.906 35.0247 29.4479 35.6406 28.9284 36.9198C28.4089 38.1991 29.0248 39.6573 30.3041 40.1767L32.1853 35.5441ZM31.7462 40.5985C33.1045 40.8461 34.4064 39.9457 34.654 38.5874C34.9017 37.2291 34.0013 35.9272 32.643 35.6796L31.7462 40.5985ZM33.0727 35.7097C31.6933 35.7699 30.6239 36.937 30.6842 38.3164C30.7445 39.6958 31.9116 40.7652 33.291 40.7049L33.0727 35.7097ZM34.7358 40.4964C36.0805 40.1833 36.9169 38.8394 36.6038 37.4946C36.2908 36.1499 34.9469 35.3135 33.6021 35.6266L34.7358 40.4964ZM34.2641 35.4255C32.9693 35.9049 32.3082 37.3432 32.7876 38.638C33.267 39.9328 34.7052 40.5939 36.0001 40.1145L34.2641 35.4255ZM37.1579 39.6156C38.3974 39.0072 38.909 37.5092 38.3006 36.2698C37.6922 35.0303 36.1943 34.5187 34.9548 35.1271L37.1579 39.6156ZM35.6577 34.7438C34.4726 35.4521 34.086 36.9871 34.7944 38.1722C35.5027 39.3574 37.0377 39.744 38.2228 39.0356L35.6577 34.7438ZM39.2105 38.3978C40.3452 37.6111 40.6273 36.0535 39.8405 34.9189C39.0538 33.7842 37.4962 33.5021 36.3616 34.2889L39.2105 38.3978ZM37.0592 33.7745C35.9705 34.6236 35.7762 36.1946 36.6253 37.2833C37.4745 38.3721 39.0454 38.5663 40.1342 37.7172L37.0592 33.7745ZM41.0042 37.0042C42.0517 36.1047 42.1717 34.5263 41.2722 33.4788C40.3727 32.4313 38.7944 32.3113 37.7468 33.2108L41.0042 37.0042ZM38.4233 32.6054C37.4124 33.5458 37.3552 35.1277 38.2956 36.1386C39.236 37.1496 40.8179 37.2067 41.8288 36.2663L38.4233 32.6054ZM42.6121 35.5127C43.5919 34.54 43.5977 32.9571 42.625 31.9772C41.6523 30.9973 40.0694 30.9915 39.0895 31.9643L42.6121 35.5127ZM39.7608 31.2818C38.8009 32.2742 38.8272 33.8569 39.8196 34.8169C40.812 35.7768 42.3947 35.7505 43.3546 34.7581L39.7608 31.2818ZM21.7857 32.0901C21.948 31.9743 22.1216 31.842 22.3015 31.6968L19.1606 27.8064C19.0476 27.8976 18.9531 27.9689 18.8813 28.0201L21.7857 32.0901ZM23.2042 30.9038C23.4738 30.6477 23.7548 30.363 24.035 30.0536L20.3286 26.6976C20.1395 26.9064 19.9472 27.1015 19.7609 27.2784L23.2042 30.9038ZM24.8117 29.1205C25.0588 28.7958 25.3008 28.4465 25.5253 28.0758L21.2484 25.4857C21.1269 25.6864 20.9871 25.8898 20.8327 26.0927L24.8117 29.1205ZM26.1453 26.8764C26.2382 26.6593 26.324 26.4342 26.3999 26.2019L21.6475 24.648C21.6206 24.7302 21.5878 24.8173 21.5486 24.9091L26.1453 26.8764ZM33.7508 24.3062C33.7758 24.352 33.8139 24.4298 33.8861 24.5868L38.4291 22.4986C38.3564 22.3403 38.256 22.1241 38.1412 21.9136L33.7508 24.3062ZM34.3987 25.6305C34.6208 26.0272 34.9437 26.5259 35.4126 26.9795L38.8889 23.3858C38.8986 23.3951 38.8896 23.3882 38.8646 23.3537C38.8395 23.3189 38.8053 23.2661 38.7617 23.1883L34.3987 25.6305ZM37.3597 28.079C37.7169 28.17 38.0837 28.2143 38.4554 28.2143V23.2143C38.4827 23.2143 38.5318 23.2178 38.5952 23.234L37.3597 28.079ZM38.4554 28.2143C38.408 28.2143 38.3778 28.2122 38.3732 28.2119C38.3674 28.2115 38.3725 28.2117 38.3941 28.214C38.4152 28.2163 38.4433 28.2196 38.4837 28.2246C38.5266 28.2299 38.5664 28.235 38.624 28.2422L39.2474 23.2813C39.1418 23.268 38.7701 23.2143 38.4554 23.2143V28.2143ZM39.842 28.3405C40.2369 28.3495 40.6844 28.3349 41.1743 28.2733L40.5508 23.3123C40.3389 23.339 40.1404 23.346 39.9549 23.3418L39.842 28.3405ZM25.2349 35.3028C25.3316 35.4801 25.4319 35.6551 25.5358 35.8275L29.8178 33.2459C29.7519 33.1366 29.6877 33.0246 29.6253 32.9102L25.2349 35.3028ZM26.2158 36.8462C26.4645 37.1832 26.73 37.5075 27.0118 37.8154L30.7003 34.4398C30.543 34.2679 30.3885 34.0799 30.2385 33.8767L26.2158 36.8462ZM27.9431 38.718C28.2851 39.0103 28.6489 39.2811 29.0338 39.5231L31.6948 35.2899C31.5307 35.1868 31.3623 35.0629 31.1917 34.9171L27.9431 38.718ZM30.3041 40.1767C30.7625 40.3629 31.2443 40.507 31.7462 40.5985L32.643 35.6796C32.4977 35.6531 32.3452 35.6091 32.1853 35.5441L30.3041 40.1767ZM33.291 40.7049C33.5476 40.6937 33.805 40.668 34.0625 40.6277L33.2878 35.688C33.2144 35.6995 33.1428 35.7066 33.0727 35.7097L33.291 40.7049ZM34.0625 40.6277C34.2906 40.5919 34.5152 40.5477 34.7358 40.4964L33.6021 35.6266C33.4949 35.6515 33.3901 35.672 33.2878 35.688L34.0625 40.6277ZM36.0001 40.1145C36.4001 39.9664 36.7867 39.7978 37.1579 39.6156L34.9548 35.1271C34.7201 35.2423 34.4895 35.3421 34.2641 35.4255L36.0001 40.1145ZM38.2228 39.0356C38.565 38.8311 38.8947 38.6168 39.2105 38.3978L36.3616 34.2889C36.1288 34.4503 35.8938 34.6027 35.6577 34.7438L38.2228 39.0356ZM40.1342 37.7172C40.439 37.4795 40.7295 37.24 41.0042 37.0042L37.7468 33.2108C37.5252 33.4012 37.2955 33.5903 37.0592 33.7745L40.1342 37.7172ZM41.8288 36.2663C42.1137 36.0014 42.3758 35.7472 42.6121 35.5127L39.0895 31.9643C38.884 32.1683 38.6613 32.384 38.4233 32.6054L41.8288 36.2663ZM43.3546 34.7581C43.4942 34.6138 43.6005 34.5034 43.6919 34.4102L40.1225 30.9089C40.0149 31.0186 39.8874 31.151 39.7608 31.2818L43.3546 34.7581Z" fill="#222222"/>
</svg>
