<svg width="92" height="75" viewBox="0 0 92 75" fill="none" xmlns="http://www.w3.org/2000/svg">
<path d="M42.1314 6.26624C35.6286 9.03338 28.3502 8.9668 22.1632 12.5362C20.2418 13.6447 18.6327 15.8433 17.0012 17.3582C15.4824 18.7686 13.9674 20.0899 12.5191 21.6012C9.22808 25.0353 4.86577 29.0473 4.18438 33.9144C3.53948 38.5208 4.67009 42.8188 6.27436 47.0586C8.0256 51.6869 10.5318 56.0138 14.2062 59.4348C15.995 61.1002 17.8569 62.9683 20.1488 63.8414C22.4829 64.7306 24.6431 66.1701 27 67C29.6697 67.94 31.2216 68.3265 34 68.8271C35.4737 69.0927 39.0327 70.1739 40.5 70.5C43.1966 71.0992 47.7406 70.4283 50.5 70.5C53.9218 70.5889 55.2452 69.8526 58.5 68.8271C61.096 68.0092 61.841 67.5757 64.5 67C65.6483 66.7514 68.0719 65.0283 68.9234 64.2317C69.7527 63.4559 70.7668 63.004 71.5925 62.2299C72.3473 61.5223 73.0559 60.8066 73.8588 60.1525C75.6572 58.6871 77.3572 57.413 78.8319 55.5696C80.1873 53.8754 81.661 52.3506 82.9237 50.5713C84.1062 48.9051 84.7931 46.9607 85.5929 45.0945C86.3539 43.3189 87.2431 41.6698 87.8087 39.8066C88.4285 37.7651 88.1361 35.3762 88.1361 33.2723C88.1361 31.2868 86.9976 29.4557 86.1972 27.6948C85.1483 25.3872 83.6308 23.7294 82.0676 21.8026C81.4884 21.0887 81.3011 20.1965 80.8589 19.4105C80.4736 18.7255 79.8731 18.2225 79.474 17.5471C78.3884 15.7098 77.0468 14.1134 75.4703 12.6495C72.6384 10.0198 69.1379 8.47209 65.6499 6.94612C63.7189 6.10128 62.075 4.9942 59.934 4.73023C56.6471 4.325 53.2908 4 49.9751 4C48.7785 4 47.7265 4.45325 46.5254 4.45325C45.9417 4.45325 42.7872 5.12513 43.4911 5.35975" stroke="#F9D100" stroke-width="7" stroke-linecap="round"/>
<path d="M46.452 55.5406C45.7745 56.0699 45.1175 57.6588 45.576 58.5759C45.9312 59.2863 47.4852 59.0537 48.0104 58.8203C48.9082 58.4213 49.2021 57.396 49.2021 56.4369C49.2021 55.1358 48.9009 55.1739 47.7354 55.1739" stroke="#F9D100" stroke-width="7" stroke-linecap="round"/>
<path d="M47.795 19C47.4046 19.1263 43.0757 19.5086 43.0001 20C42.8331 21.0855 43.3118 23.1421 43.6698 24.1336C44.0838 25.2798 44.6782 29.3202 45 30.5C45.6171 32.7628 45.2892 32.1813 45.5 34.5C45.7372 37.1089 45.9616 39.9315 45.9616 42.5492C45.9616 42.7831 45.7436 44.8274 46.0431 44.9937C46.4958 45.2452 47.3171 44.8739 47.795 44.8511C48.9734 44.795 48.8563 43.861 49.221 42.9566C49.6101 41.9918 49.741 40.9485 50.097 39.9824C50.6551 38.4676 51.4532 35.6302 51.6248 34C51.8419 31.938 51.7911 32.0782 51.6248 30C51.5269 28.7757 51.3467 26.4464 51.0544 25.254C50.8496 24.4184 50.5 21.5 50.5 21.5L50.097 19" stroke="#F9D100" stroke-width="7" stroke-linecap="round"/>
</svg>
