<svg width="103" height="92" viewBox="0 0 103 92" fill="none" xmlns="http://www.w3.org/2000/svg">
<g clip-path="url(#clip0_311_113)">
<path d="M36.5705 6.74064C42.1432 6.35248 64.9191 2.70856 70.4603 6.74074L72.1566 7.65257C80.2282 10.5813 90.2133 15.4878 96.0822 27.111C99.553 38.7848 100.41 47.9436 96.6063 57.7418C94.7383 62.5533 91.548 69.0498 87.7227 72.4077C83.7169 75.9241 78.1861 79.0782 73.5244 81.7777C69.2143 84.2736 63.0088 85.5444 58.1958 86.8837C53.9308 88.0705 49.0293 87.2512 44.7191 86.886C34.8164 86.047 17.7164 79.9034 11.76 70.6084C7.99239 64.7289 8.79963 64.0239 5.74769 57.7418C3.31788 52.7403 5.51705 47.8023 5.74769 42.169C5.96831 36.7801 6.01092 31.7694 8.71274 26.8694C10.9829 22.7524 13.828 18.3699 17.6067 15.4878C22.682 11.6167 30.0375 7.19569 36.5705 6.74064Z" fill="white"/>
<path fill-rule="evenodd" clip-rule="evenodd" d="M68.005 2.06367C69.3776 2.40034 70.8253 2.92146 72.0314 3.79909C72.1664 3.89738 72.2924 4.00352 72.4091 4.11644C72.5573 4.1492 72.705 4.19196 72.8514 4.24511C81.1644 7.26142 92.1214 12.5481 98.5569 25.2936L98.6982 25.5734L98.7875 25.8737C102.34 37.8229 103.397 47.8077 99.2162 58.5759C98.2427 61.0833 96.9151 64.0569 95.309 66.8721C93.7264 69.646 91.7564 72.4751 89.4348 74.5131C85.3356 78.1114 79.8304 81.2958 75.3974 83.86C75.186 83.9823 74.977 84.1032 74.7707 84.2226C72.2666 85.6727 69.3378 86.7016 66.582 87.5176C64.9621 87.9973 63.1821 88.4617 61.553 88.8867C60.5231 89.1555 59.5535 89.4084 58.723 89.6395C56.0934 90.3713 53.3968 90.4524 50.9502 90.3436C49.3468 90.2724 47.6448 90.1024 46.1161 89.9497C45.3951 89.8777 44.7127 89.8096 44.0974 89.7574C38.7283 89.3025 31.6371 87.4485 25.1158 84.5276C18.6792 81.6447 12.2032 77.4588 8.69435 71.9831C6.69577 68.8643 5.85218 67.016 5.11937 65.1053C4.98096 64.7444 4.85073 64.3938 4.71918 64.0396C4.20006 62.6418 3.66056 61.1893 2.51855 58.8386C0.897462 55.5017 0.891399 52.2681 1.19526 49.4341C1.30917 48.3717 1.47922 47.2747 1.63658 46.2595C1.68252 45.9631 1.72738 45.6737 1.76945 45.3941C1.96425 44.0997 2.12034 42.8952 2.16963 41.6912C2.1839 41.3427 2.19725 40.9907 2.21071 40.6356C2.39571 35.7556 2.60321 30.282 5.54815 24.9411C7.84639 20.7731 10.962 15.8686 15.3285 12.5382C20.4471 8.63412 28.4634 3.66609 36.0523 3.1375C37.0001 3.07147 38.502 2.90141 40.4539 2.68039C41.157 2.60077 41.9186 2.51454 42.7336 2.42418C45.735 2.09144 49.3194 1.72069 52.9209 1.4891C56.5042 1.25868 60.2052 1.15882 63.4209 1.39381C65.0299 1.51139 66.5954 1.71795 68.005 2.06367ZM69.2204 10.0484C68.762 9.94787 68.3165 9.75298 67.9127 9.45917C67.7422 9.3351 67.2781 9.09289 66.3374 8.86216C65.4337 8.64048 64.2844 8.47558 62.9107 8.3752C60.1612 8.17427 56.8255 8.25248 53.3701 8.47467C49.933 8.69569 46.4768 9.05209 43.505 9.38155C42.7853 9.46133 42.0845 9.54074 41.4148 9.61662C39.3901 9.84602 37.6505 10.0431 36.5387 10.1206C31.1438 10.4964 24.5418 14.3147 19.5737 18.104C16.4302 20.5016 13.8915 24.307 11.678 28.3211C9.559 32.1642 9.40179 36.0692 9.19144 41.2944C9.18237 41.5196 9.1732 41.7473 9.16378 41.9776C9.09848 43.5724 8.89546 45.0806 8.69151 46.4358C8.6387 46.7868 8.58682 47.1219 8.53673 47.4454C8.38519 48.4243 8.25008 49.297 8.15537 50.1803C7.9129 52.4417 8.02143 54.1465 8.81485 55.7797C10.116 58.4579 10.7761 60.2382 11.3043 61.6627C11.4262 61.9914 11.5411 62.3012 11.6552 62.5986C12.2154 64.0595 12.8427 65.4827 14.5881 68.2064C16.998 71.9672 21.9777 75.452 27.9771 78.1391C33.8918 80.7883 40.217 82.4036 44.6883 82.7824C45.5274 82.8535 46.3213 82.9334 47.095 83.0112C48.4999 83.1526 49.8384 83.2873 51.2611 83.3506C53.38 83.4448 55.2379 83.3433 56.8464 82.8957C57.9379 82.592 58.9891 82.3191 60.0381 82.0467C61.5252 81.6605 63.0079 81.2756 64.5944 80.8057C67.1882 80.0377 69.4841 79.195 71.2628 78.165C71.3916 78.0904 71.5207 78.0157 71.6501 77.9408C76.2757 75.2631 81.25 72.3835 84.8168 69.2524C86.2964 67.9536 87.8121 65.8866 89.2289 63.4032C90.6222 60.9611 91.8079 58.3163 92.6907 56.0424C96.0395 47.4167 95.4344 39.2694 92.1682 28.1744C86.9223 18.015 78.1239 13.6047 70.4639 10.8253C69.9836 10.6511 69.5647 10.3826 69.2204 10.0484Z" fill="#222222"/>
<path fill-rule="evenodd" clip-rule="evenodd" d="M56.9461 27.9057C58.8859 26.8486 61.3154 27.5641 62.3725 29.5039C62.4952 29.7291 62.6045 29.9502 62.6977 30.1454C62.7789 30.3155 62.847 30.4884 62.9025 30.6631C62.989 30.8016 63.0681 30.9469 63.1388 31.0988C63.2627 31.365 63.3707 31.586 63.477 31.7814C63.5213 31.8628 63.5624 31.945 63.6005 32.028C63.647 32.0853 63.6922 32.1443 63.7361 32.2048C64.0407 32.2185 64.3142 32.2511 64.4724 32.2701C64.6484 32.2912 64.8204 32.3235 64.9877 32.3661C65.1368 32.3638 65.2876 32.3699 65.4396 32.3847C65.6854 32.4086 65.939 32.4263 66.2051 32.4323C66.3268 32.4351 66.4471 32.4432 66.5657 32.4566C66.6823 32.4386 66.8006 32.4257 66.9206 32.4179C67.1427 32.4036 67.3747 32.3791 67.6162 32.3412C69.7987 31.999 71.8453 33.4909 72.1875 35.6733C72.5297 37.8558 71.0379 39.9025 68.8554 40.2447C68.3602 40.3223 67.8863 40.3722 67.4364 40.4013C67.1959 40.4168 66.9589 40.4108 66.7275 40.3848C66.4987 40.42 66.2638 40.4357 66.0244 40.4303C65.5168 40.4188 65.06 40.3855 64.6655 40.3471C64.4583 40.327 64.2563 40.2914 64.0606 40.2415C63.8821 40.2442 63.7013 40.235 63.5191 40.2131C63.4937 40.2101 63.4714 40.2074 63.4516 40.2052C63.4384 40.2037 63.4263 40.2024 63.4152 40.2012C63.4009 40.1996 63.3893 40.1985 63.3803 40.1976C63.2343 40.1945 63.0903 40.1836 62.9486 40.1653C62.7735 40.1645 62.5965 40.1522 62.4183 40.1278C61.6467 40.022 60.9255 39.8004 60.2632 39.482C59.9216 39.3178 59.6139 39.1114 59.3433 38.872C59.0345 38.714 58.7414 38.5129 58.4724 38.2684C57.9796 37.8202 57.5793 37.3438 57.2538 36.8931C57.0975 36.6766 56.9659 36.4498 56.8586 36.216C56.7063 36.0282 56.5689 35.8238 56.4492 35.6037C56.2276 35.1962 56.0394 34.8042 55.8862 34.4752C55.8123 34.3164 55.7497 34.1553 55.698 33.9927C55.6182 33.8649 55.5448 33.7314 55.4783 33.5922C55.4185 33.4668 55.3768 33.3852 55.3479 33.3321C54.2908 31.3923 55.0063 28.9628 56.9461 27.9057ZM38.2124 32.3809C40.2825 33.1525 41.3351 35.456 40.5636 37.5261C40.4055 37.9502 40.2332 38.3564 40.048 38.7457C39.9497 38.9524 39.8359 39.1468 39.7088 39.3281C39.6284 39.5357 39.5296 39.7394 39.4117 39.937C39.1713 40.3401 38.9187 40.7182 38.6571 41.0734C38.5199 41.2596 38.3698 41.4304 38.2087 41.5856C38.0901 41.7741 37.954 41.9552 37.8005 42.1267C37.4917 42.4716 37.1799 42.7866 36.8714 43.0754C36.7124 43.2243 36.5444 43.3577 36.3694 43.4757C36.2303 43.6293 36.0775 43.7741 35.9111 43.9082C35.5807 44.1747 35.2624 44.4133 34.9699 44.6252C34.8222 44.7321 34.6698 44.8275 34.5135 44.9115C34.389 45.0243 34.2559 45.1304 34.1145 45.2291C33.9789 45.3237 33.8605 45.4066 33.7503 45.4853C31.952 46.7685 29.454 46.351 28.1708 44.5528C26.8876 42.7546 27.305 40.2566 29.1033 38.9734C29.2504 38.8684 29.3984 38.7648 29.5366 38.6684C29.6662 38.5779 29.7994 38.4962 29.9353 38.4231C30.0428 38.3258 30.1566 38.2334 30.2767 38.1464C30.4929 37.9898 30.6955 37.8371 30.8892 37.6809C30.9801 37.6075 31.0734 37.5388 31.1685 37.4747C31.2429 37.3925 31.3213 37.3127 31.4037 37.2356C31.5565 37.0924 31.7021 36.9447 31.8405 36.7902C31.9076 36.7152 31.977 36.6433 32.0484 36.5745C32.1006 36.4915 32.1563 36.4097 32.2155 36.3294C32.3277 36.177 32.4365 36.0143 32.5408 35.8394C32.5924 35.7528 32.6468 35.6689 32.7037 35.5877C32.74 35.4942 32.7799 35.4013 32.8237 35.3092C32.9082 35.1316 32.9899 34.9398 33.0673 34.7321C33.8388 32.6621 36.1424 31.6094 38.2124 32.3809ZM72.6029 46.0909C74.18 47.6379 74.2044 50.1704 72.6574 51.7475C72.5605 51.8462 72.4503 51.9598 72.3221 52.0925C72.2 52.2186 72.0718 52.335 71.9381 52.4417C71.8339 52.581 71.7195 52.715 71.5947 52.8429C71.3634 53.0799 71.1101 53.3373 70.8371 53.6101C70.7062 53.7408 70.5685 53.8606 70.4251 53.9694C70.3135 54.1114 70.1909 54.2475 70.0574 54.3765C69.8031 54.6222 69.536 54.876 69.257 55.1356C69.1191 55.2639 68.9745 55.3806 68.8245 55.4857C68.7056 55.6256 68.5756 55.759 68.4347 55.8847C68.1621 56.1276 67.88 56.3738 67.589 56.6212C67.4434 56.745 67.2915 56.8565 67.1346 56.9559C67.0075 57.092 66.8693 57.2209 66.7201 57.3412C66.4289 57.5762 66.1297 57.8113 65.8229 58.0449C65.6678 58.163 65.5069 58.268 65.3414 58.3601C65.204 58.4914 65.0556 58.6146 64.8963 58.7282C64.5837 58.9511 64.2637 59.1717 63.9368 59.3883C63.7703 59.4986 63.5986 59.5948 63.4231 59.6772C63.2733 59.8018 63.1125 59.917 62.9411 60.0214C62.6029 60.2273 62.2575 60.4282 61.9052 60.6226C61.7247 60.7221 61.5399 60.8063 61.3523 60.8754C61.1872 60.9904 61.0113 61.0943 60.8252 61.1857C60.4562 61.3667 60.0796 61.5399 59.696 61.7033C59.4985 61.7873 59.2981 61.8543 59.0963 61.9048C58.9124 62.0053 58.7182 62.0926 58.5145 62.1652C58.1095 62.3093 57.6964 62.4415 57.2759 62.5596C57.0588 62.6205 56.8409 62.6623 56.624 62.6859C56.4183 62.7642 56.2033 62.8265 55.9803 62.871C55.7594 62.9151 55.5364 62.955 55.3117 62.9902C55.1916 63.0091 55.0718 63.0223 54.9528 63.0303C54.8353 63.0523 54.7158 63.0693 54.5945 63.081C54.108 63.128 53.6239 63.145 53.1434 63.1334C52.8969 63.1274 52.6561 63.0992 52.4229 63.0508C52.1855 63.0594 51.9441 63.0469 51.7006 63.0117C51.2247 62.9428 50.7574 62.8465 50.2997 62.7253C50.0685 62.6642 49.8475 62.584 49.6378 62.4868C49.4127 62.4429 49.1883 62.3789 48.9669 62.2939C48.539 62.1297 48.1222 61.9445 47.7171 61.7409C47.5141 61.6389 47.3235 61.522 47.1461 61.3921C46.9446 61.309 46.7472 61.2083 46.556 61.0896C46.1876 60.8607 45.8298 60.6168 45.4829 60.3598C45.3094 60.2313 45.1493 60.0914 45.0028 59.942C44.8263 59.8326 44.656 59.708 44.4938 59.568C44.1808 59.2981 43.8771 59.0171 43.5828 58.7265C43.4354 58.581 43.3016 58.4267 43.1816 58.2655C43.0274 58.1382 42.8808 57.9978 42.7435 57.8443C42.4774 57.5469 42.2195 57.2412 41.97 56.9281C41.8447 56.7708 41.7331 56.6069 41.6351 56.438C41.5002 56.2978 41.3739 56.1461 41.2575 55.983C41.0313 55.6659 40.8126 55.3422 40.6017 55.0128C40.4954 54.8468 40.4028 54.6759 40.3239 54.5014C40.2058 54.3512 40.0971 54.1907 39.9991 54.0203C39.9032 53.8535 39.8091 53.6855 39.7169 53.5163C38.6598 51.5765 39.3753 49.147 41.3151 48.0899C43.2549 47.0328 45.6844 47.7484 46.7415 49.6882C46.8046 49.8038 46.8686 49.9183 46.9337 50.0314C46.9996 50.1459 47.0591 50.2623 47.1125 50.3802C47.1922 50.4816 47.2677 50.5878 47.3387 50.6986C47.4792 50.918 47.6231 51.1309 47.7702 51.3371C47.8448 51.4416 47.9136 51.5485 47.9768 51.6574C48.0635 51.7475 48.1469 51.8425 48.2264 51.9423C48.3838 52.1398 48.5435 52.329 48.7052 52.5097C48.7871 52.6012 48.8639 52.6954 48.9359 52.792C49.0279 52.8679 49.1173 52.9486 49.2038 53.034C49.3747 53.2028 49.5464 53.3614 49.7185 53.5097C49.8053 53.5846 49.8881 53.6624 49.9669 53.7428C50.0613 53.8013 50.154 53.8642 50.2448 53.9314C50.4235 54.0638 50.6011 54.1845 50.777 54.2938C50.8653 54.3486 50.9506 54.4063 51.0331 54.4666C51.1258 54.5048 51.2177 54.5467 51.3087 54.5925C51.4865 54.6818 51.6615 54.7591 51.8334 54.8251C51.9192 54.858 52.0032 54.8936 52.0853 54.9316C52.1724 54.9486 52.2595 54.9686 52.3466 54.9916C52.5155 55.0363 52.6822 55.0704 52.8468 55.0942C52.9292 55.1061 53.0107 55.1205 53.0912 55.1372C53.1726 55.1342 53.2547 55.1337 53.3373 55.1357C53.4983 55.1396 53.6609 55.134 53.8258 55.118C53.8671 55.1141 53.9083 55.1107 53.9494 55.108C53.99 55.1004 54.031 55.0933 54.0722 55.0868C54.1849 55.0692 54.2988 55.0488 54.4139 55.0259C54.5322 55.0022 54.6504 54.9841 54.7681 54.9712C54.8806 54.9284 54.996 54.8903 55.1141 54.8572C55.3499 54.791 55.5894 54.7146 55.8324 54.6282C55.9564 54.584 56.0813 54.5463 56.2064 54.515C56.321 54.4524 56.4398 54.3947 56.5625 54.3425C56.8068 54.2385 57.0528 54.1255 57.3002 54.0041C57.4265 53.9421 57.5543 53.8874 57.6834 53.8398C57.7974 53.7605 57.9165 53.6864 58.0407 53.6178C58.2877 53.4816 58.5346 53.3381 58.7809 53.1881C58.9068 53.1115 59.0352 53.0427 59.1656 52.9814C59.277 52.8888 59.3946 52.8012 59.5182 52.7193C59.7643 52.5562 60.0085 52.388 60.2506 52.2153C60.3746 52.1268 60.5019 52.0465 60.632 51.9741C60.74 51.8708 60.855 51.7725 60.9767 51.6798C61.2201 51.4945 61.4601 51.306 61.6961 51.1155C61.8175 51.0176 61.9428 50.9279 62.0715 50.8464C62.1758 50.7347 62.2877 50.6278 62.4069 50.5265C62.6473 50.322 62.8823 50.1171 63.1114 49.9129C63.2303 49.8069 63.3538 49.7093 63.4812 49.62C63.5822 49.5012 63.6912 49.387 63.8082 49.2781C64.0467 49.0563 64.2768 48.8376 64.498 48.6238C64.6147 48.511 64.7366 48.4067 64.8628 48.3109C64.9611 48.1858 65.068 48.0653 65.1833 47.9501C65.4263 47.7073 65.6549 47.4751 65.8689 47.2559C65.9872 47.1346 66.1113 47.0225 66.2404 46.9195C66.3412 46.7848 66.4515 46.655 66.5715 46.5309C66.7014 46.3966 66.8283 46.2657 66.9463 46.1453C68.4933 44.5683 71.0259 44.5439 72.6029 46.0909Z" fill="#222222"/>
</g>
<defs>
<clipPath id="clip0_311_113">
<rect width="103" height="92" fill="white"/>
</clipPath>
</defs>
</svg>
